<?xml version="1.0" standalone="no"?>
<!DOCTYPE svg PUBLIC "-//W3C//DTD SVG 20010904//EN" "http://www.w3.org/TR/2001/REC-SVG-20010904/DTD/svg10.dtd">

<svg width="306.5253319218755mm" height="27.150166220963mm"  viewBox="0 0 306.5253319218755 27.150166220963" xmlns="http://www.w3.org/2000/svg">
<title>Bezier Curve : 10erSchlüssel</title>
	<desc>This is an exported Bezier xml_path from Blender, using the ExportScript by maybites.ch</desc>
		<g transform="translate(11.454773135483265 -13.575084507465363)">
			<path style="fill:none;stroke:#000000;stroke-width:1px;stroke-linecap:butt;stroke-linejoin:miter;stroke-opacity:1"
				d="M 293.00010204315186,17.15016271919012
C 288.2000803947449,17.15016271919012 21.76063507795334,17.15016271919012 19.00000497698784,17.15016271919012 
C 14.200001023709774,17.15016271919012 8.501983247697353,16.316854394972324 6.000001914799213,15.150162391364574 
C 1.649721059948206,13.121594674885273 -4.033473785966635,12.97852024435997 -10.000002570450306,15.150162391364574 
C -11.879388242959976,15.83420392125845 -12.000002898275852,22.150165401399136 -10.000002570450306,22.150164004415274 
C -6.000002380460501,22.15016121044755 -2.760628005489707,22.15016260743141 0.0,22.150164004415274 
C 0.9999992325901985,22.15016447007656 2.0000028889626265,23.15016556531191 2.000001724809408,27.150166220963 
C 2.00000056065619,31.15016780793667 1.0000003967434168,32.150167506188154 0.0,32.15016843751073 
C -2.7606301009655,32.15017123147845 -6.0000005178153515,32.15017030015588 -10.000002570450306,32.15016843751073 
C -12.000002898275852,32.150167506188154 -11.879388242959976,38.46612852066755 -10.000002570450306,39.15017005056143 
C -4.033468663692474,41.32181406021118 1.6497233882546425,41.17873776704073 6.000001914799213,39.15017005056143 
C 8.501984179019928,37.9834771156311 14.200001955032349,37.15016786009073 19.00000497698784,37.15016972273588 
C 21.76063507795334,37.150170654058456 288.2000803947449,37.15016786009073 293.00010204315186,37.15016972273588 
C 295.76072096824646,37.150170654058456 295.76072096824646,17.15016271919012 293.00010204315186,17.15016271919012 
Z"/></g>
</svg>