<?xml version="1.0" standalone="no"?>
<!DOCTYPE svg PUBLIC "-//W3C//DTD SVG 20010904//EN" "http://www.w3.org/TR/2001/REC-SVG-20010904/DTD/svg10.dtd">

<svg width="306.5253319218755mm" height="20.150162279605865mm"  viewBox="0 0 306.5253319218755 20.150162279605865" xmlns="http://www.w3.org/2000/svg">
<title>Bezier Curve : 7erSchlüssel</title>
	<desc>This is an exported Bezier xml_path from Blender, using the ExportScript by maybites.ch</desc>
		<g transform="translate(11.454773135483265 89.92492780089378)">
			<path style="fill:none;stroke:#000000;stroke-width:1px;stroke-linecap:butt;stroke-linejoin:miter;stroke-opacity:1"
				d="M 293.00010204315186,13.65015935152769
C 288.2000803947449,13.65015935152769 21.76063507795334,13.65015935152769 19.00000497698784,13.65015935152769 
C 14.200001023709774,13.65015935152769 8.501983247697353,12.81685009598732 6.000001914799213,11.650159023702145 
C 1.6497224569320679,9.621594101190567 -4.033473785966635,9.47851687669754 -10.000002570450306,11.650159023702145 
C -11.879388242959976,12.33420055359602 -12.000002898275852,16.650161473080516 -10.000002570450306,16.650160308927298 
C -6.000002380460501,16.65015798062086 -5.760628264397383,16.650157747790217 -3.000000724568963,16.650160308927298 
C -2.000001259148121,16.650161240249872 -0.999996904283762,17.15016202069819 -0.999998883344233,20.150162279605865 
C -1.0000005131587386,22.650163155049086 -2.0000003278255463,23.650163086131215 -3.000000724568963,23.650164250284433 
C -5.760631058365107,23.650167509913445 -6.0000005178153515,23.65016657859087 -10.000002570450306,23.650164250284433 
C -12.000002898275852,23.650163086131215 -11.879388242959976,27.966124936938286 -10.000002570450306,28.650165535509586 
C -4.033470991998911,30.82180581986904 1.6497215256094933,30.678732320666313 6.000001914799213,28.650165535509586 
C 8.501985110342503,27.48347306624055 14.200001955032349,26.650164276361465 19.00000497698784,26.65016520768404 
C 21.76063507795334,26.650165673345327 288.2000803947449,26.650164276361465 293.00010204315186,26.65016520768404 
C 295.76072096824646,26.650165673345327 295.76072096824646,13.65015935152769 293.00010204315186,13.65015935152769 
Z"/></g>
</svg>