<?xml version="1.0" standalone="no"?>
<!DOCTYPE svg PUBLIC "-//W3C//DTD SVG 20010904//EN" "http://www.w3.org/TR/2001/REC-SVG-20010904/DTD/svg10.dtd">

<svg width="229.2030304670334mm" height="281.3323140144348mm"  viewBox="0 0 229.2030304670334 281.3323140144348" xmlns="http://www.w3.org/2000/svg">
<title>Bezier Curve : TransmissionCage</title>
	<desc>This is an exported Bezier xml_path from Blender, using the ExportScript by maybites.ch</desc>
		<g transform="translate(-51.31281912326813 -44.63808238506317)">
			<path style="fill:none;stroke:#000000;stroke-width:1px;stroke-linecap:butt;stroke-linejoin:miter;stroke-opacity:1"
				d="M -104.57174479961395,179.03105914592743
C -69.71419602632523,210.77808737754822 -45.700397342443466,242.42427200078964 -14.30557668209076,287.8100574016571 
C 18.450632691383362,335.1639285683632 40.90014472603798,372.3255842924118 58.675531297922134,415.9703552722931 
C 91.58875048160553,399.40905570983887 105.19537329673767,387.2394561767578 124.63128566741943,358.9996248483658 
C 82.44539797306061,349.87807273864746 37.88314387202263,324.8288631439209 11.60912960767746,282.59001672267914 
C -16.536109149456024,237.3429387807846 -22.43366651237011,177.00891196727753 -4.406305029988289,134.63804125785828 
C -46.882513910532,136.13344728946686 -79.093798995018,152.5411754846573 -104.57174479961395,179.03105914592743 
Z"/></g>

		<g transform="translate(-51.31281912326813 -44.63808238506317)">
			<path style="fill:none;stroke:#000000;stroke-width:1px;stroke-linecap:butt;stroke-linejoin:miter;stroke-opacity:1"
				d="M 112.54918575286865,362.87106573581696
C 112.54917830228806,361.7668226361275 113.44491690397263,360.8710616827011 114.54916000366211,360.8710616827011 
C 115.6534031033516,360.8710616827011 116.54914170503616,361.7668226361275 116.54913425445557,362.87106573581696 
C 116.54912680387497,363.97529393434525 115.6533882021904,364.871010184288 114.54916000366211,364.871010184288 
C 113.44493180513382,364.871010184288 112.54919320344925,363.97529393434525 112.54918575286865,362.87106573581696 
Z"/></g>

		<g transform="translate(-51.31281912326813 -44.63808238506317)">
			<path style="fill:none;stroke:#000000;stroke-width:1px;stroke-linecap:butt;stroke-linejoin:miter;stroke-opacity:1"
				d="M 60.43078377842903,407.3183238506317
C 60.43078377842903,406.21407330036163 61.3265298306942,405.31831979751587 62.43078038096428,405.31831979751587 
C 63.53502720594406,405.31831979751587 64.43077325820923,406.21407330036163 64.43077325820923,407.3183238506317 
C 64.43077325820923,408.4225744009018 63.53502720594406,409.31832790374756 62.43078038096428,409.31832790374756 
C 61.3265298306942,409.31832790374756 60.43078377842903,408.4225744009018 60.43078377842903,407.3183238506317 
Z"/></g>

		<g transform="translate(-51.31281912326813 -44.63808238506317)">
			<path style="fill:none;stroke:#000000;stroke-width:1px;stroke-linecap:butt;stroke-linejoin:miter;stroke-opacity:1"
				d="M -98.16884994506836,178.6152943968773
C -98.16884994506836,177.5110438466072 -97.2730964422226,176.61529034376144 -96.16884589195251,176.61529034376144 
C -95.06459534168243,176.61529034376144 -94.16884183883667,177.5110438466072 -94.16884183883667,178.6152943968773 
C -94.16884183883667,179.71954494714737 -95.06459534168243,180.61528354883194 -96.16884589195251,180.61528354883194 
C -97.2730964422226,180.61528354883194 -98.16884994506836,179.71954494714737 -98.16884994506836,178.6152943968773 
Z"/></g>

		<g transform="translate(-51.31281912326813 -44.63808238506317)">
			<path style="fill:none;stroke:#000000;stroke-width:1px;stroke-linecap:butt;stroke-linejoin:miter;stroke-opacity:1"
				d="M -16.11543633043766,141.33235812187195
C -16.11543633043766,140.22810757160187 -15.219686552882195,139.3323540687561 -14.115434139966965,139.3323540687561 
C -13.011183589696884,139.3323540687561 -12.115439400076866,140.22810757160187 -12.115439400076866,141.33235812187195 
C -12.115439400076866,142.43660867214203 -13.011183589696884,143.3323621749878 -14.115434139966965,143.3323621749878 
C -15.219686552882195,143.3323621749878 -16.11543633043766,142.43660867214203 -16.11543633043766,141.33235812187195 
Z"/></g>

		<g transform="translate(-51.31281912326813 -44.63808238506317)">
			<path style="fill:none;stroke:#000000;stroke-width:1px;stroke-linecap:butt;stroke-linejoin:miter;stroke-opacity:1"
				d="M -1.999998465180397,281.3323140144348
C -1.999998465180397,280.228064279072 -1.104249618947506,279.3323155492544 5.960459903420201e-08,279.3323155492544 
C 1.1042498517781496,279.3323155492544 1.999998465180397,280.228064279072 1.999998465180397,281.3323140144348 
C 1.999998465180397,282.43656374979764 1.104249618947506,283.3323124796152 -5.960459903420201e-08,283.3323124796152 
C -1.1042498517781496,283.3323124796152 -1.999998465180397,282.43656374979764 -1.999998465180397,281.3323140144348 
Z"/></g>
</svg>