<?xml version="1.0" standalone="no"?>
<!DOCTYPE svg PUBLIC "-//W3C//DTD SVG 20010904//EN" "http://www.w3.org/TR/2001/REC-SVG-20010904/DTD/svg10.dtd">

<svg width="20.999999716877937mm" height="16.000003553926945mm"  viewBox="0 0 20.999999716877937 16.000003553926945" xmlns="http://www.w3.org/2000/svg">
<title>Bezier Curve : WheelCage_Distancer</title>
	<desc>This is an exported Bezier xml_path from Blender, using the ExportScript by maybites.ch</desc>
		<g transform="translate(44.999999925494194 119.00000274181366)">
			<path style="fill:none;stroke:#000000;stroke-width:1px;stroke-linecap:butt;stroke-linejoin:miter;stroke-opacity:1"
				d="M -9.999999776482582,20.000003278255463
C -8.666666224598885,20.0000018812716 -7.333333604037762,20.000000949949026 -6.000000052154064,19.999999552965164 
C -6.000000052154064,19.16667353361845 -6.0000005178153515,18.333347514271736 -6.0000005178153515,17.50002126209438 
C -4.399999976158142,17.50001998152584 -2.86666676402092,17.500018584541976 -1.1999999405816197,17.500017303973436 
C -1.1999999405816197,17.900016624480486 -1.1999999405816197,18.300015944987535 -1.1999999405816197,18.700015265494585 
C -0.46666659181937575,18.700014567002654 0.2666666987352073,18.700014101341367 1.0000000474974513,18.700013402849436 
C 1.0000001639127731,18.300011986866593 1.0000001639127731,17.90001057088375 1.000000280328095,17.50000915490091 
C 1.6666670562699437,17.50000787433237 2.666667103767395,17.500006477348506 3.0000004917383194,17.500005196779966 
C 3.000000724568963,16.50000805966556 3.000000724568963,15.500010922551155 3.0000009573996067,14.50001378543675 
C 2.333334181457758,14.50001378543675 1.666667521931231,14.500013669021428 1.0000007459893823,14.500013669021428 
C 1.0000007459893823,14.100013533607125 1.0000007459893823,13.700013514608145 1.0000007459893823,13.30001326277852 
C 0.26666733901947737,13.30001326277852 -0.46666606795042753,13.30001326277852 -1.1999994749203324,13.30001326277852 
C -1.1999994749203324,13.700013281777501 -1.1999994749203324,14.100013300776482 -1.1999994749203324,14.500013436190784 
C -2.8666662983596325,14.500013436190784 -4.399999510496855,14.500013319775462 -5.999999586492777,14.500013319775462 
C -5.999999586492777,13.666678685694933 -5.99999912083149,12.833344051614404 -5.99999912083149,12.000009417533875 
C -7.333332672715187,12.000007089227438 -8.666666224598885,12.000004295259714 -9.999999776482582,12.000001966953278 
C -9.999999776482582,10.66666841506958 -9.999999776482582,9.333334863185883 -9.999999776482582,8.000001311302185 
C -4.999999422580004,8.000001311302185 4.6566128730773926e-07,8.00000224262476 5.000000819563866,8.00000224262476 
C 5.000000819563866,9.000002406537533 5.000000819563866,10.000002104789019 5.000000819563866,11.000002268701792 
C 7.000000681728125,11.000004131346941 8.999999612569809,11.000006459653378 10.999999940395355,11.000008322298527 
C 10.999999940395355,14.333338476717472 10.999999940395355,17.666668631136417 10.999999940395355,20.999998785555363 
C 8.999999612569809,21.000000648200512 7.000000681728125,21.00000297650695 5.000000819563866,21.000004839152098 
C 5.000000353902578,22.00000500306487 5.000000353902578,23.000004701316357 4.999999888241291,24.00000486522913 
C 0.0,24.00000486522913 -4.999999888241291,24.000003933906555 -9.999999776482582,24.000003933906555 
C -9.999999776482582,22.666670382022858 -9.999999776482582,21.33333683013916 -9.999999776482582,20.000003278255463 
Z"/></g>
</svg>