<?xml version="1.0" standalone="no"?>
<!DOCTYPE svg PUBLIC "-//W3C//DTD SVG 20010904//EN" "http://www.w3.org/TR/2001/REC-SVG-20010904/DTD/svg10.dtd">

<svg width="79.99999821186066mm" height="79.99999821186066mm"  viewBox="0 0 79.99999821186066 79.99999821186066" xmlns="http://www.w3.org/2000/svg">
<title>Bezier Curve : MasterWheelBearingSupport</title>
	<desc>This is an exported Bezier xml_path from Blender, using the ExportScript by maybites.ch</desc>
		<g transform="translate(39.99999910593033 -39.99999910593033)">
			<path style="fill:none;stroke:#000000;stroke-width:1px;stroke-linecap:butt;stroke-linejoin:miter;stroke-opacity:1"
				d="M -39.99999910593033,79.99999821186066
C -39.99999910593033,57.914989069104195 -22.085009142756462,39.99999910593033 0.0,39.99999910593033 
C 22.085009142756462,39.99999910593033 39.99999910593033,57.914989069104195 39.99999910593033,79.99999821186066 
C 39.99999910593033,102.08500735461712 22.085009142756462,119.99999731779099 0.0,119.99999731779099 
C -22.085009142756462,119.99999731779099 -39.99999910593033,102.08500735461712 -39.99999910593033,79.99999821186066 
Z"/></g>

		<g transform="translate(39.99999910593033 -39.99999910593033)">
			<path style="fill:none;stroke:#000000;stroke-width:1px;stroke-linecap:butt;stroke-linejoin:miter;stroke-opacity:1"
				d="M 29.06000055372715,74.99999972060323
C 29.06000055372715,74.48100112378597 29.481003060936928,74.05999675393105 30.000001192092896,74.05999721959233 
C 30.518999323248863,74.05999768525362 30.939999967813492,74.48100158944726 30.939999967813492,74.99999972060323 
C 30.939999967813492,75.51899692043662 30.518997460603714,75.93999803066254 30.000001192092896,75.93999849632382 
C 29.481003060936928,75.93999896198511 29.06000055372715,75.51899738609791 29.06000055372715,74.99999972060323 
Z"/></g>

		<g transform="translate(39.99999910593033 -39.99999910593033)">
			<path style="fill:none;stroke:#000000;stroke-width:1px;stroke-linecap:butt;stroke-linejoin:miter;stroke-opacity:1"
				d="M 5.000000819563866,109.05999690294266
C 5.518999882042408,109.05999690294266 5.940003786236048,109.48099941015244 5.94000332057476,109.99999940395355 
C 5.940002854913473,110.51899753510952 5.518998950719833,110.93999817967415 5.000000819563866,110.93999817967415 
C 4.481003619730473,110.93999817967415 4.060002509504557,110.51899567246437 4.060002043843269,109.99999940395355 
C 4.060001578181982,109.48100127279758 4.481002688407898,109.05999690294266 5.000000819563866,109.05999690294266 
Z"/></g>

		<g transform="translate(39.99999910593033 -39.99999910593033)">
			<path style="fill:none;stroke:#000000;stroke-width:1px;stroke-linecap:butt;stroke-linejoin:miter;stroke-opacity:1"
				d="M -29.06000055372715,85.00000089406967
C -29.06000055372715,85.51899995654821 -29.481003060936928,85.94000432640314 -30.000003054738045,85.94000339508057 
C -30.518999323248863,85.94000246375799 -30.939999967813492,85.51899809390306 -30.939998105168343,85.00000089406967 
C -30.939996242523193,84.48100369423628 -30.518995597958565,84.06000211834908 -29.999999329447746,84.06000211834908 
C -29.481003060936928,84.06000211834908 -29.06000055372715,84.48100369423628 -29.06000055372715,85.00000089406967 
Z"/></g>

		<g transform="translate(39.99999910593033 -39.99999910593033)">
			<path style="fill:none;stroke:#000000;stroke-width:1px;stroke-linecap:butt;stroke-linejoin:miter;stroke-opacity:1"
				d="M -5.000004544854164,50.939999520778656
C -5.5190036073327065,50.939999520778656 -5.9400079771876335,50.51899701356888 -5.940007045865059,49.99999701976776 
C -5.940006114542484,49.48100075125694 -5.519001744687557,49.060000106692314 -5.000004544854164,49.06000196933746 
C -4.481007345020771,49.06000383198261 -4.060005769133568,49.48100447654724 -4.060005769133568,50.00000074505806 
C -4.060005769133568,50.51899701356888 -4.481007345020771,50.939999520778656 -5.000004544854164,50.939999520778656 
Z"/></g>

		<g transform="translate(39.99999910593033 -39.99999910593033)">
			<path style="fill:none;stroke:#000000;stroke-width:1px;stroke-linecap:butt;stroke-linejoin:miter;stroke-opacity:1"
				d="M -20.999981090426445,79.99999821186066
C -20.999981090426445,68.40537767857313 -11.594620533287525,59.00001712143421 0.0,59.00001712143421 
C 11.594620533287525,59.00001712143421 20.999981090426445,68.40537767857313 20.999981090426445,79.99999821186066 
C 20.999981090426445,91.59461874514818 11.594620533287525,100.9999793022871 0.0,100.9999793022871 
C -11.594620533287525,100.9999793022871 -20.999981090426445,91.59461874514818 -20.999981090426445,79.99999821186066 
Z"/></g>
</svg>