<?xml version="1.0" standalone="no"?>
<!DOCTYPE svg PUBLIC "-//W3C//DTD SVG 20010904//EN" "http://www.w3.org/TR/2001/REC-SVG-20010904/DTD/svg10.dtd">

<svg width="295.9999740123749mm" height="295.9999740123749mm"  viewBox="0 0 295.9999740123749 295.9999740123749" xmlns="http://www.w3.org/2000/svg">
<title>Bezier Curve : WheelCage</title>
	<desc>This is an exported Bezier xml_path from Blender, using the ExportScript by maybites.ch</desc>
		<g transform="translate(147.99998700618744 -147.99998700618744)">
			<path style="fill:none;stroke:#000000;stroke-width:1px;stroke-linecap:butt;stroke-linejoin:miter;stroke-opacity:1"
				d="M 10.000000707805157,415.99998623132706
C 10.000000707805157,412.9999950528145 10.000000707805157,384.99997556209564 10.000000707805157,379.9999803304672 
C 10.000000707805157,374.9999776482582 5.000000353902578,369.9999749660492 0.0,369.9999749660492 
C -5.000000353902578,369.9999749660492 -10.000000707805157,374.9999776482582 -10.000000707805157,379.9999803304672 
C -10.000000707805157,384.99997556209564 -9.999999776482582,405.99997341632843 -9.999999776482582,415.99997133016586 
C -9.999999776482582,421.9999760389328 -14.000000432133675,425.9999692440033 -20.000001415610313,425.9999692440033 
C -26.0000042617321,425.9999692440033 -30.000003054738045,421.9999760389328 -30.000003054738045,415.99998623132706 
C -30.000003054738045,405.999980866909 -30.000003054738045,365.9999743103981 -30.000003054738045,355.99997639656067 
C -30.000003054738045,345.99997475743294 -19.999995827674866,335.9999768435955 -10.00000350177288,335.9999768435955 
C -8.000001311302185,335.9999768435955 -1.999999862164259,335.9999768435955 9.313225746154785e-07,335.9999768435955 
C 4.999999888241291,335.9999768435955 10.000001639127731,330.9999741613865 10.000001639127731,325.9999752044678 
C 10.000001639127731,323.9999748766422 10.000001639127731,307.999974116683 10.000001639127731,305.99997378885746 
C 10.000001639127731,300.99997483193874 15.000000596046448,295.9999740123749 20.000001415610313,295.9999740123749 
C 25.00000037252903,295.9999740123749 30.000003054738045,300.99997483193874 30.000003054738045,305.99997378885746 
C 30.000003054738045,321.99997641146183 30.000003054738045,384.99997556209564 30.000003054738045,389.99997824430466 
C 30.000003054738045,399.9999761581421 30.000003054738045,398.99998158216476 30.000003054738045,415.99998623132706 
C 30.000003054738045,421.9999760389328 26.000002399086952,425.9999692440033 20.000001415610313,425.9999692440033 
C 14.000000432133675,425.9999692440033 10.000000707805157,421.9999760389328 10.000000707805157,415.99998623132706 
Z"/></g>

		<g transform="translate(147.99998700618744 -147.99998700618744)">
			<path style="fill:none;stroke:#000000;stroke-width:1px;stroke-linecap:butt;stroke-linejoin:miter;stroke-opacity:1"
				d="M -40.000006556510925,235.99998280405998
C -40.000006556510925,230.99997639656067 -40.000006556510925,185.99997460842133 -40.00002145767212,165.99997878074646 
C -40.00002518296242,160.47877073287964 -36.90159320831299,152.38028764724731 -30.00001609325409,150.99996328353882 
C -20.00003308057785,148.99995923042297 -10.000021196901798,147.99998700618744 -2.9802322387695312e-05,147.99998700618744 
C 9.999978356063366,147.99998700618744 19.999973475933075,148.99997413158417 29.999971389770508,150.9999781847 
C 35.41401028633118,152.08278596401215 39.99997675418854,160.99996864795685 39.99997675418854,165.99997878074646 
C 39.99997675418854,179.80311810970306 39.99999165534973,230.99997639656067 39.99999165534973,235.9999679028988 
C 39.99999165534973,245.99996954202652 49.99998211860657,255.99996373057365 59.9999874830246,255.99996373057365 
C 64.99999761581421,255.99996373057365 109.99999940395355,255.99996373057365 129.99999523162842,255.99993765354156 
C 135.52120327949524,255.99993020296097 143.61968636512756,259.0983659029007 145.00001072883606,265.9999430179596 
C 147.0000147819519,275.99992975592613 147.99998700618744,285.9999379143119 147.99998700618744,295.9999293088913 
C 147.99998700618744,305.99993746727705 146.9999998807907,315.99993258714676 144.99999582767487,325.9999305009842 
C 143.91718804836273,331.41396939754486 135.00000536441803,335.9999358654022 129.99999523162842,335.9999358654022 
C 116.19685590267181,335.9999358654022 64.99999761581421,335.9999656677246 60.00000983476639,335.9999619424343 
C 50.00000819563866,335.9999544918537 39.99999910593033,345.99997103214264 39.99999910593033,355.99997267127037 
C 39.99999910593033,360.9999716281891 39.99999910593033,405.99997341632843 39.99999910593033,425.9999692440033 
C 39.99999910593033,431.5211772918701 38.00000250339508,438.9999806880951 29.999999329447746,440.99996984004974 
C 20.106462761759758,443.47333908081055 9.999998845160007,443.9999610185623 0.0,443.9999610185623 
C -10.000002570450306,443.9999610185623 -20.106416195631027,443.47335398197174 -29.999999329447746,440.99996984004974 
C -38.00000250339508,438.9999806880951 -40.00000283122063,430.9999793767929 -39.99999910593033,425.9999692440033 
C -39.99998793005943,412.1968299150467 -39.99999910593033,360.9999716281891 -39.99999910593033,355.99997267127037 
C -39.99999910593033,345.99997103214264 -49.999989569187164,335.9999768435955 -59.999994933605194,335.9999768435955 
C -64.99999761581421,335.9999768435955 -110.00000685453415,335.9999805688858 -129.99999523162842,335.9999805688858 
C -135.52120327949524,335.9999805688858 -143.61968636512756,332.9015523195267 -144.99999582767487,325.99998265504837 
C -146.99998497962952,315.99998474121094 -147.99998700618744,305.9999803081155 -147.99998700618744,295.9999889135361 
C -147.99998700618744,285.9999807551503 -146.9999998807907,275.9999856352806 -144.99999582767487,265.9999877214432 
C -143.91718804836273,260.5859488248825 -135.00000536441803,255.99998235702515 -129.99999523162842,255.99998235702515 
C -116.19685590267181,255.99998235702515 -64.99999761581421,255.99998235702515 -60.00000238418579,255.99997863173485 
C -50.00000074505806,255.99997118115425 -40.000006556510925,245.999988168478 -40.000006556510925,235.99998280405998 
Z"/></g>

		<g transform="translate(147.99998700618744 -147.99998700618744)">
			<path style="fill:none;stroke:#000000;stroke-width:1px;stroke-linecap:butt;stroke-linejoin:miter;stroke-opacity:1"
				d="M -120.00001221895218,305.9999868273735
C -117.00000613927841,305.9999868273735 -89.00000154972076,305.9999793767929 -84.00000631809235,305.9999793767929 
C -79.00000363588333,305.9999793767929 -74.00000095367432,300.9999771602452 -74.00000095367432,295.9999814629555 
C -74.00000095367432,290.9999773837626 -79.00000363588333,285.99997609853745 -84.00000631809235,285.99998354911804 
C -89.00000154972076,285.99999099969864 -109.99999940395355,285.99997609853745 -119.99999731779099,285.99998354911804 
C -125.0,285.99998727440834 -129.99999523162842,280.9999883174896 -129.99999523162842,275.9999781847 
C -129.99999523162842,270.9999829530716 -125.0,265.9999877214432 -120.00001221895218,265.9999877214432 
C -110.00000685453415,265.9999877214432 -70.00000029802322,265.9999802708626 -60.00000610947609,265.999972820282 
C -50.00000447034836,265.9999653697014 -40.00000283122063,275.9999819099903 -40.00000283122063,285.99997237324715 
C -40.00000283122063,287.999976426363 -40.00000283122063,293.99997740983963 -40.00000283122063,295.9999777376652 
C -40.00000283122063,300.9999766945839 -35.00000014901161,305.9999793767929 -30.000001192092896,305.99997751414776 
C -28.00000086426735,305.9999765828252 -11.99999824166298,305.9999765828252 -9.999997913837433,305.9999765828252 
C -4.999999888241291,305.9999765828252 9.31322685637781e-07,310.9999746084213 1.862645149230957e-06,315.9999754279852 
C 2.7939672797572257e-06,320.9999743849039 -4.999997094273567,325.9999770671129 -9.999996051192284,325.9999770671129 
C -25.999998673796654,325.9999770671129 -89.00000154972076,325.99998265504837 -94.00000423192978,325.99998265504837 
C -104.00000214576721,325.99998265504837 -113.00000548362732,325.99999010562897 -120.00001221895218,325.99999010562897 
C -125.0,325.99999010562897 -129.99999523162842,320.99998742341995 -129.99999523162842,315.99998474121094 
C -129.99999523162842,310.9999820590019 -125.0,305.9999868273735 -120.00001221895218,305.9999868273735 
Z"/></g>

		<g transform="translate(147.99998700618744 -147.99998700618744)">
			<path style="fill:none;stroke:#000000;stroke-width:1px;stroke-linecap:butt;stroke-linejoin:miter;stroke-opacity:1"
				d="M -10.000020265579224,175.9999766945839
C -10.000020265579224,178.99996787309647 -10.000012814998627,206.9999724626541 -10.000012814998627,211.99996769428253 
C -10.000012814998627,216.99997037649155 -5.000011064112186,221.99997305870056 -1.4901161193847656e-05,221.99997305870056 
C 4.99998964369297,221.99997305870056 9.999990463256836,216.99997037649155 9.999983012676239,211.99996769428253 
C 9.999975562095642,206.9999724626541 9.999983012676239,185.99997460842133 9.999975562095642,175.9999766945839 
C 9.999971836805344,170.99997401237488 14.99997079372406,165.99997878074646 19.999980926513672,165.99997878074646 
C 24.99997615814209,165.99997878074646 29.999971389770508,170.99997401237488 29.999971389770508,175.9999617934227 
C 29.999971389770508,185.99996715784073 29.9999862909317,225.99997371435165 29.999997466802597,235.9999641776085 
C 30.000008642673492,245.99996581673622 19.99998837709427,255.99997118115425 9.999997913837433,255.99997118115425 
C 7.999993860721588,255.99997118115425 1.9999928772449493,255.99997118115425 -7.450580596923828e-06,255.99997118115425 
C -5.000006407499313,255.99997118115425 -10.000010021030903,260.99997386336327 -10.00000536441803,265.99997095763683 
C -10.00000350177288,267.99997314810753 -10.00000350177288,283.9999767020345 -10.00000350177288,285.99997702986 
C -10.00000350177288,290.99997505545616 -15.000000596046448,295.99997587502025 -20.000001415610313,295.9999777376652 
C -25.00000037252903,295.9999796003094 -30.000003054738045,290.9999806433916 -30.000003054738045,285.9999779611826 
C -30.000003054738045,269.9999753385782 -30.00001609325409,206.9999724626541 -30.00001609325409,201.9999697804451 
C -30.00001609325409,191.99997931718826 -30.000023543834686,182.99996852874756 -30.000023543834686,175.9999617934227 
C -30.000023543834686,170.99997401237488 -25.00002086162567,165.99996387958527 -20.000025629997253,165.99997878074646 
C -15.000015497207642,165.99999368190765 -10.000020265579224,170.99998146295547 -10.000020265579224,175.9999766945839 
Z"/></g>

		<g transform="translate(147.99998700618744 -147.99998700618744)">
			<path style="fill:none;stroke:#000000;stroke-width:1px;stroke-linecap:butt;stroke-linejoin:miter;stroke-opacity:1"
				d="M 119.99999731779099,285.99994629621506
C 117.00000613927841,285.99994629621506 89.00000154972076,285.99995374679565 84.00000631809235,285.99995374679565 
C 79.00000363588333,285.99995374679565 74.00000095367432,290.9999559633434 74.00000095367432,295.9999516606331 
C 74.00000095367432,300.99995573982596 79.00000363588333,305.9999570250511 84.00000631809235,305.9999495744705 
C 89.00000154972076,305.9999421238899 109.99999940395355,305.9999421238899 119.99999731779099,305.9999346733093 
C 125.0,305.999930948019 129.99999523162842,310.99992990493774 129.99999523162842,315.99994003772736 
C 129.99999523162842,320.9999352693558 125.0,325.9999305009842 120.00001221895218,325.9999305009842 
C 110.00000685453415,325.9999305009842 70.00000029802322,325.999952852726 60.000013560056686,325.9999677538872 
C 50.000011920928955,325.99998265504837 40.00000283122063,315.99995866417885 40.00000283122063,305.999968200922 
C 40.00000283122063,303.99996414780617 40.00000283122063,297.99996316432953 40.00000283122063,295.999962836504 
C 40.00000283122063,290.99996387958527 35.00000014901161,285.9999621286988 30.000001192092896,285.9999667853117 
C 27.9999990016222,285.99996864795685 11.99999637901783,285.9999695792794 9.999996051192284,285.9999695792794 
C 4.999998025596142,285.9999695792794 -2.7939677238464355e-06,280.99997341632843 -5.587935447692871e-06,275.99997259676456 
C -8.381902283360887e-06,270.99997363984585 4.999990109354258,265.99997095763683 9.999996051192284,265.99997095763683 
C 25.999996811151505,265.99997095763683 89.00000154972076,265.9999504685402 94.00000423192978,265.9999504685402 
C 103.99998724460602,265.9999504685402 113.00001293420792,265.9999430179596 119.99999731779099,265.9999430179596 
C 124.9999925494194,265.9999430179596 130.0000101327896,270.999938249588 129.99999523162842,275.99993348121643 
C 129.99998033046722,280.99995106458664 124.9999925494194,285.99994629621506 119.99999731779099,285.99994629621506 
Z"/></g>

		<g transform="translate(147.99998700618744 -147.99998700618744)">
			<path style="fill:none;stroke:#000000;stroke-width:1px;stroke-linecap:butt;stroke-linejoin:miter;stroke-opacity:1"
				d="M -122.99999594688416,329.09998297691345
C -121.66666239500046,329.09998297691345 -120.33332884311676,329.09998297691345 -118.99999529123306,329.09998297691345 
C -118.99999529123306,330.3666487336159 -119.00000274181366,331.6333144903183 -119.00000274181366,332.8999802470207 
C -120.33333629369736,332.899983972311 -121.66666239500046,332.899983972311 -122.99999594688416,332.8999876976013 
C -122.99999594688416,331.6333182156086 -122.99999594688416,330.3666524589062 -122.99999594688416,329.09998297691345 
Z"/></g>

		<g transform="translate(147.99998700618744 -147.99998700618744)">
			<path style="fill:none;stroke:#000000;stroke-width:1px;stroke-linecap:butt;stroke-linejoin:miter;stroke-opacity:1"
				d="M 29.06000055372715,290.99997552111745
C 29.06000055372715,290.4809769243002 29.481003060936928,290.05997255444527 30.000001192092896,290.05997302010655 
C 30.518999323248863,290.05997348576784 30.939999967813492,290.4809773899615 30.939999967813492,290.99997552111745 
C 30.939999967813492,291.51897272095084 30.518997460603714,291.93997383117676 30.000001192092896,291.93997429683805 
C 29.481003060936928,291.93997476249933 29.06000055372715,291.51897318661213 29.06000055372715,290.99997552111745 
Z"/></g>

		<g transform="translate(147.99998700618744 -147.99998700618744)">
			<path style="fill:none;stroke:#000000;stroke-width:1px;stroke-linecap:butt;stroke-linejoin:miter;stroke-opacity:1"
				d="M 5.000000819563866,325.0599727034569
C 5.518999882042408,325.0599727034569 5.940003786236048,325.48097521066666 5.94000332057476,325.9999752044678 
C 5.940002854913473,326.51897333562374 5.518998950719833,326.93997398018837 5.000000819563866,326.93997398018837 
C 4.481003619730473,326.93997398018837 4.060002509504557,326.5189714729786 4.060002043843269,325.9999752044678 
C 4.060001578181982,325.4809770733118 4.481002688407898,325.0599727034569 5.000000819563866,325.0599727034569 
Z"/></g>

		<g transform="translate(147.99998700618744 -147.99998700618744)">
			<path style="fill:none;stroke:#000000;stroke-width:1px;stroke-linecap:butt;stroke-linejoin:miter;stroke-opacity:1"
				d="M -29.06000055372715,300.9999766945839
C -29.06000055372715,301.51897575706244 -29.481003060936928,301.93998012691736 -30.000003054738045,301.9399791955948 
C -30.518999323248863,301.9399782642722 -30.939999967813492,301.5189738944173 -30.939998105168343,300.9999766945839 
C -30.939996242523193,300.4809794947505 -30.518995597958565,300.0599779188633 -29.999999329447746,300.0599779188633 
C -29.481003060936928,300.0599779188633 -29.06000055372715,300.4809794947505 -29.06000055372715,300.9999766945839 
Z"/></g>

		<g transform="translate(147.99998700618744 -147.99998700618744)">
			<path style="fill:none;stroke:#000000;stroke-width:1px;stroke-linecap:butt;stroke-linejoin:miter;stroke-opacity:1"
				d="M -5.000004544854164,266.9399753212929
C -5.5190036073327065,266.9399753212929 -5.9400079771876335,266.5189728140831 -5.940007045865059,265.999972820282 
C -5.940006114542484,265.48097655177116 -5.519001744687557,265.05997590720654 -5.000004544854164,265.0599777698517 
C -4.481007345020771,265.05997963249683 -4.060005769133568,265.48098027706146 -4.060005769133568,265.9999765455723 
C -4.060005769133568,266.5189728140831 -4.481007345020771,266.9399753212929 -5.000004544854164,266.9399753212929 
Z"/></g>

		<g transform="translate(147.99998700618744 -147.99998700618744)">
			<path style="fill:none;stroke:#000000;stroke-width:1px;stroke-linecap:butt;stroke-linejoin:miter;stroke-opacity:1"
				d="M -79.69191670417786,295.9999843617611
C -79.69192415475845,298.4569382388145 -81.68496191501617,300.44997530058026 -84.14191752672195,300.44997157528996 
C -86.59887313842773,300.44996784999967 -88.59190344810486,298.45692473463714 -88.59190344810486,295.99997085213704 
C -88.59190344810486,293.543015839532 -86.59885823726654,291.5499764494598 -84.14190262556076,291.5499801747501 
C -81.68494701385498,291.5499839000404 -79.69190925359726,293.54302957654 -79.69191670417786,295.9999843617611 
Z"/></g>

		<g transform="translate(147.99998700618744 -147.99998700618744)">
			<path style="fill:none;stroke:#000000;stroke-width:1px;stroke-linecap:butt;stroke-linejoin:miter;stroke-opacity:1"
				d="M -133.684903383255,295.9999955361923
C -133.6849182844162,298.45694825053215 -135.67796349525452,300.4499771632254 -138.1349116563797,300.4499711096287 
C -140.59185981750488,300.44996505603194 -142.584890127182,298.4569303225726 -142.584890127182,295.99998202656775 
C -142.584890127182,293.54302189312875 -140.5918449163437,291.54997412115335 -138.1348818540573,291.5499801747501 
C -135.67793369293213,291.5499862283468 -133.6848884820938,293.5430398210883 -133.684903383255,295.9999955361923 
Z"/></g>

		<g transform="translate(147.99998700618744 -147.99998700618744)">
			<path style="fill:none;stroke:#000000;stroke-width:1px;stroke-linecap:butt;stroke-linejoin:miter;stroke-opacity:1"
				d="M 4.449994303286076,211.85807138681412
C 4.449990577995777,214.3150269985199 2.4569390807300806,216.30806475877762 -1.7799997920064925e-05,216.30805730819702 
C -2.456969814375043,216.30804985761642 -4.450001288205385,214.3150120973587 -4.449997097253799,211.85805648565292 
C -4.449992906302214,209.40110832452774 -2.45695561170578,207.40807056427002 -4.290374278070885e-06,207.40807056427002 
C 2.456952817738056,207.40807056427002 4.449998028576374,209.40111577510834 4.449994303286076,211.85807138681412 
Z"/></g>

		<g transform="translate(147.99998700618744 -147.99998700618744)">
			<path style="fill:none;stroke:#000000;stroke-width:1px;stroke-linecap:butt;stroke-linejoin:miter;stroke-opacity:1"
				d="M 88.59190344810486,295.99996227142003
C 88.59190344810486,298.45692147500813 86.59885823726654,300.44997157528996 84.14190262556076,300.44996784999967 
C 81.68494701385498,300.44996412470937 79.69190925359726,298.4569075051695 79.69191670417786,295.99994876179636 
C 79.69192415475845,293.54299884289503 81.68496936559677,291.5499727241695 84.14191752672195,291.5499764494598 
C 86.59886568784714,291.5499801747501 88.59190344810486,293.54301281273365 88.59190344810486,295.99996227142003 
Z"/></g>

		<g transform="translate(147.99998700618744 -147.99998700618744)">
			<path style="fill:none;stroke:#000000;stroke-width:1px;stroke-linecap:butt;stroke-linejoin:miter;stroke-opacity:1"
				d="M 142.584890127182,295.9999361958587
C 142.5848752260208,298.45688911154866 140.5918300151825,300.44991755858064 138.1348818540573,300.4499115049839 
C 135.67793369293213,300.44990545138717 133.684903383255,298.45687095075846 133.684903383255,295.9999226862351 
C 133.684903383255,293.5429625213146 135.67794859409332,291.5499145165086 138.1349116563797,291.5499205701053 
C 140.59185981750488,291.54992662370205 142.5849050283432,293.5429806821048 142.584890127182,295.9999361958587 
Z"/></g>

		<g transform="translate(147.99998700618744 -147.99998700618744)">
			<path style="fill:none;stroke:#000000;stroke-width:1px;stroke-linecap:butt;stroke-linejoin:miter;stroke-opacity:1"
				d="M 4.4499957002699375,380.14189153909683
C 4.449991509318352,382.5988471508026 2.4569465313106775,384.59188491106033 -7.816819191930335e-06,384.59187746047974 
C -2.4569621309638023,384.59187000989914 -4.449999425560236,382.5988322496414 -4.4499957002699375,380.14187663793564 
C -4.449991974979639,377.68492102622986 -2.4569483939558268,375.69189071655273 5.692804894152914e-06,375.69189071655273 
C 2.4569605011492968,375.69189071655273 4.449999891221523,377.68493592739105 4.4499957002699375,380.14189153909683 
Z"/></g>

		<g transform="translate(147.99998700618744 -147.99998700618744)">
			<path style="fill:none;stroke:#000000;stroke-width:1px;stroke-linecap:butt;stroke-linejoin:miter;stroke-opacity:1"
				d="M 4.4499957002699375,434.1348856687546
C 4.4499896466732025,436.59183382987976 2.4569444358348846,438.5848641395569 -7.818290903571778e-06,438.5848641395569 
C -2.4569642264395952,438.5848641395569 -4.4500017538666725,436.59181892871857 -4.4499957002699375,434.1348558664322 
C -4.4499896466732025,431.677907705307 -2.45694606564939,429.6848773956299 5.691333182511471e-06,429.6848773956299 
C 2.456962363794446,429.6848773956299 4.4500017538666725,431.6779226064682 4.4499957002699375,434.1348856687546 
Z"/></g>

		<g transform="translate(147.99998700618744 -147.99998700618744)">
			<path style="fill:none;stroke:#000000;stroke-width:1px;stroke-linecap:butt;stroke-linejoin:miter;stroke-opacity:1"
				d="M -4.741000477224588,425.9999841451645
C -4.741000477224588,425.5908578634262 -4.4091264717280865,425.25897920131683 -4.000000189989805,425.25897920131683 
C -3.5908743739128113,425.25897920131683 -3.2590017654001713,425.5908578634262 -3.2590017654001713,425.9999841451645 
C -3.2590017654001713,426.40911042690277 -3.5908743739128113,426.74098908901215 -4.000000189989805,426.74098908901215 
C -4.4091264717280865,426.74098908901215 -4.741000477224588,426.40911042690277 -4.741000477224588,425.9999841451645 
Z"/></g>

		<g transform="translate(147.99998700618744 -147.99998700618744)">
			<path style="fill:none;stroke:#000000;stroke-width:1px;stroke-linecap:butt;stroke-linejoin:miter;stroke-opacity:1"
				d="M 3.2590017654001713,425.9999841451645
C 3.2590017654001713,425.5908578634262 3.5908743739128113,425.25897920131683 4.000000189989805,425.25897920131683 
C 4.4091264717280865,425.25897920131683 4.741000477224588,425.5908578634262 4.741000477224588,425.9999841451645 
C 4.741000477224588,426.40911042690277 4.4091264717280865,426.74098908901215 4.000000189989805,426.74098908901215 
C 3.5908743739128113,426.74098908901215 3.2590017654001713,426.40911042690277 3.2590017654001713,425.9999841451645 
Z"/></g>

		<g transform="translate(147.99998700618744 -147.99998700618744)">
			<path style="fill:none;stroke:#000000;stroke-width:1px;stroke-linecap:butt;stroke-linejoin:miter;stroke-opacity:1"
				d="M -2.9802322387695312e-05,162.31507062911987
C -2.4569835513830185,162.31505572795868 -4.45001432672143,160.32201051712036 -4.450008273124695,157.86506235599518 
C -4.45000221952796,155.40811419487 -2.456964459270239,153.41508388519287 -1.4901161193847656e-05,153.41508388519287 
C 2.4569430388510227,153.41508388519287 4.449984524399042,155.4081290960312 4.449978470802307,157.86509215831757 
C 4.449972417205572,160.32204031944275 2.456923946738243,162.31508553028107 -2.9802322387695312e-05,162.31507062911987 
Z"/></g>

		<g transform="translate(147.99998700618744 -147.99998700618744)">
			<path style="fill:none;stroke:#000000;stroke-width:1px;stroke-linecap:butt;stroke-linejoin:miter;stroke-opacity:1"
				d="M -130.0000101327896,299.2589920759201
C -129.59088385105133,299.2589920759201 -129.25900518894196,299.590858630836 -129.25900518894196,299.99998211860657 
C -129.25900518894196,300.4091097973287 -129.59088385105133,300.7409870624542 -130.0000101327896,300.7409870624542 
C -130.4091364145279,300.7409870624542 -130.74101507663727,300.4091097973287 -130.74101507663727,299.99998211860657 
C -130.74101507663727,299.590858630836 -130.4091364145279,299.2589920759201 -130.0000101327896,299.2589920759201 
Z"/></g>

		<g transform="translate(147.99998700618744 -147.99998700618744)">
			<path style="fill:none;stroke:#000000;stroke-width:1px;stroke-linecap:butt;stroke-linejoin:miter;stroke-opacity:1"
				d="M -130.0000101327896,291.2589758634567
C -129.59088385105133,291.2589758634567 -129.25900518894196,291.59085312858224 -129.25900518894196,291.9999808073044 
C -129.25900518894196,292.4091084860265 -129.59088385105133,292.74098575115204 -130.0000101327896,292.74098575115204 
C -130.4091364145279,292.74098575115204 -130.74101507663727,292.4091084860265 -130.74101507663727,291.9999808073044 
C -130.74101507663727,291.59085312858224 -130.4091364145279,291.2589758634567 -130.0000101327896,291.2589758634567 
Z"/></g>

		<g transform="translate(147.99998700618744 -147.99998700618744)">
			<path style="fill:none;stroke:#000000;stroke-width:1px;stroke-linecap:butt;stroke-linejoin:miter;stroke-opacity:1"
				d="M 4.740983247756958,165.99996387958527
C 4.740983247756958,166.40909016132355 4.409105982631445,166.74096882343292 3.9999783039093018,166.74096882343292 
C 3.5908506251871586,166.74096882343292 3.2589733600616455,166.40909016132355 3.2589733600616455,165.99996387958527 
C 3.2589733600616455,165.59083759784698 3.5908506251871586,165.2589589357376 3.9999783039093018,165.2589589357376 
C 4.409105982631445,165.2589589357376 4.740983247756958,165.59083759784698 4.740983247756958,165.99996387958527 
Z"/></g>

		<g transform="translate(147.99998700618744 -147.99998700618744)">
			<path style="fill:none;stroke:#000000;stroke-width:1px;stroke-linecap:butt;stroke-linejoin:miter;stroke-opacity:1"
				d="M -3.259032964706421,165.99996387958527
C -3.259032964706421,166.40909016132355 -3.590899519622326,166.74096882343292 -4.000023007392883,166.74096882343292 
C -4.4091506861150265,166.74096882343292 -4.7410279512405396,166.40909016132355 -4.7410279512405396,165.99996387958527 
C -4.7410279512405396,165.59083759784698 -4.4091506861150265,165.2589589357376 -4.000023007392883,165.2589589357376 
C -3.590899519622326,165.2589589357376 -3.259032964706421,165.59083759784698 -3.259032964706421,165.99996387958527 
Z"/></g>

		<g transform="translate(147.99998700618744 -147.99998700618744)">
			<path style="fill:none;stroke:#000000;stroke-width:1px;stroke-linecap:butt;stroke-linejoin:miter;stroke-opacity:1"
				d="M 130.0000101327896,292.74092614650726
C 129.59088385105133,292.74092614650726 129.25900518894196,292.40905959159136 129.25900518894196,291.9999361038208 
C 129.25900518894196,291.59080842509866 129.59088385105133,291.25893115997314 130.0000101327896,291.25893115997314 
C 130.4091364145279,291.25893115997314 130.74101507663727,291.59080842509866 130.74101507663727,291.9999361038208 
C 130.74101507663727,292.40905959159136 130.4091364145279,292.74092614650726 130.0000101327896,292.74092614650726 
Z"/></g>

		<g transform="translate(147.99998700618744 -147.99998700618744)">
			<path style="fill:none;stroke:#000000;stroke-width:1px;stroke-linecap:butt;stroke-linejoin:miter;stroke-opacity:1"
				d="M 130.0000101327896,300.74094235897064
C 129.59088385105133,300.74094235897064 129.25900518894196,300.40906509384513 129.25900518894196,299.999937415123 
C 129.25900518894196,299.59080973640084 129.59088385105133,299.25893247127533 130.0000101327896,299.25893247127533 
C 130.4091364145279,299.25893247127533 130.74101507663727,299.59080973640084 130.74101507663727,299.999937415123 
C 130.74101507663727,300.40906509384513 130.4091364145279,300.74094235897064 130.0000101327896,300.74094235897064 
Z"/></g>

		<g transform="translate(147.99998700618744 -147.99998700618744)">
			<path style="fill:none;stroke:#000000;stroke-width:1px;stroke-linecap:butt;stroke-linejoin:miter;stroke-opacity:1"
				d="M -134.99999046325684,329.09998297691345
C -133.66666436195374,329.09998297691345 -132.33332335948944,329.09998297691345 -130.99999725818634,329.09998297691345 
C -130.99999725818634,330.3666487336159 -130.99999725818634,331.6333144903183 -130.99999725818634,332.8999802470207 
C -132.33332335948944,332.899983972311 -133.66666436195374,332.899983972311 -134.99999046325684,332.8999876976013 
C -134.99999046325684,331.6333182156086 -134.99999046325684,330.3666524589062 -134.99999046325684,329.09998297691345 
Z"/></g>

		<g transform="translate(147.99998700618744 -147.99998700618744)">
			<path style="fill:none;stroke:#000000;stroke-width:1px;stroke-linecap:butt;stroke-linejoin:miter;stroke-opacity:1"
				d="M -126.99997425079346,329.4999748468399
C -126.1717826128006,329.4999748468399 -125.49996376037598,330.1717899739742 -125.49996376037598,330.9999853372574 
C -125.49996376037598,331.82817324995995 -126.1717826128006,332.4999809265137 -126.99997425079346,332.4999809265137 
C -127.82816588878632,332.4999809265137 -128.49998474121094,331.82817324995995 -128.49998474121094,330.9999853372574 
C -128.49998474121094,330.1717899739742 -127.82816588878632,329.4999748468399 -126.99997425079346,329.4999748468399 
Z"/></g>

		<g transform="translate(147.99998700618744 -147.99998700618744)">
			<path style="fill:none;stroke:#000000;stroke-width:1px;stroke-linecap:butt;stroke-linejoin:miter;stroke-opacity:1"
				d="M -126.99995934963226,259.4999819993973
C -126.1717677116394,259.4999819993973 -125.49994885921478,260.171789675951 -125.49994885921478,260.99997758865356 
C -125.49994885921478,261.8281729519367 -126.1717677116394,262.49998807907104 -126.99995934963226,262.49998807907104 
C -127.82815098762512,262.49998807907104 -128.49996984004974,261.8281729519367 -128.49996984004974,260.99997758865356 
C -128.49996984004974,260.171789675951 -127.82815098762512,259.4999819993973 -126.99995934963226,259.4999819993973 
Z"/></g>

		<g transform="translate(147.99998700618744 -147.99998700618744)">
			<path style="fill:none;stroke:#000000;stroke-width:1px;stroke-linecap:butt;stroke-linejoin:miter;stroke-opacity:1"
				d="M -134.99997556209564,259.0999901294708
C -133.66664946079254,259.0999901294708 -132.33330845832825,259.0999901294708 -130.99998235702515,259.0999901294708 
C -130.99998235702515,260.36665216088295 -130.99998235702515,261.6333179175854 -130.99998235702515,262.8999799489975 
C -132.33330845832825,262.8999799489975 -133.66664946079254,262.8999799489975 -134.99997556209564,262.8999799489975 
C -134.99997556209564,261.6333179175854 -134.99997556209564,260.36665216088295 -134.99997556209564,259.0999901294708 
Z"/></g>

		<g transform="translate(147.99998700618744 -147.99998700618744)">
			<path style="fill:none;stroke:#000000;stroke-width:1px;stroke-linecap:butt;stroke-linejoin:miter;stroke-opacity:1"
				d="M -122.99998104572296,259.0999826788902
C -121.66664749383926,259.0999826788902 -120.33331394195557,259.0999826788902 -118.99998039007187,259.0999826788902 
C -118.99998039007187,260.36665216088295 -118.99998039007187,261.6333179175854 -118.99998039007187,262.8999873995781 
C -120.33330649137497,262.8999873995781 -121.66664004325867,262.8999873995781 -122.99996614456177,262.8999873995781 
C -122.99997359514236,261.6333179175854 -122.99997359514236,260.36665216088295 -122.99998104572296,259.0999826788902 
Z"/></g>

		<g transform="translate(147.99998700618744 -147.99998700618744)">
			<path style="fill:none;stroke:#000000;stroke-width:1px;stroke-linecap:butt;stroke-linejoin:miter;stroke-opacity:1"
				d="M 36.89998388290405,172.99999296665192
C 36.89998760819435,174.3333265185356 36.89998760819435,175.6666600704193 36.89999133348465,176.999993622303 
C 35.63332185149193,176.999993622303 34.366656094789505,176.999993622303 33.09998661279678,176.999993622303 
C 33.099982887506485,175.6666675209999 33.099982887506485,174.3333339691162 33.09997916221619,173.0000078678131 
C 34.36664864420891,173.0000004172325 35.63331440091133,173.0000004172325 36.89998388290405,172.99999296665192 
Z"/></g>

		<g transform="translate(147.99998700618744 -147.99998700618744)">
			<path style="fill:none;stroke:#000000;stroke-width:1px;stroke-linecap:butt;stroke-linejoin:miter;stroke-opacity:1"
				d="M 36.89996898174286,160.99999845027924
C 36.89996898174286,162.33332455158234 36.89996898174286,163.66666555404663 36.89996898174286,164.99999165534973 
C 35.633306950330734,164.99999165534973 34.36664119362831,164.99999165534973 33.09997916221619,164.99999165534973 
C 33.09997916221619,163.66666555404663 33.09997916221619,162.33332455158234 33.09997916221619,160.99999845027924 
C 34.36664119362831,160.99999845027924 35.633306950330734,160.99999845027924 36.89996898174286,160.99999845027924 
Z"/></g>

		<g transform="translate(147.99998700618744 -147.99998700618744)">
			<path style="fill:none;stroke:#000000;stroke-width:1px;stroke-linecap:butt;stroke-linejoin:miter;stroke-opacity:1"
				d="M 36.499977111816406,169.00001466274261
C 36.499977111816406,169.82820630073547 35.82816943526268,170.5000251531601 34.99998152256012,170.5000251531601 
C 34.17178615927696,170.5000251531601 33.49997103214264,169.82820630073547 33.49997103214264,169.00001466274261 
C 33.49997103214264,168.17182302474976 34.17178615927696,167.50000417232513 34.99998152256012,167.50000417232513 
C 35.82816943526268,167.50000417232513 36.499977111816406,168.17182302474976 36.499977111816406,169.00001466274261 
Z"/></g>

		<g transform="translate(147.99998700618744 -147.99998700618744)">
			<path style="fill:none;stroke:#000000;stroke-width:1px;stroke-linecap:butt;stroke-linejoin:miter;stroke-opacity:1"
				d="M -33.50001573562622,168.99999976158142
C -33.50001573562622,169.82819139957428 -34.171830862760544,170.5000102519989 -35.0000262260437,170.5000102519989 
C -35.82821413874626,170.5000102519989 -36.50002181529999,169.82819139957428 -36.50002181529999,168.99999976158142 
C -36.50002181529999,168.17180812358856 -35.82821413874626,167.49998927116394 -35.0000262260437,167.49998927116394 
C -34.171830862760544,167.49998927116394 -33.50001573562622,168.17180812358856 -33.50001573562622,168.99999976158142 
Z"/></g>

		<g transform="translate(147.99998700618744 -147.99998700618744)">
			<path style="fill:none;stroke:#000000;stroke-width:1px;stroke-linecap:butt;stroke-linejoin:miter;stroke-opacity:1"
				d="M -33.10002386569977,160.99998354911804
C -33.10002386569977,162.33330965042114 -33.10002386569977,163.66665065288544 -33.10002386569977,164.99997675418854 
C -34.36668589711189,164.99997675418854 -35.633351653814316,164.99999165534973 -36.90001368522644,164.99999165534973 
C -36.90001741051674,163.66665065288544 -36.900024861097336,162.33332455158234 -36.900028586387634,160.99998354911804 
C -35.63335910439491,160.99998354911804 -34.36669334769249,160.99998354911804 -33.10002386569977,160.99998354911804 
Z"/></g>

		<g transform="translate(147.99998700618744 -147.99998700618744)">
			<path style="fill:none;stroke:#000000;stroke-width:1px;stroke-linecap:butt;stroke-linejoin:miter;stroke-opacity:1"
				d="M -33.10001641511917,172.99997806549072
C -33.10001641511917,174.33331161737442 -33.10001641511917,175.66665261983871 -33.10001641511917,176.9999861717224 
C -34.366682171821594,176.9999861717224 -35.63334792852402,176.99997872114182 -36.90001368522644,176.99997872114182 
C -36.90001741051674,175.66664516925812 -36.90001741051674,174.33331161737442 -36.90002113580704,172.99997806549072 
C -35.633351653814316,172.99997806549072 -34.36668589711189,172.99997806549072 -33.10001641511917,172.99997806549072 
Z"/></g>

		<g transform="translate(147.99998700618744 -147.99998700618744)">
			<path style="fill:none;stroke:#000000;stroke-width:1px;stroke-linecap:butt;stroke-linejoin:miter;stroke-opacity:1"
				d="M 122.99998849630356,262.8999501466751
C 121.66665494441986,262.8999501466751 120.33331394195557,262.8999501466751 118.99998039007187,262.8999501466751 
C 118.99998039007187,261.6332843899727 118.99998784065247,260.36661863327026 118.99998784065247,259.09995287656784 
C 120.33332139253616,259.09994915127754 121.66665494441986,259.09994915127754 122.99998849630356,259.09994542598724 
C 122.99998849630356,260.36661490797997 122.99998849630356,261.6332806646824 122.99998849630356,262.8999501466751 
Z"/></g>

		<g transform="translate(147.99998700618744 -147.99998700618744)">
			<path style="fill:none;stroke:#000000;stroke-width:1px;stroke-linecap:butt;stroke-linejoin:miter;stroke-opacity:1"
				d="M 134.99999046325684,262.8999352455139
C 133.66666436195374,262.8999352455139 132.33332335948944,262.8999352455139 130.99999725818634,262.8999352455139 
C 130.99999725818634,261.6332732141018 130.99998235702515,260.36660745739937 130.99998235702515,259.09994542598724 
C 132.33332335948944,259.09994170069695 133.66664946079254,259.09993425011635 134.99999046325684,259.09993052482605 
C 134.99999046325684,260.36660000681877 134.99999046325684,261.6332657635212 134.99999046325684,262.8999352455139 
Z"/></g>

		<g transform="translate(147.99998700618744 -147.99998700618744)">
			<path style="fill:none;stroke:#000000;stroke-width:1px;stroke-linecap:butt;stroke-linejoin:miter;stroke-opacity:1"
				d="M 126.99997425079346,262.49994337558746
C 126.1717826128006,262.49994337558746 125.49996376037598,261.82812824845314 125.49996376037598,260.99993288517 
C 125.49996376037598,260.1717449724674 126.1717826128006,259.4999372959137 126.99997425079346,259.4999372959137 
C 127.82816588878632,259.4999372959137 128.49998474121094,260.1717449724674 128.49998474121094,260.99993288517 
C 128.49998474121094,261.82812824845314 127.82816588878632,262.49994337558746 126.99997425079346,262.49994337558746 
Z"/></g>

		<g transform="translate(147.99998700618744 -147.99998700618744)">
			<path style="fill:none;stroke:#000000;stroke-width:1px;stroke-linecap:butt;stroke-linejoin:miter;stroke-opacity:1"
				d="M 126.99995934963226,332.4999362230301
C 126.1717677116394,332.4999362230301 125.49994885921478,331.82812854647636 125.49994885921478,330.9999406337738 
C 125.49994885921478,330.17174527049065 126.1717677116394,329.4999301433563 126.99995934963226,329.4999301433563 
C 127.82815098762512,329.4999301433563 128.49996984004974,330.17174527049065 128.49996984004974,330.9999406337738 
C 128.49996984004974,331.82812854647636 127.82815098762512,332.4999362230301 126.99995934963226,332.4999362230301 
Z"/></g>

		<g transform="translate(147.99998700618744 -147.99998700618744)">
			<path style="fill:none;stroke:#000000;stroke-width:1px;stroke-linecap:butt;stroke-linejoin:miter;stroke-opacity:1"
				d="M 134.99997556209564,332.89992809295654
C 133.66664946079254,332.89992809295654 132.33330845832825,332.89992809295654 130.99998235702515,332.89992809295654 
C 130.99998235702515,331.6332660615444 130.99998235702515,330.366600304842 130.99998235702515,329.09993827342987 
C 132.33330845832825,329.09993827342987 133.66664946079254,329.09993827342987 134.99997556209564,329.09993827342987 
C 134.99997556209564,330.366600304842 134.99997556209564,331.6332660615444 134.99997556209564,332.89992809295654 
Z"/></g>

		<g transform="translate(147.99998700618744 -147.99998700618744)">
			<path style="fill:none;stroke:#000000;stroke-width:1px;stroke-linecap:butt;stroke-linejoin:miter;stroke-opacity:1"
				d="M 122.99998104572296,332.89994299411774
C 121.66664749383926,332.89995044469833 120.33331394195557,332.89995789527893 118.99998039007187,332.8999653458595 
C 118.99998039007187,331.6332958638668 118.99998039007187,330.3666301071644 118.99998039007187,329.09996062517166 
C 120.33330649137497,329.09995689988136 121.66664004325867,329.09995689988136 122.99996614456177,329.09995317459106 
C 122.99997359514236,330.3666152060032 122.99997359514236,331.6332809627056 122.99998104572296,332.89994299411774 
Z"/></g>

		<g transform="translate(147.99998700618744 -147.99998700618744)">
			<path style="fill:none;stroke:#000000;stroke-width:1px;stroke-linecap:butt;stroke-linejoin:miter;stroke-opacity:1"
				d="M -36.89996898174286,418.99995505809784
C -36.899976432323456,417.66662150621414 -36.89998388290405,416.33328795433044 -36.89999133348465,414.99995440244675 
C -35.63332185149193,414.99995440244675 -34.366656094789505,414.99995440244675 -33.09998661279678,414.99995440244675 
C -33.099982887506485,416.33328050374985 -33.099982887506485,417.66661405563354 -33.09997916221619,418.99994015693665 
C -34.36664119362831,418.99994760751724 -35.633306950330734,418.99994760751724 -36.89996898174286,418.99995505809784 
Z"/></g>

		<g transform="translate(147.99998700618744 -147.99998700618744)">
			<path style="fill:none;stroke:#000000;stroke-width:1px;stroke-linecap:butt;stroke-linejoin:miter;stroke-opacity:1"
				d="M -36.89993917942047,430.9999495744705
C -36.89993917942047,429.6666234731674 -36.89993917942047,428.3332824707031 -36.89993917942047,426.9999563694 
C -35.63327714800835,426.9999563694 -34.36661139130592,426.9999563694 -33.0999493598938,426.9999563694 
C -33.0999493598938,428.3332824707031 -33.0999493598938,429.6666234731674 -33.0999493598938,430.9999495744705 
C -34.36661139130592,430.9999495744705 -35.63327714800835,430.9999495744705 -36.89993917942047,430.9999495744705 
Z"/></g>

		<g transform="translate(147.99998700618744 -147.99998700618744)">
			<path style="fill:none;stroke:#000000;stroke-width:1px;stroke-linecap:butt;stroke-linejoin:miter;stroke-opacity:1"
				d="M -36.49994730949402,422.99993336200714
C -36.49994730949402,422.1717417240143 -35.82813963294029,421.49992287158966 -34.99995172023773,421.49992287158966 
C -34.171756356954575,421.49992287158966 -33.49994122982025,422.1717417240143 -33.49994122982025,422.99993336200714 
C -33.49994122982025,423.828125 -34.171756356954575,424.4999438524246 -34.99995172023773,424.4999438524246 
C -35.82813963294029,424.4999438524246 -36.49994730949402,423.828125 -36.49994730949402,422.99993336200714 
Z"/></g>

		<g transform="translate(147.99998700618744 -147.99998700618744)">
			<path style="fill:none;stroke:#000000;stroke-width:1px;stroke-linecap:butt;stroke-linejoin:miter;stroke-opacity:1"
				d="M 33.50004553794861,422.99994826316833
C 33.50004553794861,422.1717566251755 34.17186066508293,421.49993777275085 35.00005602836609,421.49993777275085 
C 35.82824394106865,421.49993777275085 36.500051617622375,422.1717566251755 36.500051617622375,422.99994826316833 
C 36.500051617622375,423.8281399011612 35.82824394106865,424.4999587535858 35.00005602836609,424.4999587535858 
C 34.17186066508293,424.4999587535858 33.50004553794861,423.8281399011612 33.50004553794861,422.99994826316833 
Z"/></g>

		<g transform="translate(147.99998700618744 -147.99998700618744)">
			<path style="fill:none;stroke:#000000;stroke-width:1px;stroke-linecap:butt;stroke-linejoin:miter;stroke-opacity:1"
				d="M 33.100053668022156,430.9999644756317
C 33.100053668022156,429.6666383743286 33.100053668022156,428.3332973718643 33.100053668022156,426.9999712705612 
C 34.36671569943428,426.9999712705612 35.6333814561367,426.9999563694 36.90004348754883,426.9999563694 
C 36.90004721283913,428.3332973718643 36.90005466341972,429.6666234731674 36.90005838871002,430.9999644756317 
C 35.6333889067173,430.9999644756317 34.36672315001488,430.9999644756317 33.100053668022156,430.9999644756317 
Z"/></g>

		<g transform="translate(147.99998700618744 -147.99998700618744)">
			<path style="fill:none;stroke:#000000;stroke-width:1px;stroke-linecap:butt;stroke-linejoin:miter;stroke-opacity:1"
				d="M 33.100031316280365,418.99995505809784
C 33.100031316280365,417.66662150621414 33.100031316280365,416.33328050374985 33.100031316280365,414.99994695186615 
C 34.36669707298279,414.99994695186615 35.63336282968521,414.99995440244675 36.900028586387634,414.99995440244675 
C 36.90003231167793,416.33328795433044 36.90003231167793,417.66662150621414 36.90003603696823,418.99995505809784 
C 35.63336655497551,418.99995505809784 34.36670079827309,418.99995505809784 33.100031316280365,418.99995505809784 
Z"/></g>

		<g transform="translate(147.99998700618744 -147.99998700618744)">
			<path style="fill:none;stroke:#000000;stroke-width:1px;stroke-linecap:butt;stroke-linejoin:miter;stroke-opacity:1"
				d="M 43.48498955368996,329.82801645994186
C 44.42780092358589,328.88520509004593 45.37060856819153,327.94239372015 46.31341993808746,326.9995842128992 
C 47.20908775925636,327.89525389671326 48.104751855134964,328.79092544317245 49.00041967630386,329.68659326434135 
C 48.05761203169823,330.6294046342373 47.11480438709259,331.5722160041332 46.171996742486954,332.51502737402916 
C 45.276328921318054,331.61935582756996 44.380657374858856,330.72368800640106 43.48498955368996,329.82801645994186 
Z"/></g>

		<g transform="translate(147.99998700618744 -147.99998700618744)">
			<path style="fill:none;stroke:#000000;stroke-width:1px;stroke-linecap:butt;stroke-linejoin:miter;stroke-opacity:1"
				d="M 34.99971702694893,338.3133225142956
C 35.942524671554565,337.37051486968994 36.8853323161602,336.4277072250843 37.82813996076584,335.48489958047867 
C 38.72380778193474,336.38056367635727 39.619479328393936,337.2762240469456 40.515147149562836,338.1718881428242 
C 39.5723395049572,339.1147032380104 38.62953558564186,340.05751460790634 37.686727941036224,341.0003297030926 
C 36.791056394577026,340.1046618819237 35.89538857340813,339.2089903354645 34.99971702694893,338.3133225142956 
Z"/></g>

		<g transform="translate(147.99998700618744 -147.99998700618744)">
			<path style="fill:none;stroke:#000000;stroke-width:1px;stroke-linecap:butt;stroke-linejoin:miter;stroke-opacity:1"
				d="M 40.93942046165466,332.9392932355404
C 41.525039821863174,332.3536738753319 42.4751341342926,332.3536701500416 43.060753494501114,332.9392932355404 
C 43.64636912941933,333.5249125957489 43.64636167883873,334.47499945759773 43.06074231863022,335.06061881780624 
C 42.47512295842171,335.64623817801476 41.525039821863174,335.64624562859535 40.93942046165466,335.06062999367714 
C 40.35379737615585,334.4750106334686 40.35379737615585,333.5249163210392 40.93942046165466,332.9392932355404 
Z"/></g>

		<g transform="translate(147.99998700618744 -147.99998700618744)">
			<path style="fill:none;stroke:#000000;stroke-width:1px;stroke-linecap:butt;stroke-linejoin:miter;stroke-opacity:1"
				d="M -36.939315497875214,336.93939819931984
C -36.3536961376667,337.52502128481865 -36.3536961376667,338.4751118719578 -36.93931922316551,339.0607312321663 
C -37.52493858337402,339.6463468670845 -38.475025445222855,339.6463394165039 -39.060644805431366,339.0607200562954 
C -39.64626044034958,338.4751006960869 -39.646267890930176,337.52501755952835 -39.06065225601196,336.93939819931984 
C -38.47503289580345,336.35377511382103 -37.52493858337402,336.35377511382103 -36.939315497875214,336.93939819931984 
Z"/></g>

		<g transform="translate(147.99998700618744 -147.99998700618744)">
			<path style="fill:none;stroke:#000000;stroke-width:1px;stroke-linecap:butt;stroke-linejoin:miter;stroke-opacity:1"
				d="M -42.3133485019207,330.9996947646141
C -41.37054085731506,331.94250240921974 -40.42773321270943,332.8853100538254 -39.48492556810379,333.828117698431 
C -40.38058593869209,334.7237855195999 -41.276250034570694,335.6194570660591 -42.171910405159,336.515124887228 
C -43.11472550034523,335.5723172426224 -44.057536870241165,334.62951332330704 -45.0003519654274,333.6867056787014 
C -44.1046841442585,332.7910341322422 -43.2090163230896,331.8953663110733 -42.3133485019207,330.9996947646141 
Z"/></g>

		<g transform="translate(147.99998700618744 -147.99998700618744)">
			<path style="fill:none;stroke:#000000;stroke-width:1px;stroke-linecap:butt;stroke-linejoin:miter;stroke-opacity:1"
				d="M -33.82803872227669,339.48496729135513
C -32.88522735238075,340.42777866125107 -31.942419707775116,341.3705863058567 -30.99960833787918,342.31339767575264 
C -31.89527615904808,343.20906549692154 -32.79094770550728,344.10472959280014 -33.68661552667618,345.00039741396904 
C -34.62942689657211,344.0575897693634 -35.57224199175835,343.11478212475777 -36.51505336165428,342.17197448015213 
C -35.619381815195084,341.27630665898323 -34.723710268735886,340.38063511252403 -33.82803872227669,339.48496729135513 
Z"/></g>

		<g transform="translate(147.99998700618744 -147.99998700618744)">
			<path style="fill:none;stroke:#000000;stroke-width:1px;stroke-linecap:butt;stroke-linejoin:miter;stroke-opacity:1"
				d="M -43.484997004270554,262.1719390153885
C -44.42780837416649,263.1147503852844 -45.370616018772125,264.05755802989006 -46.31342738866806,265.000369399786 
C -47.20909520983696,264.1047015786171 -48.10475930571556,263.2090300321579 -49.00042712688446,262.313362210989 
C -48.057619482278824,261.37055084109306 -47.11481183767319,260.42773574590683 -46.17200419306755,259.4849243760109 
C -45.27633637189865,260.3805959224701 -44.38066482543945,261.2762674689293 -43.484997004270554,262.1719390153885 
Z"/></g>

		<g transform="translate(147.99998700618744 -147.99998700618744)">
			<path style="fill:none;stroke:#000000;stroke-width:1px;stroke-linecap:butt;stroke-linejoin:miter;stroke-opacity:1"
				d="M -34.999724477529526,253.68662923574448
C -35.94253212213516,254.6294368803501 -36.8853397667408,255.57224452495575 -37.828147411346436,256.5150521695614 
C -38.723815232515335,255.61939179897308 -39.61948677897453,254.72372770309448 -40.51515460014343,253.82806733250618 
C -39.572346955537796,252.88525223731995 -38.62954303622246,251.942440867424 -37.68673539161682,250.99962577223778 
C -36.79106384515762,251.89529359340668 -35.895396023988724,252.79096141457558 -34.999724477529526,253.68662923574448 
Z"/></g>

		<g transform="translate(147.99998700618744 -147.99998700618744)">
			<path style="fill:none;stroke:#000000;stroke-width:1px;stroke-linecap:butt;stroke-linejoin:miter;stroke-opacity:1"
				d="M -40.93942791223526,259.06066223978996
C -41.52505099773407,259.6462815999985 -42.4751415848732,259.6462815999985 -43.06076094508171,259.06065851449966 
C -43.646376579999924,258.47503915429115 -43.64636912941933,257.5249522924423 -43.060749769210815,256.9393329322338 
C -42.475130409002304,256.3537172973156 -41.52504727244377,256.353709846735 -40.93942791223526,256.9393254816532 
C -40.35380482673645,257.5249448418617 -40.35380482673645,258.47503915429115 -40.93942791223526,259.06066223978996 
Z"/></g>

		<g transform="translate(147.99998700618744 -147.99998700618744)">
			<path style="fill:none;stroke:#000000;stroke-width:1px;stroke-linecap:butt;stroke-linejoin:miter;stroke-opacity:1"
				d="M 36.93930804729462,255.06054237484932
C 36.353688687086105,254.4749192893505 36.353688687086105,253.52482870221138 36.939311772584915,252.93920934200287 
C 37.52493113279343,252.35359370708466 38.47501799464226,252.35360115766525 39.06063735485077,252.93922051787376 
C 39.64625298976898,253.52483987808228 39.64626044034958,254.4749230146408 39.060644805431366,255.06054237484932 
C 38.475025445222855,255.64616546034813 37.52493113279343,255.64616546034813 36.93930804729462,255.06054237484932 
Z"/></g>

		<g transform="translate(147.99998700618744 -147.99998700618744)">
			<path style="fill:none;stroke:#000000;stroke-width:1px;stroke-linecap:butt;stroke-linejoin:miter;stroke-opacity:1"
				d="M 42.3133410513401,261.00024580955505
C 41.37053340673447,260.0574381649494 40.42772576212883,259.1146305203438 39.48491811752319,258.17182287573814 
C 40.380578488111496,257.27615505456924 41.2762425839901,256.38048350811005 42.1719029545784,255.48481568694115 
C 43.11471804976463,256.4276233315468 44.05752941966057,257.3704272508621 45.0003445148468,258.31323489546776 
C 44.1046766936779,259.20890644192696 43.209008872509,260.10457426309586 42.3133410513401,261.00024580955505 
Z"/></g>

		<g transform="translate(147.99998700618744 -147.99998700618744)">
			<path style="fill:none;stroke:#000000;stroke-width:1px;stroke-linecap:butt;stroke-linejoin:miter;stroke-opacity:1"
				d="M 33.82803127169609,252.51497328281403
C 32.885219901800156,251.5721619129181 31.94241225719452,250.62935426831245 30.999600887298584,249.68654289841652 
C 31.895268708467484,248.79087507724762 32.79094025492668,247.89521098136902 33.68660807609558,246.99954316020012 
C 34.629419445991516,247.94235080480576 35.57223454117775,248.8851584494114 36.515045911073685,249.82796609401703 
C 35.61937436461449,250.72363391518593 34.72370281815529,251.61930546164513 33.82803127169609,252.51497328281403 
Z"/></g>
</svg>