<?xml version="1.0" standalone="no"?>
<!DOCTYPE svg PUBLIC "-//W3C//DTD SVG 20010904//EN" "http://www.w3.org/TR/2001/REC-SVG-20010904/DTD/svg10.dtd">

<svg width="27.34031993895769mm" height="27.340320870280266mm"  viewBox="0 0 27.34031993895769 27.340320870280266" xmlns="http://www.w3.org/2000/svg">
<title>Bezier Curve : Gear_ Spur_Head</title>
	<desc>This is an exported Bezier xml_path from Blender, using the ExportScript by maybites.ch</desc>
		<g transform="translate(13.670237734912929 27.152862399816513)">
			<path style="fill:none;stroke:#000000;stroke-width:1px;stroke-linecap:butt;stroke-linejoin:miter;stroke-opacity:1"
				d="M -0.707106722984463,30.703413300216198
C -0.23570211487822235,30.70341353304684 0.23570246412418783,30.70341399870813 0.7071070722304285,30.703414231538773 
C 0.7071070140227675,32.17481868341565 0.7071070140227675,33.64622313529253 0.7071069558151066,35.11762758716941 
C 0.235702347708866,35.11762758716941 -0.23570223129354417,35.11762712150812 -0.7071068393997848,35.11762712150812 
C -0.7071067811921239,33.646222203969955 -0.7071067811921239,32.174818217754364 -0.707106722984463,30.703413300216198 
Z"/></g>

		<g transform="translate(13.670237734912929 27.152862399816513)">
			<path style="fill:none;stroke:#000000;stroke-width:1px;stroke-linecap:butt;stroke-linejoin:miter;stroke-opacity:1"
				d="M 4.2358823120594025,14.040559530258179
C 4.23036003485322,14.024206437170506 4.224838223308325,14.007853344082832 4.219315946102142,13.99150025099516 
C 4.139217082411051,13.967173174023628 4.059118218719959,13.942847028374672 3.9790193550288677,13.918519951403141 
C 3.8985779974609613,13.895343989133835 3.8181364070624113,13.872168026864529 3.737695049494505,13.848992064595222 
C 3.6937829572707415,13.836950063705444 3.6498706322163343,13.824908062815666 3.605958539992571,13.812866061925888 
C 3.524835454300046,13.792233541607857 3.4437126014381647,13.77160008996725 3.36258951574564,13.75096756964922 
C 3.2811558339744806,13.731494545936584 3.1997221522033215,13.71202152222395 3.1182884704321623,13.692548498511314 
C 3.085602540522814,13.685101643204689 3.052916843444109,13.677653856575489 3.0202309135347605,13.670207001268864 
C 2.9590651392936707,13.725388795137405 2.897899365052581,13.780571520328522 2.836733590811491,13.835753314197063 
C 2.7816237416118383,13.888554647564888 2.726513659581542,13.941355049610138 2.6714038103818893,13.994156382977962 
C 2.607963280752301,14.059116132557392 2.5445225182920694,14.124075882136822 2.4810819886624813,14.189035631716251 
C 2.4234557058662176,14.252515509724617 2.3658291902393103,14.315996319055557 2.3082029074430466,14.379476197063923 
C 2.256202045828104,14.441151171922684 2.2042011842131615,14.502826146781445 2.152200322598219,14.564501121640205 
C 2.1056365221738815,14.624044299125671 2.059072721749544,14.683587476611137 2.0125089213252068,14.743130654096603 
C 1.9634868949651718,14.81133233755827 1.9144649850204587,14.87953495234251 1.8654430750757456,14.947736635804176 
C 1.8234343733638525,15.011916868388653 1.7814256716519594,15.076096169650555 1.7394169699400663,15.140276402235031 
C 1.6987548442557454,15.209476463496685 1.6580927185714245,15.278675593435764 1.6174305928871036,15.347875654697418 
C 1.5809000469744205,15.418526716530323 1.5443695010617375,15.489178709685802 1.5078389551490545,15.559829771518707 
C 1.475385739468038,15.634196810424328 1.4429324073716998,15.708562918007374 1.4104791916906834,15.782929956912994 
C 1.3850118266418576,15.858271159231663 1.3595444615930319,15.933612361550331 1.3340770965442061,16.008953563869 
C 1.3275227975100279,16.09239913523197 1.3209684984758496,16.17584563791752 1.3144141994416714,16.25929120928049 
C 1.3078599004074931,16.342737711966038 1.301305484957993,16.42618328332901 1.2947511859238148,16.509629786014557 
C 1.2881560251116753,16.59309957176447 1.2815609807148576,16.676568426191807 1.274965819902718,16.76003821194172 
C 1.2684115208685398,16.84348378330469 1.2618573382496834,16.926929354667664 1.2553030392155051,17.010374926030636 
C 1.2340388493612409,17.08818878978491 1.2127746595069766,17.166003584861755 1.1915104696527123,17.243817448616028 
C 1.1598172131925821,17.312901094555855 1.1281240731477737,17.381983809173107 1.0964308166876435,17.451067455112934 
C 1.0528180282562971,17.51350611448288 1.0092053562402725,17.575944773852825 0.9655925678089261,17.63838343322277 
C 0.9052206878550351,17.688671126961708 0.8448488661088049,17.73895788937807 0.7844769861549139,17.789245583117008 
C 0.7364334305748343,17.80794747173786 0.6883898749947548,17.826649360358715 0.6403463194146752,17.84535124897957 
C 0.5566489999182522,17.84604601562023 0.47295173862949014,17.84673985093832 0.38925441913306713,17.847434617578983 
C 0.30556577257812023,17.848096787929535 0.22187712602317333,17.848758958280087 0.13818847946822643,17.849421128630638 
C 0.05445900751510635,17.850106582045555 -0.029270457162056118,17.850792035460472 -0.1129999291151762,17.85147748887539 
C -0.19669711764436215,17.852171324193478 -0.28039427706971765,17.85286609083414 -0.3640914801508188,17.85355992615223 
C -0.44776772847399116,17.851085402071476 -0.5314439185895026,17.848610877990723 -0.6151201669126749,17.84613635390997 
C -0.6235732580535114,17.84587185829878 -0.632026290986687,17.845608294010162 -0.6404793821275234,17.84534379839897 
C -0.7109392900019884,17.811832949519157 -0.7813991978764534,17.778322100639343 -0.8518591057509184,17.74481125175953 
C -0.9064950863830745,17.68869161605835 -0.9611310088075697,17.63257198035717 -1.0157669894397259,17.57645234465599 
C -1.056356937624514,17.508222721517086 -1.0969467693939805,17.43999309837818 -1.1375367175787687,17.371763475239277 
C -1.1666053906083107,17.296855337917805 -1.1956740636378527,17.221946269273758 -1.2247427366673946,17.147038131952286 
C -1.231408561579883,17.063604667782784 -1.2380742700770497,16.98017120361328 -1.2447400949895382,16.89673773944378 
C -1.2514060363173485,16.813303343951702 -1.2580719776451588,16.7298698797822 -1.264737918972969,16.646435484290123 
C -1.2714037438854575,16.563001088798046 -1.2780694523826241,16.479567624628544 -1.2847352772951126,16.396133229136467 
C -1.291529624722898,16.310732811689377 -1.2983240885660052,16.225332394242287 -1.3051184359937906,16.139931976795197 
C -1.3238248648121953,16.0666611045599 -1.3425314100459218,15.9933902323246 -1.3612378388643265,15.920119360089302 
C -1.3881981140002608,15.848674811422825 -1.415158505551517,15.777230262756348 -1.4421187806874514,15.70578571408987 
C -1.474427292123437,15.636013820767403 -1.5067358035594225,15.566241927444935 -1.539044314995408,15.496470034122467 
C -1.5752421459183097,15.429106540977955 -1.6114398604258895,15.361742116510868 -1.6476376913487911,15.294378623366356 
C -1.6866858350113034,15.229668468236923 -1.725733862258494,15.164957381784916 -1.7647820059210062,15.100247226655483 
C -1.8077727872878313,15.035825781524181 -1.8507635686546564,14.971405267715454 -1.8937543500214815,14.906983822584152 
C -1.9394673872739077,14.844352379441261 -1.9851804245263338,14.781720004975796 -2.03089346177876,14.719088561832905 
C -2.078046789392829,14.65938426554203 -2.125200117006898,14.599679037928581 -2.172353444620967,14.539974741637707 
C -2.2223356645554304,14.481169171631336 -2.2723176516592503,14.422362670302391 -2.3222998715937138,14.36355710029602 
C -2.3744972422719,14.306193217635155 -2.4266948457807302,14.248829334974289 -2.4788922164589167,14.191465452313423 
C -2.532706828787923,14.136014506220818 -2.5865212082862854,14.080563560128212 -2.6403358206152916,14.025112614035606 
C -2.6952160988003016,13.971964828670025 -2.750096144154668,13.918817974627018 -2.804976422339678,13.865670189261436 
C -2.8638322837650776,13.811904937028885 -2.9226879123598337,13.758140616118908 -2.9815437737852335,13.704375363886356 
C -2.994498936459422,13.692966662347317 -3.0074540991336107,13.681558892130852 -3.0204092618077993,13.670150190591812 
C -3.101940732449293,13.689162209630013 -3.1834719702601433,13.708175159990788 -3.265003440901637,13.727187179028988 
C -3.3462224528193474,13.747352175414562 -3.4274416975677013,13.767518103122711 -3.5086607094854116,13.787683099508286 
C -3.586964914575219,13.80856055766344 -3.665268886834383,13.82943894714117 -3.7435730919241905,13.850316405296326 
C -3.823971375823021,13.873600400984287 -3.9043696597218513,13.896885327994823 -3.9847679436206818,13.920169323682785 
C -4.063015338033438,13.943926431238651 -4.141262266784906,13.967683538794518 -4.219509661197662,13.991440646350384 
C -4.244867246598005,14.069848693907261 -4.2702252976596355,14.148255810141563 -4.2955828830599785,14.22666385769844 
C -4.316899459809065,14.299907721579075 -4.338215570896864,14.37315158545971 -4.35953214764595,14.446395449340343 
C -4.382043145596981,14.534399844706059 -4.404554609209299,14.622405171394348 -4.42706560716033,14.710409566760063 
C -4.445204045623541,14.794202521443367 -4.463342484086752,14.87799547612667 -4.481480922549963,14.961788430809975 
C -4.495680797845125,15.041184611618519 -4.509880673140287,15.120579861104488 -4.52408054843545,15.199976041913033 
C -4.534613806754351,15.2748329564929 -4.545147530734539,15.34968987107277 -4.55568078905344,15.424546785652637 
C -4.564064554870129,15.50812367349863 -4.572448320686817,15.591699630022049 -4.580832086503506,15.675276517868042 
C -4.585095681250095,15.751847065985203 -4.589359275996685,15.828418545424938 -4.593622870743275,15.904989093542099 
C -4.594253376126289,15.985260717570782 -4.594883881509304,16.06553141027689 -4.595514386892319,16.145803034305573 
C -4.591813310980797,16.225233674049377 -4.588112700730562,16.304663382470608 -4.58441162481904,16.384094022214413 
C -4.575314000248909,16.464763320982456 -4.566216375678778,16.545431688427925 -4.557118751108646,16.62610098719597 
C -4.541531670838594,16.704057343304157 -4.525944124907255,16.78201276808977 -4.510357044637203,16.85996912419796 
C -4.4743213802576065,16.93553663790226 -4.43828571587801,17.01110415160656 -4.402250051498413,17.08667166531086 
C -4.366206005215645,17.162206582725048 -4.330161958932877,17.23774243146181 -4.294117912650108,17.313277348876 
C -4.258082248270512,17.3888448625803 -4.222046583890915,17.4644123762846 -4.186010919511318,17.5399798899889 
C -4.14996687322855,17.615515738725662 -4.113922826945782,17.69105065613985 -4.0778787806630135,17.766586504876614 
C -4.057376645505428,17.84461736679077 -4.036874510347843,17.92264822870493 -4.016372375190258,18.000679090619087 
C -4.009285010397434,18.076357431709766 -4.00219764560461,18.15203670412302 -3.9951102808117867,18.2277150452137 
C -4.001674707978964,18.303601071238518 -4.008239135146141,18.37948616594076 -4.014803562313318,18.45537219196558 
C -4.041918087750673,18.529132939875126 -4.069033078849316,18.602894619107246 -4.096147604286671,18.676655367016792 
C -4.128413740545511,18.716839142143726 -4.160680342465639,18.757023848593235 -4.19294647872448,18.79720762372017 
C -4.265088587999344,18.839647993445396 -4.337230231612921,18.8820892944932 -4.409372340887785,18.924529664218426 
C -4.481513984501362,18.966970033943653 -4.553655628114939,19.00941040366888 -4.625797271728516,19.051850773394108 
C -4.6979389153420925,19.094291143119335 -4.770081024616957,19.136731512844563 -4.842222668230534,19.17917188256979 
C -4.914364777505398,19.221612252295017 -4.986506421118975,19.26405169069767 -5.058648530393839,19.306492060422897 
C -5.132369231432676,19.34619713574648 -5.206090398132801,19.38590221107006 -5.2798110991716385,19.425607286393642 
C -5.356600508093834,19.436710514128208 -5.433389451354742,19.44781467318535 -5.5101788602769375,19.458917900919914 
C -5.548951216042042,19.45229060947895 -5.587723106145859,19.445663318037987 -5.626495461910963,19.439036026597023 
C -5.699888803064823,19.40977666527033 -5.773282144218683,19.380517303943634 -5.846675485372543,19.35125794261694 
C -5.91107876971364,19.30905133485794 -5.97548158839345,19.266844727098942 -6.039884872734547,19.224638119339943 
C -6.099259480834007,19.17190756648779 -6.158634088933468,19.11917794495821 -6.2180086970329285,19.066447392106056 
C -6.264256779104471,18.996667116880417 -6.310504395514727,18.926886841654778 -6.356752477586269,18.857106566429138 
C -6.402968429028988,18.78733467310667 -6.449184380471706,18.717563711106777 -6.495400331914425,18.64779181778431 
C -6.541648413985968,18.57801154255867 -6.587896030396223,18.508232198655605 -6.634144112467766,18.438451923429966 
C -6.677455734461546,18.37677415460348 -6.720766890794039,18.315096385776997 -6.764078512787819,18.253418616950512 
C -6.819319911301136,18.200588412582874 -6.874560844153166,18.147757276892662 -6.929802242666483,18.094927072525024 
C -6.9891237653791904,18.04818119853735 -7.048445753753185,18.001435324549675 -7.107767276465893,17.954689450562 
C -7.170477416366339,17.911831848323345 -7.233187556266785,17.868975177407265 -7.295897696167231,17.82611757516861 
C -7.361156400293112,17.786717973649502 -7.42641557008028,17.74731930345297 -7.4916742742061615,17.70791970193386 
C -7.5598652474582195,17.671220935881138 -7.62805575504899,17.63452123850584 -7.696246728301048,17.597822472453117 
C -7.76454946026206,17.564889043569565 -7.832852192223072,17.531955614686012 -7.901155389845371,17.49902218580246 
C -7.97355268150568,17.46771764010191 -8.045949041843414,17.43641309440136 -8.118346333503723,17.40510854870081 
C -8.190436288714409,17.377165146172047 -8.26252531260252,17.349221743643284 -8.334615267813206,17.32127834111452 
C -8.408586494624615,17.29559153318405 -8.482558652758598,17.269903793931007 -8.556529879570007,17.244216986000538 
C -8.631641045212746,17.220985144376755 -8.706753142178059,17.19775330275297 -8.781864307820797,17.17452146112919 
C -8.835993707180023,17.159396782517433 -8.89012310653925,17.144271172583103 -8.944252505898476,17.129146493971348 
C -9.018327109515667,17.11054053157568 -9.092400781810284,17.09193456918001 -9.166475385427475,17.073328606784344 
C -9.244333952665329,17.056227661669254 -9.322193451225758,17.03912764787674 -9.400052018463612,17.02202670276165 
C -9.416974149644375,17.01859664171934 -9.433896280825138,17.015166580677032 -9.450818412005901,17.011736519634724 
C -9.511913172900677,17.06897374242544 -9.573008865118027,17.126210033893585 -9.634103626012802,17.183447256684303 
C -9.694388136267662,17.2415217384696 -9.754672646522522,17.299597151577473 -9.814957156777382,17.35767163336277 
C -9.872324764728546,17.41490699350834 -9.929693304002285,17.472141422331333 -9.98706091195345,17.529376782476902 
C -10.045032016932964,17.589762806892395 -10.103002190589905,17.650148831307888 -10.16097329556942,17.71053485572338 
C -10.216853581368923,17.77020376175642 -10.272733867168427,17.829873599112034 -10.32861415296793,17.889542505145073 
C -10.311389341950417,17.97014568001032 -10.294164530932903,18.05074978619814 -10.27693971991539,18.131352961063385 
C -10.258764959871769,18.205448053777218 -10.240589268505573,18.279542215168476 -10.222414508461952,18.35363730788231 
C -10.197905823588371,18.441058695316315 -10.173398070037365,18.528479151427746 -10.148889385163784,18.61590053886175 
C -10.122731328010559,18.69755145162344 -10.096574202179909,18.779203295707703 -10.070416145026684,18.86085420846939 
C -10.042980313301086,18.93670577555895 -10.015544481575489,19.01255641132593 -9.988108649849892,19.08840797841549 
C -9.95982438325882,19.158517010509968 -9.931539185345173,19.228625111281872 -9.9032549187541,19.29873414337635 
C -9.868700057268143,19.375319592654705 -9.83414612710476,19.451905973255634 -9.799591265618801,19.52849142253399 
C -9.764996357262135,19.59694316610694 -9.730402380228043,19.665395375341177 -9.695807471871376,19.733847118914127 
C -9.656262584030628,19.803660456091166 -9.61671769618988,19.873473327606916 -9.577172808349133,19.943286664783955 
C -9.534209035336971,20.010254345834255 -9.491246193647385,20.077222026884556 -9.448282420635223,20.144189707934856 
C -9.400106966495514,20.20948240533471 -9.351931512355804,20.274775102734566 -9.303756058216095,20.34006780013442 
C -9.251258336007595,20.399789791554213 -9.19876154512167,20.459511782974005 -9.14626382291317,20.519233774393797 
C -9.077250957489014,20.566643681377172 -9.008238092064857,20.614054054021835 -8.939225226640701,20.66146396100521 
C -8.870244026184082,20.708865951746702 -8.801262825727463,20.75626840814948 -8.732281625270844,20.803670398890972 
C -8.663300424814224,20.851071923971176 -8.59432015568018,20.89847344905138 -8.52533895522356,20.945874974131584 
C -8.456366136670113,20.9933090955019 -8.38739424943924,21.040742751210928 -8.318421430885792,21.088176872581244 
C -8.261622861027718,21.145496517419815 -8.204824291169643,21.202816627919674 -8.14802572131157,21.260136272758245 
C -8.10406357049942,21.322091575711966 -8.060102351009846,21.384047344326973 -8.016140200197697,21.446002647280693 
C -7.983875460922718,21.515038330107927 -7.951609790325165,21.584073547273874 -7.919345051050186,21.65310923010111 
C -7.9059964045882225,21.730534732341766 -7.8926486894488335,21.807960234582424 -7.87930004298687,21.885385736823082 
C -7.887119427323341,21.93633047863841 -7.894937880337238,21.987275686115026 -7.90275726467371,22.038220427930355 
C -7.944005541503429,22.111024241894484 -7.985252887010574,22.1838285215199 -8.026501163840294,22.256632335484028 
C -8.067757822573185,22.32946828007698 -8.10901541262865,22.402304224669933 -8.150272071361542,22.475140169262886 
C -8.191528730094433,22.54797611385584 -8.232786320149899,22.62081205844879 -8.27404297888279,22.693648003041744 
C -8.31529963761568,22.766484413295984 -8.356556296348572,22.839320357888937 -8.397812955081463,22.912156768143177 
C -8.441816084086895,22.983394097536802 -8.485819213092327,23.054631426930428 -8.52982234209776,23.125868756324053 
C -8.59079509973526,23.173890076577663 -8.65176785737276,23.221911396831274 -8.712740615010262,23.269932717084885 
C -8.789937943220139,23.291831370443106 -8.867135271430016,23.313730489462614 -8.944332599639893,23.335629142820835 
C -9.024281054735184,23.33791460841894 -9.1042285785079,23.340200074017048 -9.184177033603191,23.342485539615154 
C -9.26394946873188,23.330979980528355 -9.343722835183144,23.319474421441555 -9.423495270311832,23.307968862354755 
C -9.456309489905834,23.29997019842267 -9.489123709499836,23.291971068829298 -9.521937929093838,23.283972404897213 
C -9.596860967576504,23.2466422021389 -9.671784937381744,23.20931199938059 -9.74670797586441,23.171981796622276 
C -9.821640327572823,23.134684190154076 -9.89657174795866,23.097386583685875 -9.971504099667072,23.060088977217674 
C -10.046427138149738,23.022758774459362 -10.121351107954979,22.98542857170105 -10.196274146437645,22.948098368942738 
C -10.26461273431778,22.916328627616167 -10.33295039087534,22.884559351950884 -10.401288978755474,22.852789610624313 
C -10.423440486192703,22.846336476504803 -10.445591062307358,22.839883342385292 -10.467742569744587,22.83343020826578 
C -10.542788542807102,22.817807737737894 -10.617834515869617,22.802185732871294 -10.692880488932133,22.786563262343407 
C -10.769052430987358,22.777333855628967 -10.845225304365158,22.76810398325324 -10.921397246420383,22.7588745765388 
C -10.997021570801735,22.75455417111516 -11.072646826505661,22.75023376569152 -11.148271150887012,22.745913360267878 
C -11.225128546357155,22.74567959830165 -11.301985941827297,22.74544583633542 -11.37884333729744,22.745212074369192 
C -11.455859988927841,22.748662624508142 -11.532875709235668,22.75211364030838 -11.60989236086607,22.75556419044733 
C -11.687621474266052,22.762447129935026 -11.76535151898861,22.769330069422722 -11.843080632388592,22.776213008910418 
C -11.919792741537094,22.786129266023636 -11.996504850685596,22.796045523136854 -12.073216959834099,22.805961780250072 
C -12.151114642620087,22.819011006504297 -12.229012325406075,22.83206069841981 -12.306910008192062,22.845109924674034 
C -12.38118764013052,22.860233671963215 -12.455466203391552,22.875357419252396 -12.52974383533001,22.890481166541576 
C -12.603333219885826,22.90792902931571 -12.676922604441643,22.925376426428556 -12.75051198899746,22.94282428920269 
C -12.827091850340366,22.963577415794134 -12.903670780360699,22.984330542385578 -12.980250641703606,23.005083668977022 
C -13.055198825895786,23.027861025184393 -13.130147010087967,23.05063884705305 -13.205095194280148,23.07341620326042 
C -13.253025710582733,23.089250084012747 -13.300957158207893,23.105083499103785 -13.348887674510479,23.12091737985611 
C -13.37321475148201,23.2010162435472 -13.397540897130966,23.281114641577005 -13.421867974102497,23.361213505268097 
C -13.445043936371803,23.441654862836003 -13.46821989864111,23.522096453234553 -13.491395860910416,23.60253781080246 
C -13.51243257522583,23.680791724473238 -13.53347022086382,23.75904587097466 -13.554506935179234,23.837299784645438 
C -13.574527576565742,23.918586783111095 -13.594549149274826,23.99987354874611 -13.614569790661335,24.081160547211766 
C -13.633106835186481,24.160774424672127 -13.651644811034203,24.240388302132487 -13.670181855559349,24.320002179592848 
C -13.615000061690807,24.381167953833938 -13.559817336499691,24.442333728075027 -13.50463554263115,24.503499502316117 
C -13.451834209263325,24.55860935151577 -13.399033807218075,24.613719433546066 -13.34623247385025,24.66882928274572 
C -13.28127272427082,24.73227004520595 -13.216312974691391,24.79571057483554 -13.151353225111961,24.85915133729577 
C -13.087873347103596,24.916777620092034 -13.024392537772655,24.974403670057654 -12.96091265976429,25.032029952853918 
C -12.899237684905529,25.084031047299504 -12.837561778724194,25.136031908914447 -12.775886803865433,25.188033003360033 
C -12.716343626379967,25.234596570953727 -12.6568004488945,25.281160371378064 -12.597257271409035,25.327723938971758 
C -12.529055587947369,25.376745965331793 -12.460853904485703,25.425767991691828 -12.392652221024036,25.474790018051863 
C -12.32847198843956,25.516798836179078 -12.264291755855083,25.55880753789097 -12.200111523270607,25.600816356018186 
C -12.130911462008953,25.641478365287185 -12.061712332069874,25.682140490971506 -11.99251227080822,25.722802500240505 
C -11.921861208975315,25.759332929737866 -11.851209215819836,25.79586347565055 -11.78055815398693,25.83239390514791 
C -11.70619111508131,25.86484723724425 -11.631825007498264,25.897300569340587 -11.557457968592644,25.929753901436925 
C -11.482116766273975,25.95522126648575 -11.406775563955307,25.980688631534576 -11.331434361636639,26.006155996583402 
C -11.247988790273666,26.01271017920226 -11.16454228758812,26.019264478236437 -11.081096716225147,26.025818660855293 
C -10.997651144862175,26.03237295988947 -10.914204642176628,26.03892737533897 -10.830759070813656,26.04548167437315 
C -10.747289285063744,26.05207683518529 -10.663819499313831,26.058671879582107 -10.580349713563919,26.065267040394247 
C -10.496904142200947,26.071821339428425 -10.413458570837975,26.07837552204728 -10.330012999475002,26.08492982108146 
C -10.25219913572073,26.106194127351046 -10.174386203289032,26.12745831720531 -10.09657233953476,26.148722623474896 
C -10.027488693594933,26.180415879935026 -9.958405047655106,26.212109019979835 -9.889321401715279,26.243802276439965 
C -9.826882742345333,26.28741506487131 -9.764443151652813,26.33102796971798 -9.702004492282867,26.374640758149326 
C -9.65171679854393,26.435012521687895 -9.601430036127567,26.495384343434125 -9.55114234238863,26.555756106972694 
C -9.532440453767776,26.603799720760435 -9.513738565146923,26.651843392755836 -9.49503667652607,26.699887006543577 
C -9.494341909885406,26.783584209624678 -9.493648074567318,26.86728144180961 -9.492953307926655,26.95097867399454 
C -9.492291137576103,27.034667320549488 -9.491629898548126,27.118355967104435 -9.490967728197575,27.202044613659382 
C -9.490282274782658,27.285774005576968 -9.48959682136774,27.369503397494555 -9.488911367952824,27.45323278941214 
C -9.488217532634735,27.536929977941327 -9.487522765994072,27.620627137366682 -9.486828930675983,27.704324340447783 
C -9.489303454756737,27.788000646978617 -9.49177797883749,27.87167695350945 -9.494252502918243,27.955353260040283 
C -9.523052722215652,28.027420572470874 -9.551852941513062,28.099487826693803 -9.58065316081047,28.171555139124393 
C -9.63655486702919,28.229113726411015 -9.692457504570484,28.286672371905297 -9.748359210789204,28.34423095919192 
C -9.81647428125143,28.386197285726666 -9.884589351713657,28.428163612261415 -9.952704422175884,28.470129938796163 
C -10.02753060311079,28.50004902575165 -10.102355852723122,28.52996822912246 -10.177182033658028,28.559887316077948 
C -10.260588489472866,28.566836612299085 -10.34399401396513,28.57378590852022 -10.427400469779968,28.58073520474136 
C -10.510815307497978,28.587716748006642 -10.594230145215988,28.594698174856603 -10.677644982933998,28.601679718121886 
C -10.761059820652008,28.60866126138717 -10.844474658370018,28.61564268823713 -10.927889496088028,28.622624231502414 
C -11.018745601177216,28.6301999585703 -11.109600774943829,28.63777580205351 -11.200456880033016,28.6453515291214 
C -11.273727752268314,28.664057957939804 -11.346997693181038,28.68276450317353 -11.420268565416336,28.701470931991935 
C -11.491713114082813,28.72843120712787 -11.56315766274929,28.755391598679125 -11.634602211415768,28.78235187381506 
C -11.70437503606081,28.814660385251045 -11.774146929383278,28.84696889668703 -11.84391975402832,28.879277408123016 
C -11.911283247172832,28.915475122630596 -11.97864580899477,28.951672837138176 -12.046009302139282,28.987870551645756 
C -12.11072038859129,29.026918695308268 -12.175430543720722,29.065966955386102 -12.24014163017273,29.105015099048615 
C -12.304562143981457,29.148005764000118 -12.368983589112759,29.190996545366943 -12.433404102921486,29.233987210318446 
C -12.496036477386951,29.279700363986194 -12.558667920529842,29.325413517653942 -12.621300294995308,29.37112655490637 
C -12.681004591286182,29.418279882520437 -12.740709818899632,29.465433210134506 -12.800414115190506,29.512586537748575 
C -12.859219685196877,29.56256875768304 -12.918026186525822,29.61255074478686 -12.976831756532192,29.662532964721322 
C -13.034195639193058,29.71473033539951 -13.091559521853924,29.76692793890834 -13.14892340451479,29.819125309586525 
C -13.204374350607395,29.87293992191553 -13.259824365377426,29.926754301413894 -13.315275311470032,29.9805689137429 
C -13.368423096835613,30.035448959097266 -13.421570882201195,30.090329237282276 -13.474718667566776,30.145209282636642 
C -13.528482988476753,30.204065144062042 -13.582248240709305,30.262921005487442 -13.636012561619282,30.321776866912842 
C -13.647421263158321,30.33473202958703 -13.658829033374786,30.34768719226122 -13.670237734913826,30.360642354935408 
C -13.651225715875626,30.4421738255769 -13.63221276551485,30.52370506338775 -13.61320074647665,30.605236534029245 
C -13.593035750091076,30.686455545946956 -13.572869822382927,30.76767479069531 -13.552704825997353,30.84889380261302 
C -13.531827367842197,30.927197774872184 -13.510948978364468,31.00550197996199 -13.490071520209312,31.083805952221155 
C -13.46678752452135,31.164204236119986 -13.443502597510815,31.244602520018816 -13.420218601822853,31.325000803917646 
C -13.396461494266987,31.403248198330402 -13.372705318033695,31.481496058404446 -13.348948210477829,31.5597434528172 
C -13.270540162920952,31.585101038217545 -13.192132115364075,31.6104581579566 -13.113724067807198,31.635815743356943 
C -13.040480203926563,31.65713232010603 -12.967236340045929,31.678448896855116 -12.893992476165295,31.699765473604202 
C -12.80598808079958,31.722276471555233 -12.717983685433865,31.744787469506264 -12.62997929006815,31.767298467457294 
C -12.546186335384846,31.785437371581793 -12.462393380701542,31.803575810045004 -12.378600426018238,31.821714714169502 
C -12.299204245209694,31.835914589464664 -12.219808995723724,31.850114464759827 -12.14041281491518,31.86431434005499 
C -12.065555900335312,31.874847132712603 -11.990698985755444,31.885380391031504 -11.915842071175575,31.895913183689117 
C -11.832265183329582,31.904297415167093 -11.748689226806164,31.912681180983782 -11.66511233896017,31.921065412461758 
C -11.588540859520435,31.925329007208347 -11.511970311403275,31.92959213629365 -11.43539883196354,31.93385573104024 
C -11.355128139257431,31.934486236423254 -11.274856515228748,31.935117207467556 -11.19458582252264,31.93574771285057 
C -11.115155182778835,31.93204663693905 -11.035725474357605,31.928345561027527 -10.9562948346138,31.924644485116005 
C -10.875625535845757,31.915546860545874 -10.794956237077713,31.90644970163703 -10.71428693830967,31.8973520770669 
C -10.63633058220148,31.881764996796846 -10.558375157415867,31.866177450865507 -10.480418801307678,31.850590370595455 
C -10.404851287603378,31.81455424055457 -10.329283773899078,31.778518576174974 -10.253716260194778,31.74248244613409 
C -10.17818134278059,31.70643886551261 -10.102645494043827,31.67039481922984 -10.027110576629639,31.63435123860836 
C -9.951543062925339,31.598315574228764 -9.875975549221039,31.56227944418788 -9.800408035516739,31.526243779808283 
C -9.724872186779976,31.490199733525515 -9.649337269365788,31.454156152904034 -9.573801420629025,31.418112106621265 
C -9.495770558714867,31.39760997146368 -9.417740628123283,31.377107836306095 -9.339709766209126,31.35660570114851 
C -9.264031425118446,31.349518336355686 -9.188352152705193,31.342430505901575 -9.112673811614513,31.33534314110875 
C -9.036787785589695,31.34190756827593 -8.960901759564877,31.348472461104393 -8.885015733540058,31.35503688827157 
C -8.811254985630512,31.382151413708925 -8.737493306398392,31.40926593914628 -8.663732558488846,31.436380464583635 
C -8.623548783361912,31.468646600842476 -8.583364076912403,31.500913202762604 -8.543180301785469,31.533179339021444 
C -8.500739932060242,31.60532144829631 -8.45829863101244,31.677463091909885 -8.415858261287212,31.74960520118475 
C -8.373417891561985,31.821746844798326 -8.330978453159332,31.893888488411903 -8.288538083434105,31.96603013202548 
C -8.246097713708878,32.038172241300344 -8.20365734398365,32.11031388491392 -8.161216974258423,32.182455994188786 
C -8.118776604533195,32.25459763780236 -8.076336234807968,32.32673974707723 -8.03389586508274,32.3988813906908 
C -7.994190789759159,32.47260209172964 -7.954485714435577,32.546323258429766 -7.914780639111996,32.6200439594686 
C -7.90367741137743,32.6968333683908 -7.892574183642864,32.77362231165171 -7.8814709559082985,32.8504117205739 
C -7.901118136942387,32.92824421077967 -7.920765317976475,33.00607716664672 -7.940412499010563,33.083909656852484 
C -7.978426292538643,33.154301811009645 -8.016441017389297,33.224694430828094 -8.054454810917377,33.295086584985256 
C -8.104267530143261,33.35838299244642 -8.15407931804657,33.4216789342463 -8.203892037272453,33.48497534170747 
C -8.27266275882721,33.532736357301474 -8.341433480381966,33.58049737289548 -8.410204201936722,33.628258388489485 
C -8.478933945298195,33.67599565535784 -8.547663688659668,33.72373292222619 -8.616393432021141,33.77147018909454 
C -8.685155771672726,33.81919860839844 -8.753917180001736,33.86692702770233 -8.82267951965332,33.914655447006226 
C -8.897594176232815,33.96667120978236 -8.97250883281231,34.01868650689721 -9.047423489391804,34.07070226967335 
C -9.101507253944874,34.12353713065386 -9.15559008717537,34.17637199163437 -9.20967385172844,34.22920685261488 
C -9.258082136511803,34.28829042240977 -9.306489489972591,34.34737445786595 -9.354897774755955,34.40645802766085 
C -9.399140253663063,34.46931438520551 -9.443381801247597,34.53217074275017 -9.487624280154705,34.59502710029483 
C -9.527892805635929,34.66005343943834 -9.568161331117153,34.72507931292057 -9.608429856598377,34.790105652064085 
C -9.644933976233006,34.856277983635664 -9.68143716454506,34.92245031520724 -9.717941284179688,34.98862264677882 
C -9.752211160957813,35.058051347732544 -9.786481969058514,35.127480048686266 -9.82075184583664,35.19690874963999 
C -9.852176532149315,35.26782337576151 -9.883602149784565,35.338738933205605 -9.91502683609724,35.409653559327126 
C -9.94314905256033,35.48034932464361 -9.971271269023418,35.55104602128267 -9.999393485486507,35.62174178659916 
C -10.025326162576675,35.69443989545107 -10.051257908344269,35.767137072980404 -10.077190585434437,35.83983518183231 
C -10.100781917572021,35.913712345063686 -10.124373249709606,35.987590439617634 -10.14796458184719,36.06146760284901 
C -10.169057175517082,36.13580670207739 -10.190149769186974,36.210146732628345 -10.211242362856865,36.28448583185673 
C -10.229848325252533,36.358559504151344 -10.248453356325626,36.432634107768536 -10.267059318721294,36.50670778006315 
C -10.284160263836384,36.584566347301006 -10.301260277628899,36.662425845861435 -10.318361222743988,36.74028441309929 
C -10.321791283786297,36.75720654428005 -10.32522227615118,36.77412960678339 -10.328652337193489,36.79105173796415 
C -10.271415114402771,36.85214649885893 -10.214178822934628,36.91324219107628 -10.15694160014391,36.974336951971054 
C -10.098866187036037,37.034621462225914 -10.04079170525074,37.094905972480774 -9.982716292142868,37.155190482735634 
C -9.925481863319874,37.2125580906868 -9.868246503174305,37.26992662996054 -9.81101207435131,37.3272942379117 
C -9.750626049935818,37.38526441156864 -9.69023909419775,37.44323551654816 -9.629853069782257,37.5012056902051 
C -9.570184163749218,37.5570859760046 -9.510514326393604,37.612966261804104 -9.450845420360565,37.66884654760361 
C -9.37024224549532,37.651621736586094 -9.289638139307499,37.634397856891155 -9.209034964442253,37.61717304587364 
C -9.134940803050995,37.598997354507446 -9.060845710337162,37.580822594463825 -8.986751548945904,37.56264690309763 
C -8.899330161511898,37.53813914954662 -8.811908774077892,37.51363046467304 -8.724487386643887,37.489122711122036 
C -8.642836473882198,37.46296465396881 -8.561184629797935,37.43680752813816 -8.479533717036247,37.410649470984936 
C -8.40368214994669,37.38321363925934 -8.327831514179707,37.35577780753374 -8.251979947090149,37.328341975808144 
C -8.18187091499567,37.30005770921707 -8.111762814223766,37.271772511303425 -8.041653782129288,37.24348824471235 
C -7.965068332850933,37.208933383226395 -7.888482883572578,37.17437852174044 -7.8118969686329365,37.13982366025448 
C -7.743445225059986,37.10522968322039 -7.674993015825748,37.07063477486372 -7.606541272252798,37.03604079782963 
C -7.53672793507576,36.99649590998888 -7.466915063560009,36.95695009082556 -7.397101726382971,36.91740520298481 
C -7.33013404533267,36.87444142997265 -7.263166829943657,36.83147858828306 -7.196199148893356,36.7885148152709 
C -7.130906451493502,36.74033936113119 -7.06561328843236,36.692164838314056 -7.000320591032505,36.64398938417435 
C -6.940598599612713,36.59149166196585 -6.880876608192921,36.53899487107992 -6.8211546167731285,36.48649714887142 
C -6.773744244128466,36.417484283447266 -6.72633433714509,36.348470486700535 -6.678923964500427,36.27945762127638 
C -6.631521973758936,36.21047642081976 -6.584120448678732,36.141496151685715 -6.536718457937241,36.072514951229095 
C -6.489316932857037,36.003533750772476 -6.441914942115545,35.93455255031586 -6.394513417035341,35.86557134985924 
C -6.347079295665026,35.79659853130579 -6.2996456399559975,35.72762664407492 -6.252211518585682,35.65865382552147 
C -6.19489187374711,35.601855255663395 -6.1375717632472515,35.54505668580532 -6.08025211840868,35.48825811594725 
C -6.01829681545496,35.4442959651351 -5.9563410468399525,35.40033474564552 -5.894385743886232,35.356372594833374 
C -5.825350061058998,35.324107855558395 -5.756314843893051,35.29184404760599 -5.687279161065817,35.25957930833101 
C -5.609853658825159,35.24623066186905 -5.532428156584501,35.232882015407085 -5.4550026543438435,35.21953336894512 
C -5.4040574468672276,35.22735182195902 -5.353112705051899,35.23517120629549 -5.302167497575283,35.24298965930939 
C -5.229363683611155,35.28423793613911 -5.156559869647026,35.32548528164625 -5.083756055682898,35.36673355847597 
C -5.010920111089945,35.40799021720886 -4.938083700835705,35.44924780726433 -4.865247756242752,35.49050446599722 
C -4.792411811649799,35.531762056052685 -4.719575867056847,35.573018714785576 -4.646739922463894,35.61427630484104 
C -4.573903977870941,35.65553296357393 -4.501068033277988,35.696789622306824 -4.428232088685036,35.738046281039715 
C -4.3569947592914104,35.78204941004515 -4.285756964236498,35.82605253905058 -4.214519634842873,35.87005566805601 
C -4.166498314589262,35.93102842569351 -4.118476994335651,35.99200118333101 -4.070455674082041,36.05297394096851 
C -4.04855702072382,36.13017126917839 -4.026657901704311,36.20736859738827 -4.00475924834609,36.284565925598145 
C -4.002473782747984,36.364514380693436 -4.0001883171498775,36.44446190446615 -3.997902851551771,36.52441035956144 
C -4.009408410638571,36.60418279469013 -4.020913504064083,36.683956161141396 -4.032419063150883,36.763728596270084 
C -4.068097099661827,36.839439533650875 -4.103774670511484,36.915150471031666 -4.1394527070224285,36.99086140841246 
C -4.175130277872086,37.06657327711582 -4.210807848721743,37.14228421449661 -4.2464854195714,37.21799608319998 
C -4.282171837985516,37.29373961687088 -4.3178582563996315,37.36948221921921 -4.353544674813747,37.44522575289011 
C -4.392384551465511,37.5277167186141 -4.431224428117275,37.61020675301552 -4.470064304769039,37.69269771873951 
C -4.490500316023827,37.765488028526306 -4.510936327278614,37.8382783383131 -4.5313723385334015,37.9110686480999 
C -4.543733317404985,37.98643592745066 -4.556094761937857,38.061803206801414 -4.568455740809441,38.13717048615217 
C -4.575338680297136,38.21373078972101 -4.582222085446119,38.29029016196728 -4.589105024933815,38.36685046553612 
C -4.591474775224924,38.44330832362175 -4.593844525516033,38.51976525038481 -4.596214275807142,38.59622310847044 
C -4.594752099364996,38.67177478969097 -4.593290388584137,38.7473264709115 -4.591828212141991,38.822878152132034 
C -4.586789291352034,38.90014719218016 -4.581749904900789,38.977417163550854 -4.576710984110832,39.054686203598976 
C -4.56845061853528,39.13178388029337 -4.560190252959728,39.20888155698776 -4.551929887384176,39.285979233682156 
C -4.540947265923023,39.36128690838814 -4.52996464446187,39.43659458309412 -4.518982023000717,39.5119022578001 
C -4.505123011767864,39.58780784159899 -4.491263534873724,39.66371435672045 -4.477404523640871,39.73961994051933 
C -4.460882395505905,39.81537651270628 -4.444360733032227,39.89113308489323 -4.427838604897261,39.96688965708017 
C -4.408925771713257,40.041837841272354 -4.39001340419054,40.11678509414196 -4.3711005710065365,40.19173327833414 
C -4.350174218416214,40.265219286084175 -4.329248331487179,40.33870529383421 -4.308321978896856,40.412191301584244 
C -4.284227266907692,40.48814810812473 -4.26013208925724,40.56410491466522 -4.236037377268076,40.64006172120571 
C -4.2305151000618935,40.656414814293385 -4.224993288516998,40.67276790738106 -4.219471011310816,40.68912100046873 
C -4.139372147619724,40.71344807744026 -4.05927374958992,40.73777422308922 -3.9791748858988285,40.76210130006075 
C -3.8987332955002785,40.785277262330055 -3.818291937932372,40.80845322459936 -3.737850347533822,40.83162918686867 
C -3.659596433863044,40.85266590118408 -3.581342753022909,40.87370354682207 -3.503088839352131,40.894740261137486 
C -3.4218018408864737,40.914760902523994 -3.3405146095901728,40.93478247523308 -3.2592276111245155,40.95480311661959 
C -3.179613733664155,40.97334016114473 -3.100000089034438,40.99187720566988 -3.0203862115740776,41.010414250195026 
C -2.959220437332988,40.955232456326485 -2.898054663091898,40.90004973113537 -2.836888888850808,40.84486793726683 
C -2.781778806820512,40.792066603899 -2.726668957620859,40.73926620185375 -2.671558875590563,40.68646486848593 
C -2.6081183459609747,40.6215051189065 -2.544677583500743,40.55654536932707 -2.481237053871155,40.49158561974764 
C -2.423610771074891,40.42810574173927 -2.365984721109271,40.36462493240833 -2.3083584383130074,40.30114505439997 
C -2.256357576698065,40.239470079541206 -2.2043567150831223,40.177795104682446 -2.1523558534681797,40.116120129823685 
C -2.1057920530438423,40.05657695233822 -2.059228252619505,39.99703377485275 -2.0126644521951675,39.93749059736729 
C -1.9636424258351326,39.86928891390562 -1.9146203994750977,39.80108629912138 -1.8655983731150627,39.732884615659714 
C -1.8235895549878478,39.66870531439781 -1.7815808532759547,39.604525081813335 -1.7395720351487398,39.540345780551434 
C -1.6989099094644189,39.47114571928978 -1.658247783780098,39.401945658028126 -1.617585658095777,39.33274559676647 
C -1.5810552285984159,39.26209453493357 -1.5445246826857328,39.19144254177809 -1.5079942531883717,39.12079147994518 
C -1.4755410375073552,39.04642444103956 -1.443087705411017,38.972058333456516 -1.4106344897300005,38.897691294550896 
C -1.385167008265853,38.82235009223223 -1.3596996432170272,38.74700888991356 -1.3342321617528796,38.67166768759489 
C -1.3276778627187014,38.58822211623192 -1.321123563684523,38.50477561354637 -1.3145692646503448,38.4213300421834 
C -1.3080149656161666,38.33788447082043 -1.3014607829973102,38.25443796813488 -1.294906483963132,38.17099239677191 
C -1.2883113231509924,38.087522611021996 -1.2817162787541747,38.00405282527208 -1.2751211179420352,37.92058303952217 
C -1.2685669353231788,37.8371374681592 -1.2620127527043223,37.75369189679623 -1.255458570085466,37.670246325433254 
C -1.2341942638158798,37.59243246167898 -1.2129300739616156,37.514619529247284 -1.1916657676920295,37.43680566549301 
C -1.159972627647221,37.367722019553185 -1.1282794876024127,37.29863744229078 -1.0965863475576043,37.229553796350956 
C -1.052973442710936,37.16711513698101 -1.0093605378642678,37.104676477611065 -0.9657476330175996,37.04223781824112 
C -0.9053757530637085,36.99195105582476 -0.8450039313174784,36.94166336208582 -0.7846320513635874,36.89137659966946 
C -0.7365884957835078,36.8726747110486 -0.6885449402034283,36.853971891105175 -0.6405013846233487,36.83527000248432 
C -0.5568041815422475,36.83457523584366 -0.4731069493573159,36.83388140052557 -0.38940971717238426,36.83318663388491 
C -0.30572107061743736,36.832524463534355 -0.22203242406249046,36.831862293183804 -0.13834377750754356,36.83120012283325 
C -0.05461430555442348,36.830514669418335 0.029115159122738987,36.82982921600342 0.11284463107585907,36.8291437625885 
C 0.19654181960504502,36.82844992727041 0.2802389790304005,36.82775516062975 0.3639361821115017,36.82706132531166 
C 0.447612430434674,36.829535849392414 0.5312886205501854,36.83201037347317 0.6149648688733578,36.83448489755392 
C 0.6870322395116091,36.86328511685133 0.7590996101498604,36.89208533614874 0.8311669807881117,36.92088555544615 
C 0.8887255098670721,36.97678726166487 0.9462840389460325,37.03268989920616 1.003842568024993,37.08859160542488 
C 1.045808894559741,37.15670667588711 1.087775221094489,37.22482267767191 1.1297415476292372,37.292937748134136 
C 1.1596607510000467,37.36776299774647 1.1895799543708563,37.442589178681374 1.2194991577416658,37.517414428293705 
C 1.2264484539628029,37.60082088410854 1.23339775018394,37.68422733992338 1.240347046405077,37.76763379573822 
C 1.24732858967036,37.85104863345623 1.2543100165203214,37.93446347117424 1.2612915597856045,38.01787830889225 
C 1.2682731030508876,38.10129314661026 1.2752545299008489,38.184707053005695 1.282236073166132,38.268121890723705 
C 1.2898118002340198,38.35897799581289 1.2973876437172294,38.44983410090208 1.3049633707851171,38.54069020599127 
C 1.3236697996035218,38.613961078226566 1.3423763448372483,38.68723101913929 1.361082773655653,38.76050189137459 
C 1.3880430487915874,38.831946440041065 1.4150034403428435,38.90339098870754 1.4419637154787779,38.97483553737402 
C 1.4742721104994416,39.04460743069649 1.5065806219354272,39.11438025534153 1.538889016956091,39.184152148664 
C 1.5750868478789926,39.25151564180851 1.6112845623865724,39.31887913495302 1.647482393309474,39.386242628097534 
C 1.6865305369719863,39.45095371454954 1.7255787970498204,39.515663869678974 1.7646269407123327,39.58037495613098 
C 1.807617605663836,39.64479546993971 1.850608387030661,39.70921691507101 1.8935990519821644,39.77363742887974 
C 1.9393122056499124,39.83626887202263 1.9850253593176603,39.898901246488094 2.0307383965700865,39.961532689630985 
C 2.0778917241841555,40.02123698592186 2.125044818967581,40.08094221353531 2.17219814658165,40.14064650982618 
C 2.2221803665161133,40.199452079832554 2.272162586450577,40.2582585811615 2.3221448063850403,40.31706415116787 
C 2.3743421770632267,40.374428033828735 2.426539547741413,40.4317919164896 2.4787369184195995,40.48915579915047 
C 2.5325515307486057,40.54460674524307 2.586366143077612,40.60005769133568 2.640180755406618,40.655508637428284 
C 2.6950608007609844,40.708656422793865 2.7499410789459944,40.76180327683687 2.8048211243003607,40.814951062202454 
C 2.8636769857257605,40.868716314435005 2.9225328471511602,40.92248063534498 2.98138870857656,40.976245887577534 
C 2.9943438712507486,40.98765458911657 3.0072990339249372,40.99906235933304 3.020254196599126,41.01047106087208 
C 3.101785434409976,40.99145904183388 3.18331690505147,40.9724460914731 3.26484814286232,40.9534340724349 
C 3.3460671547800303,40.93326907604933 3.427286399528384,40.91310314834118 3.5085054114460945,40.892938151955605 
C 3.586809616535902,40.87206069380045 3.665113588795066,40.85118230432272 3.7434177938848734,40.830304846167564 
C 3.823816077783704,40.8070208504796 3.9042141288518906,40.78373592346907 3.984612412750721,40.760451927781105 
C 4.062859807163477,40.73669482022524 4.141107201576233,40.71293771266937 4.219354595988989,40.689180605113506 
C 4.244712181389332,40.61077255755663 4.270069766789675,40.53236544132233 4.295427352190018,40.45395739376545 
C 4.316743928939104,40.380713529884815 4.338060971349478,40.30746966600418 4.359377548098564,40.23422580212355 
C 4.381888546049595,40.14622140675783 4.404399544000626,40.05821608006954 4.426910541951656,39.97021168470383 
C 4.445048980414867,39.88641873002052 4.4631874188780785,39.80262577533722 4.4813258573412895,39.718832820653915 
C 4.495525732636452,39.63943663984537 4.509725607931614,39.5600413903594 4.523925483226776,39.48064520955086 
C 4.534458741545677,39.40578829497099 4.544991999864578,39.330932311713696 4.555525258183479,39.25607539713383 
C 4.563909024000168,39.172498509287834 4.572293255478144,39.088922552764416 4.580677021294832,39.00534566491842 
C 4.584940616041422,38.92877418547869 4.589203745126724,38.85220363736153 4.593467339873314,38.77563215792179 
C 4.594097845256329,38.69536053389311 4.594728816300631,38.615089841187 4.595359321683645,38.53481821715832 
C 4.591658245772123,38.45538757741451 4.587957635521889,38.37595786899328 4.584256559610367,38.29652722924948 
C 4.5751589350402355,38.215857930481434 4.566061310470104,38.135189563035965 4.556963685899973,38.05452026426792 
C 4.541376139968634,37.97656390815973 4.525789059698582,37.89860848337412 4.510201513767242,37.82065212726593 
C 4.474165849387646,37.74508461356163 4.438130185008049,37.66951709985733 4.402094520628452,37.59394958615303 
C 4.366050474345684,37.51841466873884 4.330006893724203,37.44287882000208 4.293962847441435,37.36734390258789 
C 4.257927183061838,37.29177638888359 4.221891053020954,37.21620887517929 4.185855388641357,37.14064136147499 
C 4.149811342358589,37.06510551273823 4.113767761737108,36.98957059532404 4.07772371545434,36.91403474658728 
C 4.057221580296755,36.83600388467312 4.036718979477882,36.757973954081535 4.016216844320297,36.67994309216738 
C 4.0091294795274734,36.604263819754124 4.00204211473465,36.528585478663445 3.994954749941826,36.45290620625019 
C 4.001519177109003,36.37702018022537 4.008084069937468,36.30113508552313 4.014648497104645,36.22524905949831 
C 4.041763022542,36.151488311588764 4.068877547979355,36.077726632356644 4.09599207341671,36.0039658844471 
C 4.1282582096755505,35.963782109320164 4.160524811595678,35.923597402870655 4.192790947854519,35.88341362774372 
C 4.264933057129383,35.840973258018494 4.337075166404247,35.79853195697069 4.4092172756791115,35.756091587245464 
C 4.481358919292688,35.71365121752024 4.553500097244978,35.67121084779501 4.625641740858555,35.62877047806978 
C 4.697783850133419,35.586330108344555 4.769925493746996,35.54388973861933 4.84206760302186,35.5014493688941 
C 4.914209712296724,35.45900899916887 4.986351355910301,35.41656956076622 5.058493465185165,35.37412919104099 
C 5.132214166224003,35.33442411571741 5.20593486726284,35.29471904039383 5.279655568301678,35.25501396507025 
C 5.356444977223873,35.24391073733568 5.433234386146069,35.23280657827854 5.510023795068264,35.221703350543976 
C 5.587856285274029,35.241350531578064 5.6656887754797935,35.26099864393473 5.743521265685558,35.280645824968815 
C 5.81391341984272,35.318659618496895 5.884306039661169,35.356673412024975 5.954698193818331,35.394687205553055 
C 6.017994601279497,35.44449992477894 6.081290543079376,35.49431264400482 6.144586950540543,35.544125363230705 
C 6.192347966134548,35.61289608478546 6.240108981728554,35.68166680634022 6.287869997322559,35.750437527894974 
C 6.335607264190912,35.81916727125645 6.383344531059265,35.88789701461792 6.431081797927618,35.95662675797939 
C 6.478810217231512,36.02538909763098 6.526539102196693,36.09415050595999 6.5742675215005875,36.16291284561157 
C 6.6262828186154366,36.23782750219107 6.678298581391573,36.31274122744799 6.730313878506422,36.38765588402748 
C 6.783148739486933,36.44173964858055 6.8359836004674435,36.49582341313362 6.888818461447954,36.54990717768669 
C 6.947902031242847,36.598315462470055 7.006986066699028,36.64672281593084 7.066069636493921,36.69513110071421 
C 7.128925994038582,36.739373579621315 7.191782351583242,36.78361512720585 7.254638709127903,36.82785760611296 
C 7.319665048271418,36.86812613159418 7.384690921753645,36.908394657075405 7.44971726089716,36.94866318255663 
C 7.5158895924687386,36.98516730219126 7.5820619240403175,37.02167049050331 7.6482342556118965,37.05817461013794 
C 7.7176629565656185,37.092444486916065 7.787091191858053,37.126715295016766 7.856519892811775,37.16098517179489 
C 7.927435450255871,37.19240985810757 7.998350076377392,37.22383454442024 8.069265633821487,37.25525923073292 
C 8.139961399137974,37.28338144719601 8.210658095777035,37.311503663659096 8.281353861093521,37.339625880122185 
C 8.354051038622856,37.36555855721235 8.426749147474766,37.391490302979946 8.4994463250041,37.417422980070114 
C 8.573323488235474,37.4410143122077 8.647201582789421,37.46460657566786 8.721078746020794,37.48819790780544 
C 8.795417845249176,37.509290501475334 8.869757875800133,37.53038216382265 8.944096975028515,37.55147475749254 
C 9.018171578645706,37.57008071988821 9.092245250940323,37.58868668228388 9.166319854557514,37.607292644679546 
C 9.244178421795368,37.624393589794636 9.322037920355797,37.64149360358715 9.39989648759365,37.65859454870224 
C 9.416818618774414,37.66202460974455 9.433740749955177,37.66545560210943 9.45066288113594,37.66888566315174 
C 9.51175857335329,37.61164844036102 9.572853334248066,37.554411217570305 9.633949026465416,37.49717399477959 
C 9.694233536720276,37.43909951299429 9.754517115652561,37.38102409988642 9.814801625907421,37.32294961810112 
C 9.87217016518116,37.26571425795555 9.929537773132324,37.20847982913256 9.986906312406063,37.15124446898699 
C 10.044876486063004,37.090858444571495 10.102847591042519,37.030472420156 10.160817764699459,36.97008639574051 
C 10.216698050498962,36.91041748970747 10.272578336298466,36.850747652351856 10.328458622097969,36.79107874631882 
C 10.311233811080456,36.71047557145357 10.294009931385517,36.62987146526575 10.276785120368004,36.549268290400505 
C 10.258609429001808,36.47517319768667 10.240434668958187,36.401079036295414 10.222258977591991,36.32698394358158 
C 10.19775029271841,36.239562556147575 10.173242539167404,36.152142100036144 10.148733854293823,36.06472071260214 
C 10.122575797140598,35.98306979984045 10.096418671309948,35.90141795575619 10.070260614156723,35.8197670429945 
C 10.042824782431126,35.74391547590494 10.015389882028103,35.66806484013796 9.987954050302505,35.5922132730484 
C 9.959668852388859,35.52210424095392 9.931384585797787,35.45199614018202 9.90309938788414,35.38188710808754 
C 9.868544526398182,35.305301658809185 9.833990596234798,35.22871620953083 9.79943573474884,35.152130760252476 
C 9.764840826392174,35.08367855101824 9.730246849358082,35.015226341784 9.695651941001415,34.94677413254976 
C 9.656107053160667,34.876960795372725 9.61656216531992,34.807147923856974 9.577017277479172,34.737334586679935 
C 9.53405350446701,34.670366905629635 9.491090662777424,34.603399224579334 9.448126889765263,34.536431543529034 
C 9.399951435625553,34.47113884612918 9.351775981485844,34.405846148729324 9.303600527346134,34.34055345132947 
C 9.251103736460209,34.28083145990968 9.198606014251709,34.221109468489885 9.146109223365784,34.16138747707009 
C 9.077096357941628,34.11397757008672 9.008082561194897,34.066567197442055 8.93906969577074,34.01915729045868 
C 8.870088495314121,33.97175529971719 8.801107294857502,33.92435284331441 8.732126094400883,33.87695085257292 
C 8.663144893944263,33.829549327492714 8.594164624810219,33.78214780241251 8.5251834243536,33.734746277332306 
C 8.456210605800152,33.68731262162328 8.387238718569279,33.63987850025296 8.318265900015831,33.592444844543934 
C 8.261467330157757,33.535124734044075 8.204668760299683,33.4778050892055 8.147870190441608,33.420484978705645 
C 8.10390803962946,33.358529675751925 8.059946820139885,33.29657390713692 8.015984669327736,33.2346186041832 
C 7.983719930052757,33.16558292135596 7.951455190777779,33.096547704190016 7.9191904515028,33.02751202136278 
C 7.905841805040836,32.950086519122124 7.892494089901447,32.872661016881466 7.879145443439484,32.79523551464081 
C 7.886963896453381,32.74429077282548 7.894783280789852,32.693345565348864 7.902601733803749,32.642400823533535 
C 7.943850010633469,32.56959700956941 7.9850973561406136,32.49679319560528 8.026345632970333,32.42398938164115 
C 8.067602291703224,32.3511534370482 8.10885988175869,32.27831702679396 8.150116540491581,32.205481082201004 
C 8.191374130547047,32.13264513760805 8.232630789279938,32.0598091930151 8.273888379335403,31.986973248422146 
C 8.315145038068295,31.914137303829193 8.356401696801186,31.841300893574953 8.397658355534077,31.768464948982 
C 8.441661484539509,31.697227619588375 8.485664613544941,31.625989824533463 8.529667742550373,31.554752495139837 
C 8.590640500187874,31.506731174886227 8.6516123265028,31.458709854632616 8.7125850841403,31.410688534379005 
C 8.789782412350178,31.388789881020784 8.866979740560055,31.366890762001276 8.944177068769932,31.344992108643055 
C 9.024125523865223,31.34270664304495 9.10407304763794,31.340421177446842 9.18402150273323,31.338135711848736 
C 9.26379393786192,31.349641270935535 9.343567304313183,31.361146830022335 9.423339739441872,31.372652389109135 
C 9.499050676822662,31.40832995995879 9.574762545526028,31.444007996469736 9.650473482906818,31.479685567319393 
C 9.726184420287609,31.51536313816905 9.801896288990974,31.551041174679995 9.877607226371765,31.58671874552965 
C 9.953350760042667,31.622405163943768 10.02909429371357,31.658091116696596 10.104837827384472,31.693777535110712 
C 10.187328793108463,31.732617411762476 10.26981882750988,31.771457754075527 10.352309793233871,31.81029763072729 
C 10.353056713938713,31.810601241886616 10.35380270332098,31.81090485304594 10.354549624025822,31.811208464205265 
C 10.427897796034813,31.831621192395687 10.501246899366379,31.852034386247396 10.57459507137537,31.87244711443782 
C 10.650521144270897,31.884785275906324 10.72644628584385,31.897123903036118 10.802372358739376,31.909462064504623 
C 10.879370383918285,31.916255597025156 10.956368409097195,31.9230486638844 11.033366434276104,31.929842196404934 
C 11.110174469649792,31.932064332067966 11.18698250502348,31.934286467731 11.263790540397167,31.93650860339403 
C 11.339659802615643,31.93488996475935 11.415529996156693,31.933271791785955 11.491399258375168,31.931653153151274 
C 11.568945832550526,31.926481053233147 11.646492406725883,31.921309418976307 11.724038980901241,31.91613731905818 
C 11.801381595432758,31.907735858112574 11.8787232786417,31.89933393150568 11.956065893173218,31.890932470560074 
C 12.031595222651958,31.879767309874296 12.107123620808125,31.868602614849806 12.182652950286865,31.857437454164028 
C 12.258748523890972,31.84338752180338 12.334843166172504,31.829337123781443 12.410938739776611,31.815287191420794 
C 12.486884370446205,31.79857460781932 12.562830001115799,31.781861558556557 12.638775631785393,31.765148974955082 
C 12.713904492557049,31.746077816933393 12.78903242200613,31.727006193250418 12.864161282777786,31.70793503522873 
C 12.937772087752819,31.68680053204298 13.011382892727852,31.66566602885723 13.084993697702885,31.644531525671482 
C 13.161107897758484,31.62023751065135 13.237221166491508,31.59594302996993 13.313335366547108,31.5716490149498 
C 13.325134292244911,31.56766714528203 13.336933217942715,31.56368574127555 13.348732143640518,31.55970387160778 
C 13.373059220612049,31.47960500791669 13.397385366261005,31.399506609886885 13.421712443232536,31.319407746195793 
C 13.444888405501842,31.238966388627887 13.468065299093723,31.158524798229337 13.49124126136303,31.07808344066143 
C 13.512277975678444,30.999829526990652 13.533314689993858,30.921575613319874 13.554351404309273,30.843321699649096 
C 13.574372045695782,30.76203470118344 13.594393618404865,30.680747935548425 13.614414259791374,30.599460937082767 
C 13.63295130431652,30.519847059622407 13.651489280164242,30.440232949331403 13.670026324689388,30.360619071871042 
C 13.614844530820847,30.299453297629952 13.55966180562973,30.238287523388863 13.504480011761189,30.177121749147773 
C 13.451678678393364,30.12201189994812 13.398878276348114,30.066901817917824 13.34607694298029,30.01179196871817 
C 13.28111719340086,29.94835120625794 13.21615744382143,29.88491067662835 13.151197694242,29.82146991416812 
C 13.087717816233635,29.763843631371856 13.024237006902695,29.706217581406236 12.960757128894329,29.648591298609972 
C 12.899082154035568,29.59659043699503 12.837406247854233,29.544589575380087 12.775731272995472,29.492588713765144 
C 12.716188095510006,29.446024913340807 12.65664491802454,29.39946111291647 12.597101740539074,29.352897312492132 
C 12.528900057077408,29.303875286132097 12.460698373615742,29.254853376187384 12.392496690154076,29.20583146624267 
C 12.3283164575696,29.163822648115456 12.264136224985123,29.12181371357292 12.199955992400646,29.079804895445704 
C 12.130756862461567,29.039142886176705 12.061556801199913,28.998480993323028 11.992357671260834,28.95781898405403 
C 11.921706609427929,28.921288438141346 11.85105461627245,28.884757892228663 11.780403554439545,28.84822734631598 
C 11.706036515533924,28.81577401421964 11.631670407950878,28.783320682123303 11.557303369045258,28.750867350026965 
C 11.48196216672659,28.72540010139346 11.406620033085346,28.699932736344635 11.331278830766678,28.67446548771113 
C 11.32725365459919,28.673387016169727 11.323229409754276,28.672308544628322 11.319204233586788,28.671230073086917 
C 11.23574748635292,28.66484539117664 11.152291670441628,28.658460709266365 11.06883492320776,28.652076027356088 
C 10.985378175973892,28.64569134544581 10.901921428740025,28.639306779950857 10.818464681506157,28.63292209804058 
C 10.73500793427229,28.626537416130304 10.651550255715847,28.62015285063535 10.56809350848198,28.613768168725073 
C 10.484595783054829,28.607407119125128 10.401098057627678,28.60104595310986 10.317600332200527,28.594684903509915 
C 10.303154587745667,28.59257417730987 10.28870977461338,28.590463334694505 10.27426403015852,28.58835260849446 
C 10.198923759162426,28.563264990225434 10.123583488166332,28.53817748837173 10.048243217170238,28.513089870102704 
C 9.979477152228355,28.47841032780707 9.910710155963898,28.443730669096112 9.841944091022015,28.409051126800478 
C 9.779926389455795,28.360133175738156 9.717907756567001,28.311215224675834 9.655890055000782,28.262297273613513 
C 9.611297398805618,28.197032515890896 9.56670381128788,28.13176775816828 9.522111155092716,28.066503000445664 
C 9.513034485280514,28.0379134346731 9.503958746790886,28.009323810692877 9.494882076978683,27.980734244920313 
C 9.49418731033802,27.897037041839212 9.493493475019932,27.81333980965428 9.492798708379269,27.72964257746935 
C 9.492136538028717,27.645953930914402 9.491474367678165,27.562265284359455 9.490812197327614,27.478576637804508 
C 9.490126743912697,27.394847245886922 9.48944129049778,27.311117853969336 9.488755837082863,27.22738846205175 
C 9.488062001764774,27.143691273522563 9.487367235124111,27.059994114097208 9.486673399806023,26.976296911016107 
C 9.489147923886776,26.892620604485273 9.49162244796753,26.80894429795444 9.494096972048283,26.725267991423607 
C 9.522897191345692,26.653200678993016 9.5516974106431,26.581133424770087 9.58049762994051,26.509066112339497 
C 9.63639933615923,26.451507525052875 9.692301973700523,26.393948879558593 9.748203679919243,26.33639029227197 
C 9.81631875038147,26.294423965737224 9.884434752166271,26.252457639202476 9.952549822628498,26.210491312667727 
C 10.02737507224083,26.18057222571224 10.102201253175735,26.15065302234143 10.177026502788067,26.120733935385942 
C 10.260432958602905,26.113784639164805 10.343839414417744,26.10683534294367 10.427245870232582,26.09988604672253 
C 10.510660707950592,26.092904503457248 10.594074614346027,26.085923076607287 10.677489452064037,26.078941533342004 
C 10.760904289782047,26.07195999007672 10.844319127500057,26.06497856322676 10.927733965218067,26.057997019961476 
C 11.018590070307255,26.05042129289359 11.109446175396442,26.04284544941038 11.20030228048563,26.03526972234249 
C 11.273573152720928,26.016563293524086 11.346843093633652,25.99785674829036 11.42011396586895,25.979150319471955 
C 11.491558514535427,25.95219004433602 11.56300213187933,25.925229652784765 11.634446680545807,25.89826937764883 
C 11.70421950519085,25.865960866212845 11.773991398513317,25.83365235477686 11.84376422315836,25.801343843340874 
C 11.911127716302872,25.765146128833294 11.97849027812481,25.728948414325714 12.045853771269321,25.692750699818134 
C 12.110564857721329,25.653702672570944 12.175275012850761,25.614654645323753 12.239986099302769,25.575606618076563 
C 12.30440754443407,25.53261595312506 12.368828058242798,25.489625171758235 12.4332495033741,25.44663450680673 
C 12.49588094651699,25.40092123672366 12.558513320982456,25.35520796664059 12.621144764125347,25.309494696557522 
C 12.680849060416222,25.262341368943453 12.74055428802967,25.215188041329384 12.800258584320545,25.168034713715315 
C 12.859064154326916,25.11805249378085 12.917870655655861,25.06807050667703 12.976676225662231,25.018088286742568 
C 13.034040108323097,24.96589091606438 13.091403990983963,24.91369331255555 13.148767873644829,24.861495941877365 
C 13.204218819737434,24.80768132954836 13.25966976583004,24.753866950049996 13.315120711922646,24.70005233772099 
C 13.368268497288227,24.645172292366624 13.421415351331234,24.590292014181614 13.474563136696815,24.535411968827248 
C 13.528328388929367,24.476556107401848 13.582092709839344,24.417700245976448 13.635857962071896,24.35884438455105 
C 13.64726573228836,24.34588922187686 13.6586744338274,24.33293405920267 13.670082204043865,24.319978896528482 
C 13.651070185005665,24.23844742588699 13.63205723464489,24.15691618807614 13.61304521560669,24.075384717434645 
C 13.592880219221115,23.994165705516934 13.572714291512966,23.91294646076858 13.552549295127392,23.83172744885087 
C 13.531671836972237,23.753423476591706 13.510793447494507,23.6751192715019 13.489915989339352,23.596815299242735 
C 13.46663199365139,23.516417015343904 13.443347066640854,23.436018731445074 13.420063070952892,23.355620447546244 
C 13.396305963397026,23.277373053133488 13.372549787163734,23.19912565872073 13.348792679607868,23.120878264307976 
C 13.270384632050991,23.095520678907633 13.191977515816689,23.070163559168577 13.113569468259811,23.044805973768234 
C 13.040325604379177,23.023489397019148 12.967080809175968,23.002172354608774 12.893836945295334,22.980855777859688 
C 12.875921092927456,22.97598635777831 12.858004309237003,22.971116472035646 12.840088456869125,22.96624705195427 
C 12.75290921330452,22.9446473531425 12.665729969739914,22.923048119992018 12.578550726175308,22.90144842118025 
C 12.495609931647778,22.88412442430854 12.412668205797672,22.86679996177554 12.329727411270142,22.84947596490383 
C 12.25123181939125,22.836035583168268 12.172737158834934,22.822594735771418 12.094241566956043,22.809154354035854 
C 12.006099335849285,22.797718178480864 11.917958036065102,22.78628246858716 11.829815804958344,22.77484629303217 
C 11.74854300916195,22.767907939851284 11.667270213365555,22.760970052331686 11.58599741756916,22.7540316991508 
C 11.500134132802486,22.750832606106997 11.414269916713238,22.74763397872448 11.328406631946564,22.744434885680676 
C 11.252417229115963,22.7454686537385 11.176428757607937,22.74650288745761 11.100439354777336,22.747536655515432 
C 11.01755816489458,22.753556724637747 10.934676043689251,22.75957725942135 10.851794853806496,22.765597328543663 
C 10.77340729534626,22.776997182518244 10.695020668208599,22.788397502154112 10.616633109748363,22.799797356128693 
C 10.542241856455803,22.818306926637888 10.467851534485817,22.836816497147083 10.393460281193256,22.85532606765628 
C 10.318479500710964,22.89251983165741 10.243498720228672,22.92971359565854 10.16851793974638,22.966907359659672 
C 10.09350549429655,23.004091810435057 10.018492117524147,23.04127672687173 9.943479672074318,23.078461177647114 
C 9.8684998229146,23.115654941648245 9.793519042432308,23.152848705649376 9.71853919327259,23.190042469650507 
C 9.647514671087265,23.222774732857943 9.57649014890194,23.25550653040409 9.505465626716614,23.288238793611526 
C 9.427385404706001,23.303517140448093 9.349305182695389,23.318795021623373 9.271224960684776,23.33407336845994 
C 9.193886071443558,23.33743730559945 9.116548113524914,23.34080170840025 9.039209224283695,23.34416564553976 
C 8.967200294137001,23.333049844950438 8.895191363990307,23.321934044361115 8.823182433843613,23.31081824377179 
C 8.751950226724148,23.276581894606352 8.680718019604683,23.2423460111022 8.609485812485218,23.20810966193676 
C 8.58733244240284,23.18788692355156 8.565178140997887,23.167664650827646 8.543024770915508,23.147441912442446 
C 8.500584401190281,23.07529980316758 8.458144031465054,23.003158159554005 8.415703661739826,22.93101605027914 
C 8.373263292014599,22.858874406665564 8.330822922289371,22.786732763051987 8.288382552564144,22.71459111943841 
C 8.245942182838917,22.642449010163546 8.20350181311369,22.57030736654997 8.161061443388462,22.498165257275105 
C 8.118621073663235,22.426023613661528 8.076181635260582,22.35388197004795 8.033741265535355,22.281740326434374 
C 7.994036190211773,22.208019625395536 7.954330183565617,22.13429845869541 7.914625108242035,22.060577757656574 
C 7.903521880507469,21.98378834873438 7.892418652772903,21.906998939812183 7.881315425038338,21.830209530889988 
C 7.900962606072426,21.752377040684223 7.920609787106514,21.67454408481717 7.940256968140602,21.596711594611406 
C 7.978270761668682,21.526319440454245 8.016285486519337,21.455926820635796 8.054299280047417,21.385534666478634 
C 8.1041119992733,21.322238259017467 8.153924718499184,21.25894231721759 8.203737437725067,21.195645909756422 
C 8.272508159279823,21.147884894162416 8.34127888083458,21.10012387856841 8.410049602389336,21.052362862974405 
C 8.478779345750809,21.004625596106052 8.547509089112282,20.9568883292377 8.616238832473755,20.909151062369347 
C 8.68500117212534,20.861422643065453 8.75376258045435,20.81369422376156 8.822524920105934,20.765965804457664 
C 8.897439576685429,20.713950041681528 8.972353301942348,20.66193474456668 9.047267958521843,20.609918981790543 
C 9.101351723074913,20.557084120810032 9.155435487627983,20.50424925982952 9.209519252181053,20.45141439884901 
C 9.257926605641842,20.392330829054117 9.306334890425205,20.333246793597937 9.354742243885994,20.274163223803043 
C 9.398984722793102,20.211306866258383 9.443226270377636,20.148450508713722 9.487468749284744,20.08559415116906 
C 9.527737274765968,20.020567812025547 9.568005800247192,19.95554193854332 9.608274325728416,19.890515599399805 
C 9.644778445363045,19.824343267828226 9.681281633675098,19.758170936256647 9.717785753309727,19.691998604685068 
C 9.752056561410427,19.622569903731346 9.786326438188553,19.553141202777624 9.820597246289253,19.483712501823902 
C 9.852021932601929,19.41279787570238 9.883446618914604,19.341882318258286 9.91487130522728,19.270967692136765 
C 9.942993521690369,19.200271926820278 9.971115738153458,19.129575230181217 9.999237954616547,19.05887946486473 
C 10.025170631706715,18.98618135601282 10.051102377474308,18.913484178483486 10.077035054564476,18.840786069631577 
C 10.10062638670206,18.766908906400204 10.12421865016222,18.693032674491405 10.147809982299805,18.619155511260033 
C 10.168902575969696,18.544815480709076 10.189994238317013,18.47047545015812 10.211086831986904,18.396135419607162 
C 10.229692794382572,18.322061747312546 10.24829875677824,18.247987143695354 10.266904719173908,18.173913471400738 
C 10.284005664288998,18.096054904162884 10.301105678081512,18.018195405602455 10.318206623196602,17.9403368383646 
C 10.32163668423891,17.923414707183838 10.32506674528122,17.9064916446805 10.328496806323528,17.889569513499737 
C 10.27125958353281,17.82847475260496 10.214023292064667,17.76737906038761 10.156786069273949,17.706284299492836 
C 10.098711587488651,17.645999789237976 10.04063617438078,17.585715278983116 9.982561692595482,17.525430768728256 
C 9.925326332449913,17.468063160777092 9.868091903626919,17.410694621503353 9.81085654348135,17.35332701355219 
C 9.750470519065857,17.29535683989525 9.690084494650364,17.237385734915733 9.629698470234871,17.179415561258793 
C 9.570028632879257,17.12353527545929 9.510359726846218,17.067654989659786 9.450689889490604,17.011774703860283 
C 9.370086714625359,17.028999514877796 9.289483539760113,17.046223394572735 9.208880364894867,17.063448205590248 
C 9.134785272181034,17.081623896956444 9.060691110789776,17.099798657000065 8.986596018075943,17.11797434836626 
C 8.899174630641937,17.142482101917267 8.811753243207932,17.166990786790848 8.724331855773926,17.191498540341854 
C 8.642680943012238,17.21765659749508 8.56103003025055,17.24381372332573 8.479379117488861,17.269971780478954 
C 8.403527550399303,17.29740761220455 8.327675983309746,17.32484344393015 8.251824416220188,17.352279275655746 
C 8.18171538412571,17.38056354224682 8.111607283353806,17.408848740160465 8.041498251259327,17.437133006751537 
C 7.964912801980972,17.471687868237495 7.888327352702618,17.506242729723454 7.811741903424263,17.54079759120941 
C 7.743290159851313,17.575391568243504 7.674837950617075,17.60998647660017 7.606386207044125,17.644580453634262 
C 7.536572869867086,17.68412534147501 7.4667599983513355,17.723671160638332 7.396946661174297,17.76321604847908 
C 7.329978980123997,17.80617982149124 7.263011299073696,17.849142663180828 7.1960436180233955,17.89210643619299 
C 7.130750920623541,17.9402818903327 7.065457757562399,17.988456413149834 7.000165060162544,18.036631867289543 
C 6.940443068742752,18.089129589498043 6.88072107732296,18.14162638038397 6.820999085903168,18.19412410259247 
C 6.773589178919792,18.263136968016624 6.726178806275129,18.332150764763355 6.678768899291754,18.40116363018751 
C 6.6313669085502625,18.47014483064413 6.583964917808771,18.539125099778175 6.53656292706728,18.608106300234795 
C 6.489161401987076,18.677087500691414 6.441759876906872,18.746068701148033 6.394358351826668,18.815049901604652 
C 6.346924230456352,18.8840227201581 6.299490109086037,18.952994607388973 6.252055987715721,19.02196742594242 
C 6.19473634287715,19.078765995800495 6.137416232377291,19.13556456565857 6.080096587538719,19.192363135516644 
C 6.018141284584999,19.236325286328793 5.956185981631279,19.280286505818367 5.894230678677559,19.324248656630516 
C 5.825194995850325,19.356513395905495 5.756159778684378,19.388778135180473 5.687124095857143,19.421042874455452 
C 5.609698593616486,19.434391520917416 5.532273091375828,19.447739236056805 5.45484758913517,19.46108788251877 
C 5.403902381658554,19.45326942950487 5.3529576398432255,19.4454500451684 5.30201243236661,19.437631592154503 
C 5.229208618402481,19.396383315324783 5.156404804438353,19.35513596981764 5.083600990474224,19.31388769298792 
C 5.010765045881271,19.272631034255028 4.937928635627031,19.231373444199562 4.865092691034079,19.19011678546667 
C 4.792256746441126,19.148859195411205 4.719420801848173,19.107602536678314 4.64658485725522,19.06634494662285 
C 4.573748912662268,19.025088287889957 4.500912502408028,18.983831629157066 4.428076557815075,18.942574970424175 
C 4.35683922842145,18.898571841418743 4.285601433366537,18.85456871241331 4.214364103972912,18.81056558340788 
C 4.166342783719301,18.749592825770378 4.118321929126978,18.688620068132877 4.070300608873367,18.627647310495377 
C 4.048401955515146,18.5504499822855 4.026502836495638,18.473252654075623 4.004604183137417,18.396055325865746 
C 4.0023187175393105,18.316106870770454 4.000033251941204,18.236159346997738 3.9977477863430977,18.156210891902447 
C 4.009253345429897,18.076438456773758 4.02075843885541,17.996665090322495 4.032263997942209,17.916892655193806 
C 4.067941568791866,17.841181717813015 4.103619605302811,17.765470780432224 4.139297176152468,17.689759843051434 
C 4.174974747002125,17.61404797434807 4.210652783513069,17.538337036967278 4.246330354362726,17.462625168263912 
C 4.282016772776842,17.38688163459301 4.317702725529671,17.311139032244682 4.353389143943787,17.23539549857378 
C 4.3922290205955505,17.15290453284979 4.431069362908602,17.070414498448372 4.469909239560366,16.98792353272438 
C 4.490345250815153,16.915133222937584 4.510780796408653,16.842342913150787 4.531216807663441,16.76955260336399 
C 4.543578252196312,16.694185324013233 4.555939231067896,16.618818044662476 4.568300675600767,16.543450765311718 
C 4.575183615088463,16.466890461742878 4.582067020237446,16.390331089496613 4.5889499597251415,16.313770785927773 
C 4.591319710016251,16.23731292784214 4.59368946030736,16.160856001079082 4.596059210598469,16.08439814299345 
C 4.5945970341563225,16.00884646177292 4.5931353233754635,15.933294780552387 4.591673146933317,15.857743099331856 
C 4.586633760482073,15.780474059283733 4.581594839692116,15.703204087913036 4.576555453240871,15.625935047864914 
C 4.568295087665319,15.54883737117052 4.560035187751055,15.471740625798702 4.551774822175503,15.394642949104309 
C 4.54079220071435,15.319335274398327 4.529809579253197,15.24402666836977 4.518826957792044,15.168718993663788 
C 4.504967946559191,15.092813409864902 4.4911084696650505,15.016906894743443 4.477249458432198,14.941001310944557 
C 4.460727330297232,14.86524473875761 4.444205667823553,14.789488166570663 4.427683539688587,14.713731594383717 
C 4.408770706504583,14.638783410191536 4.389858338981867,14.56383615732193 4.370945505797863,14.48888797312975 
C 4.3500191532075405,14.415401965379715 4.329092800617218,14.34191595762968 4.3081664480268955,14.268429949879646 
C 4.284071736037731,14.192473143339157 4.259977024048567,14.116516336798668 4.2358823120594025,14.040559530258179 
Z"/></g>

		<g transform="translate(13.670237734912929 27.152862399816513)">
			<path style="fill:none;stroke:#000000;stroke-width:1px;stroke-linecap:butt;stroke-linejoin:miter;stroke-opacity:1"
				d="M -1.9499980844557285,27.340320870280486
C -1.9499980844557285,26.263677747920156 -1.0766431223601103,25.390322785824537 -1.1084455789249026e-13,25.390322785824537 
C 1.0766431223601103,25.390322785824537 1.9499980844557285,26.263677747920156 1.9499980844557285,27.340320870280046 
C 1.9499980844557285,28.416963992640376 1.0766431223601103,29.290318954735994 1.1084455789249026e-13,29.290318954735994 
C -1.0766431223601103,29.290318954735994 -1.9499980844557285,28.416963992640376 -1.9499980844557285,27.340320870280486 
Z"/></g>
</svg>