<?xml version="1.0" standalone="no"?>
<!DOCTYPE svg PUBLIC "-//W3C//DTD SVG 20010904//EN" "http://www.w3.org/TR/2001/REC-SVG-20010904/DTD/svg10.dtd">

<svg width="16.033031046390533mm" height="16.033058986067772mm"  viewBox="0 0 16.033031046390533 16.033058986067772" xmlns="http://www.w3.org/2000/svg">
<title>Bezier Curve : Head_Plate</title>
	<desc>This is an exported Bezier xml_path from Blender, using the ExportScript by maybites.ch</desc>
		<g transform="translate(-13.985889439936727 32.8058460727334)">
			<path style="fill:none;stroke:#000000;stroke-width:1px;stroke-linecap:butt;stroke-linejoin:miter;stroke-opacity:1"
				d="M 20.50240896642208,16.033653150429927
C 20.50243318080902,15.205465606413782 21.174263209104538,14.533672132529318 22.0024511218071,14.533696579746902 
C 22.83063717186451,14.533721026964486 23.502428084611893,15.205553267151117 23.502403870224953,16.03374008971059 
C 23.502379655838013,16.861927637364715 22.830549627542496,17.533720936626196 22.002361714839935,17.533696605823934 
C 21.174175664782524,17.533672275021672 20.50238475203514,16.86183997662738 20.50240896642208,16.033653150429927 
Z"/></g>

		<g transform="translate(-13.985889439936727 32.8058460727334)">
			<path style="fill:none;stroke:#000000;stroke-width:1px;stroke-linecap:butt;stroke-linejoin:miter;stroke-opacity:1"
				d="M 13.98589089512825,16.033464456825186
C 13.986020348966122,11.607338674366474 17.576519399881363,8.017037063837051 22.00264483690262,8.017166517674923 
C 26.428766548633575,8.017295971512794 30.01905232667923,11.607806663960218 30.018921941518784,16.03392909100876 
C 30.018791556358337,20.460055209696293 26.42829343676567,24.05035588890314 22.002167999744415,24.050225503742695 
C 17.57604628801346,24.05009511858225 13.985761441290379,20.45958722010255 13.98589089512825,16.033464456825186 
Z"/></g>

		<g transform="translate(-13.985889439936727 32.8058460727334)">
			<path style="fill:none;stroke:#000000;stroke-width:1px;stroke-linecap:butt;stroke-linejoin:miter;stroke-opacity:1"
				d="M 17.029378563165665,18.90468643978238
C 16.824478283524513,18.54976383037865 16.94617234170437,18.095644423738122 17.30109564960003,17.890743794851005 
C 17.65601709485054,17.685843631625175 18.110135570168495,17.807539668865502 18.315035849809647,18.16246146336198 
C 18.519936129450798,18.517383839935064 18.398242071270943,18.971503246575594 18.04332062602043,19.176403991878033 
C 17.68839918076992,19.38130473718047 17.234278842806816,19.259608816355467 17.029378563165665,18.90468643978238 
Z"/></g>

		<g transform="translate(-13.985889439936727 32.8058460727334)">
			<path style="fill:none;stroke:#000000;stroke-width:1px;stroke-linecap:butt;stroke-linejoin:miter;stroke-opacity:1"
				d="M 17.029544338583946,13.162418734282255
C 17.23446696996689,12.807508232071996 17.68859289586544,12.685839785262942 18.043503165245056,12.890761718153954 
C 18.398413434624672,13.095683185383677 18.52007955312729,13.549808412790298 18.315158784389496,13.904718216508627 
C 18.110238015651703,14.259628485888243 17.65611208975315,14.381298213265836 17.301201820373535,14.176377095282078 
C 16.94629155099392,13.971455860882998 16.824623569846153,13.517329236492515 17.029544338583946,13.162418734282255 
Z"/></g>
</svg>