<?xml version="1.0" standalone="no"?>
<!DOCTYPE svg PUBLIC "-//W3C//DTD SVG 20010904//EN" "http://www.w3.org/TR/2001/REC-SVG-20010904/DTD/svg10.dtd">

<svg width="80.00002801418304mm" height="140.00001549720764mm"  viewBox="0 0 80.00002801418304 140.00001549720764" xmlns="http://www.w3.org/2000/svg">
<title>Bezier Curve : DriverBase</title>
	<desc>This is an exported Bezier xml_path from Blender, using the ExportScript by maybites.ch</desc>
		<g transform="translate(40.00001400709152 -70.00000029802322)">
			<path style="fill:none;stroke:#000000;stroke-width:1px;stroke-linecap:butt;stroke-linejoin:miter;stroke-opacity:1"
				d="M 4.00000112131238,143.0000141263008
C 3.166667651385069,143.00001435913146 2.333334181457758,143.0000145919621 1.5000004786998034,143.00001482479274 
C 1.5000005951151252,144.00001522153616 1.5000008279457688,145.00001538544893 1.5000009443610907,146.000016015023 
C 2.0000010263174772,146.000016015023 2.50000087544322,146.0000155493617 3.0000009573996067,146.0000155493617 
C 3.000000724568963,146.33334893733263 3.0000002589076757,146.66668232530355 3.000000026077032,147.00001571327448 
C 2.86666676402092,147.00001571327448 2.7333335019648075,147.00001571327448 2.600000239908695,147.00001571327448 
C 2.600000938400626,148.00001587718725 2.600001869723201,149.00001604110003 2.6000025682151318,150.0000162050128 
C 2.4000017438083887,150.0000162050128 2.2000009194016457,150.0000162050128 2.0000000949949026,150.0000162050128 
C 2.0000000949949026,156.3333496451378 2.0000000949949026,162.66668401658535 2.0000000949949026,169.0000183880329 
C 0.6666666595265269,169.0000183880329 -0.6666666595265269,169.0000183880329 -2.0000000949949026,169.0000183880329 
C -2.0000000949949026,162.66668401658535 -2.0000000949949026,156.3333496451378 -2.0000000949949026,150.0000162050128 
C -2.1999990567564964,150.0000162050128 -2.3999980185180902,150.0000162050128 -2.599996980279684,150.0000162050128 
C -2.5999981444329023,149.00001604110003 -2.599999075755477,148.00001587718725 -2.600000239908695,147.00001571327448 
C -2.7333335019648075,147.00001571327448 -2.86666676402092,147.00001571327448 -3.000000026077032,147.00001571327448 
C -2.9999997932463884,146.66668232530355 -2.999999327585101,146.33334893733263 -2.9999990947544575,146.0000155493617 
C -2.499999012798071,146.0000155493617 -1.999999163672328,146.0000155493617 -1.4999990817159414,146.0000155493617 
C -1.4999991981312633,145.00001585111022 -1.499999430961907,144.00001615285873 -1.4999995473772287,143.0000162217766 
C -2.333332784473896,143.00001645460725 -3.1666660215705633,143.0000166874379 -3.9999992586672306,143.00001692026854 
C -3.999999724328518,141.000016592443 -3.999999724328518,139.00001626461744 -4.000000189989805,137.0000159367919 
C -3.1666667200624943,137.0000159367919 -2.333333482965827,137.00001570396125 -1.500000013038516,137.00001570396125 
C -1.500000013038516,136.00001530721784 -1.500000013038516,135.00001514330506 -1.500000013038516,134.0000149793923 
C -2.0000000949949026,134.0000149793923 -2.4999999441206455,134.00001544505358 -3.000000026077032,134.00001544505358 
C -3.000000026077032,125.00001583248377 -3.000000026077032,116.00001528859138 -3.000000026077032,107.00001567602158 
C -0.9999999310821295,107.00001567602158 0.9999999310821295,107.00001567602158 3.000000026077032,107.00001567602158 
C 3.000000026077032,116.00001528859138 3.000000026077032,125.00001583248377 3.000000026077032,134.00001544505358 
C 2.4999999441206455,134.00001544505358 2.0000000949949026,134.00001544505358 1.500000013038516,134.00001544505358 
C 1.500000013038516,135.00001560896635 1.500000013038516,136.00001530721784 1.500000013038516,137.00001523829997 
C 2.333333482965827,137.00001523829997 3.1666667200624943,137.00001500546932 4.000000189989805,137.00001500546932 
C 4.0000006556510925,139.00001486763358 4.0000006556510925,141.00001426413655 4.00000112131238,143.0000141263008 
Z"/></g>

		<g transform="translate(40.00001400709152 -70.00000029802322)">
			<path style="fill:none;stroke:#000000;stroke-width:1px;stroke-linecap:butt;stroke-linejoin:miter;stroke-opacity:1"
				d="M 40.00001400709152,210.00000089406967
C 21.00001461803913,210.00000834465027 2.00001522898674,210.00000834465027 -16.99998416006565,210.00001579523087 
C -18.333323299884796,203.33334803581238 -19.666660577058792,196.6666802763939 -20.999999716877937,190.0000125169754 
C -23.666666820645332,183.33334475755692 -26.333332061767578,176.66668072342873 -28.999999165534973,170.0000148266554 
C -32.66666457056999,163.66668045520782 -36.33333370089531,157.3333479464054 -39.99999910593033,151.000015437603 
C -39.984188973903656,133.81696119904518 -39.96838256716728,116.63391068577766 -39.95257243514061,99.45085644721985 
C -35.9971858561039,96.48025035858154 -29.837127774953842,91.65941923856735 -28.500007465481758,90.63655138015747 
C -27.18443050980568,89.63016420602798 -26.573745533823967,87.97293901443481 -27.401933446526527,86.53848245739937 
C -28.230126947164536,85.10401472449303 -30.03615140914917,84.66535061597824 -31.500011682510376,85.44039726257324 
C -32.788462936878204,86.12257242202759 -36.78055480122566,88.33525329828262 -39.93702307343483,90.29984846711159 
C -39.95801880955696,83.53324234485626 -39.97901827096939,76.76663994789124 -40.00001400709152,70.00003010034561 
C -13.33334669470787,70.00002264976501 13.333316892385483,70.00000774860382 39.999984204769135,70.00000029802322 
C 39.98418152332306,106.84972628951073 39.96838256716728,143.69944855570793 39.95257988572121,180.54917454719543 
C 35.997193306684494,183.51978063583374 29.83713150024414,188.34061175584793 28.500011190772057,189.3634796142578 
C 27.184434235095978,190.3698667883873 26.573749259114265,192.02709197998047 27.401937171816826,193.46154108643532 
C 28.230134397745132,194.89600509405136 30.036156997084618,195.33468037843704 31.500011682510376,194.55963373184204 
C 32.7884666621685,193.8774548470974 36.78056225180626,191.66477769613266 39.93703052401543,189.7001750767231 
C 39.95802626013756,196.46678492426872 39.97901827096939,203.23339104652405 40.00001400709152,210.00000089406967 
Z"/></g>
</svg>