<?xml version="1.0" standalone="no"?>
<!DOCTYPE svg PUBLIC "-//W3C//DTD SVG 20010904//EN" "http://www.w3.org/TR/2001/REC-SVG-20010904/DTD/svg10.dtd">

<svg width="79.99999821186066mm" height="149.99999850988388mm"  viewBox="0 0 79.99999821186066 149.99999850988388" xmlns="http://www.w3.org/2000/svg">
<title>Bezier Curve : MirrorBase</title>
	<desc>This is an exported Bezier xml_path from Blender, using the ExportScript by maybites.ch</desc>
		<g transform="translate(39.99999910593033 -429.9999922513962)">
			<path style="fill:none;stroke:#000000;stroke-width:1px;stroke-linecap:butt;stroke-linejoin:miter;stroke-opacity:1"
				d="M -39.99999910593033,259.99999791383743
C -39.99999910593033,209.99999344348907 -39.99999910593033,160.0000038743019 -39.99999910593033,109.99999940395355 
C -13.333331793546677,109.99999940395355 13.333331793546677,109.99999940395355 39.99999910593033,109.99999940395355 
C 39.99999910593033,160.0000038743019 39.99999910593033,229.99999672174454 39.99999910593033,259.99999791383743 
C 13.333331793546677,259.99999791383743 -13.333331793546677,259.99999791383743 -39.99999910593033,259.99999791383743 
Z"/></g>

		<g transform="translate(39.99999910593033 -429.9999922513962)">
			<path style="fill:none;stroke:#000000;stroke-width:1px;stroke-linecap:butt;stroke-linejoin:miter;stroke-opacity:1"
				d="M -29.059993103146553,155.0000086426735
C -29.059993103146553,155.51900770515203 -29.48099561035633,155.94001207500696 -29.999995604157448,155.9400111436844 
C -30.518991872668266,155.9400102123618 -30.939992517232895,155.51900584250689 -30.939990654587746,155.0000086426735 
C -30.939988791942596,154.4810114428401 -30.518988147377968,154.0600098669529 -29.99999187886715,154.0600098669529 
C -29.48099561035633,154.0600098669529 -29.059993103146553,154.4810114428401 -29.059993103146553,155.0000086426735 
Z"/></g>

		<g transform="translate(39.99999910593033 -429.9999922513962)">
			<path style="fill:none;stroke:#000000;stroke-width:1px;stroke-linecap:butt;stroke-linejoin:miter;stroke-opacity:1"
				d="M -5.000011995434761,120.94000726938248
C -5.519011057913303,120.94000726938248 -5.94001542776823,120.5190047621727 -5.940014496445656,120.00000476837158 
C -5.940013565123081,119.48100849986076 -5.519009195268154,119.06000785529613 -5.000011995434761,119.06000971794128 
C -4.481014795601368,119.06001158058643 -4.060013219714165,119.48101222515106 -4.060013219714165,120.00000849366188 
C -4.060013219714165,120.5190047621727 -4.481014795601368,120.94000726938248 -5.000011995434761,120.94000726938248 
Z"/></g>

		<g transform="translate(39.99999910593033 -429.9999922513962)">
			<path style="fill:none;stroke:#000000;stroke-width:1px;stroke-linecap:butt;stroke-linejoin:miter;stroke-opacity:1"
				d="M 29.059989377856255,144.99998465180397
C 29.059989377856255,144.48098558932543 29.480991885066032,144.0599812194705 29.99999187886715,144.05998215079308 
C 30.518988147377968,144.05998308211565 30.939988791942596,144.48098745197058 30.939986929297447,144.99998465180397 
C 30.939985066652298,145.51898185163736 30.51898442208767,145.93998342752457 29.99998815357685,145.93998342752457 
C 29.480991885066032,145.93998342752457 29.059989377856255,145.51898185163736 29.059989377856255,144.99998465180397 
Z"/></g>

		<g transform="translate(39.99999910593033 -429.9999922513962)">
			<path style="fill:none;stroke:#000000;stroke-width:1px;stroke-linecap:butt;stroke-linejoin:miter;stroke-opacity:1"
				d="M 5.0000157207250595,179.059986025095
C 5.519014783203602,179.059986025095 5.940019153058529,179.48098853230476 5.940018221735954,179.99998852610588 
C 5.94001729041338,180.5189847946167 5.519012920558453,180.93998543918133 5.0000157207250595,180.93998357653618 
C 4.481018520891666,180.93998171389103 4.060016945004463,180.5189810693264 4.060016945004463,179.99998480081558 
C 4.060016945004463,179.48098853230476 4.481018520891666,179.059986025095 5.0000157207250595,179.059986025095 
Z"/></g>

		<g transform="translate(39.99999910593033 -429.9999922513962)">
			<path style="fill:none;stroke:#000000;stroke-width:1px;stroke-linecap:butt;stroke-linejoin:miter;stroke-opacity:1"
				d="M 27.000000700354576,249.9999701976776
C 27.000000700354576,238.66663873195648 27.000000700354576,227.33331471681595 27.000000700354576,215.99998325109482 
C 29.000001028180122,215.99998325109482 30.99999949336052,215.99998325109482 32.999999821186066,215.99998325109482 
C 32.999999821186066,227.33331471681595 32.999999821186066,238.66663873195648 32.999999821186066,249.9999701976776 
C 30.99999949336052,249.9999701976776 29.000001028180122,249.9999701976776 27.000000700354576,249.9999701976776 
Z"/></g>

		<g transform="translate(39.99999910593033 -429.9999922513962)">
			<path style="fill:none;stroke:#000000;stroke-width:1px;stroke-linecap:butt;stroke-linejoin:miter;stroke-opacity:1"
				d="M 27.000000700354576,141.99998788535595
C 27.000000700354576,133.99998284876347 27.000000700354576,125.99997967481613 27.000000700354576,117.99997463822365 
C 29.000001028180122,117.99997463822365 30.99999949336052,117.99997463822365 32.999999821186066,117.99997463822365 
C 32.999999821186066,125.99997967481613 32.999999821186066,133.99998284876347 32.999999821186066,141.99998788535595 
C 30.99999949336052,141.99998788535595 29.000001028180122,141.99998788535595 27.000000700354576,141.99998788535595 
Z"/></g>

		<g transform="translate(39.99999910593033 -429.9999922513962)">
			<path style="fill:none;stroke:#000000;stroke-width:1px;stroke-linecap:butt;stroke-linejoin:miter;stroke-opacity:1"
				d="M -32.999999821186066,141.99998788535595
C -32.999999821186066,133.99998284876347 -32.999999821186066,125.99997967481613 -32.999999821186066,117.99997463822365 
C -30.99999949336052,117.99997463822365 -28.999999165534973,117.99997463822365 -26.999998837709427,117.99997463822365 
C -26.999998837709427,125.99997967481613 -26.999998837709427,133.99998284876347 -26.999998837709427,141.99998788535595 
C -28.999999165534973,141.99998788535595 -30.99999949336052,141.99998788535595 -32.999999821186066,141.99998788535595 
Z"/></g>

		<g transform="translate(39.99999910593033 -429.9999922513962)">
			<path style="fill:none;stroke:#000000;stroke-width:1px;stroke-linecap:butt;stroke-linejoin:miter;stroke-opacity:1"
				d="M -32.999999821186066,249.9999701976776
C -32.999999821186066,238.66663873195648 -32.999999821186066,227.33331471681595 -32.999999821186066,215.99998325109482 
C -30.99999949336052,215.99998325109482 -28.999999165534973,215.99998325109482 -26.999998837709427,215.99998325109482 
C -26.999998837709427,227.33331471681595 -26.999998837709427,238.66663873195648 -26.999998837709427,249.9999701976776 
C -28.999999165534973,249.9999701976776 -30.99999949336052,249.9999701976776 -32.999999821186066,249.9999701976776 
Z"/></g>

		<g transform="translate(39.99999910593033 -429.9999922513962)">
			<path style="fill:none;stroke:#000000;stroke-width:1px;stroke-linecap:butt;stroke-linejoin:miter;stroke-opacity:1"
				d="M 27.000000700354576,203.99997383356094
C 27.000000700354576,202.66664400696754 27.000000700354576,201.33331045508385 27.000000700354576,199.99998062849045 
C 27.000000700354576,197.9999765753746 28.00000086426735,196.99998944997787 30.000001192092896,196.99998199939728 
C 32.00000151991844,196.99998944997787 32.999999821186066,197.9999765753746 32.999999821186066,199.99998062849045 
C 32.999999821186066,201.33331045508385 32.999999821186066,202.66664400696754 32.999999821186066,203.99997383356094 
C 32.999999821186066,205.9999741613865 32.00000151991844,206.9999799132347 30.000001192092896,206.9999799132347 
C 28.00000086426735,206.9999799132347 27.000000700354576,205.9999741613865 27.000000700354576,203.99997383356094 
Z"/></g>

		<g transform="translate(39.99999910593033 -429.9999922513962)">
			<path style="fill:none;stroke:#000000;stroke-width:1px;stroke-linecap:butt;stroke-linejoin:miter;stroke-opacity:1"
				d="M -32.999999821186066,203.99997383356094
C -32.999999821186066,202.66664400696754 -32.999999821186066,201.33331045508385 -32.999999821186066,199.99998062849045 
C -32.999999821186066,197.9999765753746 -31.999997794628143,196.99998944997787 -29.999997466802597,196.99998199939728 
C -27.99999713897705,196.99998944997787 -26.999998837709427,197.9999765753746 -26.999998837709427,199.99998062849045 
C -26.999998837709427,201.33331045508385 -26.999998837709427,202.66664400696754 -26.999998837709427,203.99997383356094 
C -26.999998837709427,205.9999741613865 -27.99999713897705,206.9999799132347 -29.999997466802597,206.9999799132347 
C -31.999997794628143,206.9999799132347 -32.999999821186066,205.9999741613865 -32.999999821186066,203.99997383356094 
Z"/></g>

		<g transform="translate(39.99999910593033 -429.9999922513962)">
			<path style="fill:none;stroke:#000000;stroke-width:1px;stroke-linecap:butt;stroke-linejoin:miter;stroke-opacity:1"
				d="M 4.00000112131238,152.99996733665466
C 3.166667651385069,152.9999675694853 2.333334181457758,152.99996780231595 1.5000004786998034,152.9999680351466 
C 1.5000005951151252,153.99996843189 1.5000008279457688,154.99996859580278 1.5000009443610907,155.99996922537684 
C 2.0000010263174772,155.99996922537684 2.50000087544322,155.99996875971556 3.0000009573996067,155.99996875971556 
C 3.000000724568963,156.33330214768648 3.0000002589076757,156.6666355356574 3.000000026077032,156.99996892362833 
C 2.86666676402092,156.99996892362833 2.7333335019648075,156.99996892362833 2.600000239908695,156.99996892362833 
C 2.600000938400626,157.9999690875411 2.600001869723201,158.99996925145388 2.6000025682151318,159.99996941536665 
C 2.4000017438083887,159.99996941536665 2.2000009194016457,159.99996941536665 2.0000000949949026,159.99996941536665 
C 2.0000000949949026,166.33330285549164 2.0000000949949026,172.6666372269392 2.0000000949949026,178.99997159838676 
C 0.6666666595265269,178.99997159838676 -0.6666666595265269,178.99997159838676 -2.0000000949949026,178.99997159838676 
C -2.0000000949949026,172.6666372269392 -2.0000000949949026,166.33330285549164 -2.0000000949949026,159.99996941536665 
C -2.1999990567564964,159.99996941536665 -2.3999980185180902,159.99996941536665 -2.599996980279684,159.99996941536665 
C -2.5999981444329023,158.99996925145388 -2.599999075755477,157.9999690875411 -2.600000239908695,156.99996892362833 
C -2.7333335019648075,156.99996892362833 -2.86666676402092,156.99996892362833 -3.000000026077032,156.99996892362833 
C -2.9999997932463884,156.6666355356574 -2.999999327585101,156.33330214768648 -2.9999990947544575,155.99996875971556 
C -2.499999012798071,155.99996875971556 -1.999999163672328,155.99996875971556 -1.4999990817159414,155.99996875971556 
C -1.4999991981312633,154.99996906146407 -1.499999430961907,153.99996936321259 -1.4999995473772287,152.99996943213046 
C -2.333332784473896,152.9999696649611 -3.1666660215705633,152.99996989779174 -3.9999992586672306,152.9999701306224 
C -3.999999724328518,150.99996980279684 -3.999999724328518,148.9999694749713 -4.000000189989805,146.99996914714575 
C -3.1666667200624943,146.99996914714575 -2.333333482965827,146.9999689143151 -1.500000013038516,146.9999689143151 
C -1.500000013038516,145.9999685175717 -1.500000013038516,144.99996835365891 -1.500000013038516,143.99996818974614 
C -2.0000000949949026,143.99996818974614 -2.4999999441206455,143.99996865540743 -3.000000026077032,143.99996865540743 
C -3.000000026077032,134.99996904283762 -3.000000026077032,125.99996849894524 -3.000000026077032,116.99996888637543 
C -0.9999999310821295,116.99996888637543 0.9999999310821295,116.99996888637543 3.000000026077032,116.99996888637543 
C 3.000000026077032,125.99996849894524 3.000000026077032,134.99996904283762 3.000000026077032,143.99996865540743 
C 2.4999999441206455,143.99996865540743 2.0000000949949026,143.99996865540743 1.500000013038516,143.99996865540743 
C 1.500000013038516,144.9999688193202 1.500000013038516,145.9999685175717 1.500000013038516,146.99996844865382 
C 2.333333482965827,146.99996844865382 3.1666667200624943,146.99996821582317 4.000000189989805,146.99996821582317 
C 4.0000006556510925,148.99996807798743 4.0000006556510925,150.9999674744904 4.00000112131238,152.99996733665466 
Z"/></g>
</svg>