<?xml version="1.0" standalone="no"?>
<!DOCTYPE svg PUBLIC "-//W3C//DTD SVG 20010904//EN" "http://www.w3.org/TR/2001/REC-SVG-20010904/DTD/svg10.dtd">

<svg width="90.00000357627869mm" height="79.99999821186066mm"  viewBox="0 0 90.00000357627869 79.99999821186066" xmlns="http://www.w3.org/2000/svg">
<title>Bezier Curve : MotorFlansch</title>
	<desc>This is an exported Bezier xml_path from Blender, using the ExportScript by maybites.ch</desc>
		<g transform="translate(-261.51105761528015 49.99998211860657)">
			<path style="fill:none;stroke:#000000;stroke-width:1px;stroke-linecap:butt;stroke-linejoin:miter;stroke-opacity:1"
				d="M -11.149972677230835,87.40242989733815
C -11.149972677230835,82.46747497469187 -11.149972677230835,77.53252051770687 -11.149972677230835,72.59756559506059 
C -10.650214739143848,71.78965304046869 -10.24058647453785,71.29011861979961 -9.475232101976871,70.52476424723864 
C -4.243716131895781,65.29324874281883 4.243719857186079,65.29324688017368 9.47523396462202,70.52476610988379 
C 10.462156496942043,71.51168957352638 10.682092048227787,71.70528545975685 11.150023899972439,72.59756652638316 
C 11.150023899972439,77.53252144902945 11.150022968649864,82.46747590601444 11.150022968649864,87.40243082866073 
C 10.775670409202576,88.07788789272308 10.48930548131466,88.46115879714489 9.475232101976871,89.47523217648268 
C 4.243715666234493,94.70674861222506 -4.243716131895781,94.70674768090248 -9.47523396462202,89.47523031383753 
C -10.086771100759506,88.86369317770004 -10.640466585755348,88.20709027349949 -11.149972677230835,87.40242989733815 
Z"/></g>

		<g transform="translate(-261.51105761528015 49.99998211860657)">
			<path style="fill:none;stroke:#000000;stroke-width:1px;stroke-linecap:butt;stroke-linejoin:miter;stroke-opacity:1"
				d="M -44.244468212127686,40.000006556510925
C -14.24446702003479,40.000006556510925 15.755534172058105,40.000006556510925 45.755535364151,40.000006556510925 
C 45.755535364151,66.66667386889458 45.755535364151,93.33333745598793 45.755535364151,120.00000476837158 
C 15.755534172058105,120.00000476837158 -14.24446702003479,120.00000476837158 -44.244468212127686,120.00000476837158 
C -44.244468212127686,93.33333745598793 -44.244468212127686,66.66667386889458 -44.244468212127686,40.000006556510925 
Z"/></g>

		<g transform="translate(-261.51105761528015 49.99998211860657)">
			<path style="fill:none;stroke:#000000;stroke-width:1px;stroke-linecap:butt;stroke-linejoin:miter;stroke-opacity:1"
				d="M -35.99612042307854,110.0329291075468
C -35.99612042307854,108.92867855727673 -35.10037064552307,108.03293064236641 -33.99612009525299,108.03293064236641 
C -32.89186954498291,108.03293064236641 -31.996123492717743,108.92868041992188 -31.996123492717743,110.0329291075468 
C -31.996123492717743,111.13717779517174 -32.89186954498291,112.0329275727272 -33.99612009525299,112.0329275727272 
C -35.10037064552307,112.0329275727272 -35.99612042307854,111.13717965781689 -35.99612042307854,110.0329291075468 
Z"/></g>

		<g transform="translate(-261.51105761528015 49.99998211860657)">
			<path style="fill:none;stroke:#000000;stroke-width:1px;stroke-linecap:butt;stroke-linejoin:miter;stroke-opacity:1"
				d="M 34.00387987494469,110.0329291075468
C 34.00387987494469,108.92867855727673 34.89962965250015,108.03293064236641 36.00388020277023,108.03293064236641 
C 37.108130753040314,108.03293064236641 38.00387680530548,108.92868041992188 38.00387680530548,110.0329291075468 
C 38.00387680530548,111.13717779517174 37.108130753040314,112.0329275727272 36.00388020277023,112.0329275727272 
C 34.89962965250015,112.0329275727272 34.00387987494469,111.13717965781689 34.00387987494469,110.0329291075468 
Z"/></g>

		<g transform="translate(-261.51105761528015 49.99998211860657)">
			<path style="fill:none;stroke:#000000;stroke-width:1px;stroke-linecap:butt;stroke-linejoin:miter;stroke-opacity:1"
				d="M 34.00387987494469,50.03293231129646
C 34.00387987494469,48.92868176102638 34.89962965250015,48.03293198347092 36.00388020277023,48.03293198347092 
C 37.108130753040314,48.03293198347092 38.00387680530548,48.92868176102638 38.00387680530548,50.03293231129646 
C 38.00387680530548,51.137180998921394 37.108130753040314,52.03293077647686 36.00388020277023,52.03293077647686 
C 34.89962965250015,52.03293077647686 34.00387987494469,51.137182861566544 34.00387987494469,50.03293231129646 
Z"/></g>

		<g transform="translate(-261.51105761528015 49.99998211860657)">
			<path style="fill:none;stroke:#000000;stroke-width:1px;stroke-linecap:butt;stroke-linejoin:miter;stroke-opacity:1"
				d="M -35.99612042307854,50.03293231129646
C -35.99612042307854,48.92868176102638 -35.10037064552307,48.03293198347092 -33.99612009525299,48.03293198347092 
C -32.89186954498291,48.03293198347092 -31.996123492717743,48.92868176102638 -31.996123492717743,50.03293231129646 
C -31.996123492717743,51.137180998921394 -32.89186954498291,52.03293077647686 -33.99612009525299,52.03293077647686 
C -35.10037064552307,52.03293077647686 -35.99612042307854,51.137182861566544 -35.99612042307854,50.03293231129646 
Z"/></g>
</svg>