<?xml version="1.0" standalone="no"?>
<!DOCTYPE svg PUBLIC "-//W3C//DTD SVG 20010904//EN" "http://www.w3.org/TR/2001/REC-SVG-20010904/DTD/svg10.dtd">

<svg width="29.74924771115184mm" height="140.25282114744186mm"  viewBox="0 0 29.74924771115184 140.25282114744186" xmlns="http://www.w3.org/2000/svg">
<title>Bezier Curve : BaseMirror_AngleBracket.001</title>
	<desc>This is an exported Bezier xml_path from Blender, using the ExportScript by maybites.ch</desc>
		<g transform="translate(-24.222432170063257 -421.8240901827812)">
			<path style="fill:none;stroke:#000000;stroke-width:1px;stroke-linecap:butt;stroke-linejoin:miter;stroke-opacity:1"
				d="M 1.7684036865830421,126.04461889714003
C -0.22398540750145912,126.2189308181405 -2.2163745015859604,126.39324180781841 -4.208763595670462,126.5675537288189 
C -4.731697961688042,120.59038318693638 -5.254632793366909,114.61321450769901 -5.777567159384489,108.6360439658165 
C -3.785178065299988,108.46173390746117 -1.7927892040461302,108.28742012381554 0.199599948246032,108.1131100654602 
C 0.006120841135270894,105.75488954782486 -0.18735825142357498,103.39666903018951 -0.3808373585343361,101.03844851255417 
C 7.736668922007084,101.32348909974098 15.85417427122593,101.6085259616375 23.97168055176735,101.89356654882431 
C 23.774733766913414,107.53338411450386 23.507988080382347,115.17198570072651 23.380840197205544,118.81302297115326 
C 21.81512862443924,118.75833757221699 20.249417051672935,118.70365031063557 18.68370547890663,118.6489649116993 
C 18.706971779465675,117.98270232975483 18.73023994266987,117.31644161045551 18.753506243228912,116.65017902851105 
C 17.32104644179344,116.6001558303833 15.888584777712822,116.5501344949007 14.456124044954777,116.50011129677296 
C 14.339791610836983,119.83141861855984 14.223460108041763,123.16272594034672 14.10712767392397,126.49403233081102 
C 15.539589338004589,126.54404807835817 16.972050070762634,126.5940647572279 18.404511734843254,126.64408050477505 
C 18.427778035402298,125.9778281673789 18.451042473316193,125.31157676130533 18.474308773875237,124.64532442390919 
C 20.04002220928669,124.69999305903912 21.605733782052994,124.75466169416904 23.171447217464447,124.80933032929897 
C 22.088462486863136,155.82190919667482 20.018037408590317,215.11108428239822 19.890889525413513,218.75212341547012 
C 18.32517795264721,218.6974361538887 16.759466379880905,218.64275634288788 15.193754807114601,218.58806908130646 
C 15.215858817100525,217.955119907856 15.237961895763874,217.32216328382492 15.260065905749798,216.68921411037445 
C 13.827605172991753,216.6391909122467 12.395143508911133,216.58917516469955 10.962682776153088,216.5391519665718 
C 10.848676785826683,219.8038324713707 10.734671726822853,223.0685129761696 10.620665736496449,226.33319348096848 
C 12.053127400577068,226.38320922851562 13.485588133335114,226.43321752548218 14.918049797415733,226.48323327302933 
C 14.940152876079082,225.85029155015945 14.962255023419857,225.21735727787018 14.984358102083206,224.5844155550003 
C 16.55007153749466,224.63908791542053 18.115783110260963,224.69375282526016 19.681496545672417,224.7484251856804 
C 19.64549720287323,225.77927261590958 19.365550950169563,233.79583656787872 19.103804603219032,241.29126965999603 
C 16.675790771842003,241.20699614286423 14.247777871787548,241.12272262573242 11.819764040410519,241.03844910860062 
C 11.606915853917599,238.5701760649681 11.394068598747253,236.1019030213356 11.181220412254333,233.6336299777031 
C 9.18883178383112,233.80794376134872 7.196443155407906,233.98225754499435 5.204054061323404,234.15657132863998 
C 4.390600603073835,224.85875338315964 3.57714737765491,215.5609428882599 2.763693919405341,206.26312494277954 
C 4.756082780659199,206.0888111591339 6.7484718747437,205.91449737548828 8.740860968828201,205.74018359184265 
C 8.33413377404213,201.09127461910248 7.869303226470947,195.778239518404 7.520680315792561,191.79345294833183 
C 8.848939090967178,191.6772462427616 10.17719879746437,191.5610358119011 11.505457572638988,191.44482910633087 
C 11.54322549700737,191.87651574611664 11.580993421375751,192.3082023859024 11.618761345744133,192.73988902568817 
C 12.681369669735432,192.64692440629005 13.74397799372673,192.55395606160164 14.806586317718029,192.46099144220352 
C 14.614843763411045,190.2693659067154 14.423101209104061,188.07773664593697 14.231358654797077,185.88611111044884 
C 13.168750330805779,185.97907572984695 12.106142938137054,186.07204407453537 11.043534614145756,186.1650086939335 
C 11.081301607191563,186.59669533371925 11.11906860023737,187.02838197350502 11.156835593283176,187.4600686132908 
C 9.828576818108559,187.576275318861 8.50031804293394,187.69248574972153 7.172059267759323,187.80869245529175 
C 7.084901444613934,186.81247904896736 3.569622291252017,146.6326443478465 1.7684036865830421,126.04461889714003 
Z"/></g>
</svg>