<?xml version="1.0" standalone="no"?>
<!DOCTYPE svg PUBLIC "-//W3C//DTD SVG 20010904//EN" "http://www.w3.org/TR/2001/REC-SVG-20010904/DTD/svg10.dtd">

<svg width="29.000002425163984mm" height="10.000002104789019mm"  viewBox="0 0 29.000002425163984 10.000002104789019" xmlns="http://www.w3.org/2000/svg">
<title>Bezier Curve : Main_Shaft_TorqueStop</title>
	<desc>This is an exported Bezier xml_path from Blender, using the ExportScript by maybites.ch</desc>
		<g transform="translate(1.999999862164259 -5.00000175088644)">
			<path style="fill:none;stroke:#000000;stroke-width:1px;stroke-linecap:butt;stroke-linejoin:miter;stroke-opacity:1"
				d="M 27.000002562999725,14.000000432133675
C 25.00000223517418,14.00000136345625 23.000001907348633,14.000002294778824 21.000001579523087,14.000003226101398 
C 21.000001579523087,14.333336614072323 21.000001579523087,14.666670002043247 21.000001579523087,15.000003390014172 
C 14.666667208075523,15.000002924352884 8.333333767950535,15.000002924352884 1.999999862164259,15.000002458691597 
C 1.999999862164259,14.666669070720673 1.999999862164259,14.333335682749748 1.999999862164259,14.000002294778824 
C 0.6666668923571706,14.000002760440111 -0.6666661938652396,14.000002760440111 -1.999999163672328,14.000003226101398 
C -1.9999993965029716,11.333336122334003 -1.9999996293336153,8.666669018566608 -1.999999862164259,6.000001914799213 
C -0.6666664266958833,6.000001914799213 0.6666668923571706,6.000001914799213 2.0000003278255463,6.000001914799213 
C 2.0000003278255463,5.666668526828289 2.0000003278255463,5.333335138857365 2.0000003278255463,5.00000175088644 
C 8.33333469927311,5.000002216547728 14.666667208075523,5.000002216547728 21.000001579523087,5.000002682209015 
C 21.000001579523087,5.333336070179939 21.000001579523087,5.666669458150864 21.000001579523087,6.000002846121788 
C 23.000001907348633,6.000002846121788 25.00000037252903,6.000003311783075 27.000000700354576,6.000003311783075 
C 27.000000700354576,8.666669251397252 27.000002562999725,11.333334492519498 27.000002562999725,14.000000432133675 
Z"/></g>

		<g transform="translate(1.999999862164259 -5.00000175088644)">
			<path style="fill:none;stroke:#000000;stroke-width:1px;stroke-linecap:butt;stroke-linejoin:miter;stroke-opacity:1"
				d="M 24.000000208616257,8.530003135092556
C 23.188374936580658,8.530003135092556 22.529998794198036,9.18837875360623 22.529998794198036,10.000003370933097 
C 22.529998794198036,10.811628017108887 23.188374936580658,11.470003635622561 24.000000208616257,11.470003635622561 
C 24.811625480651855,11.470003635622561 25.470001623034477,10.811628017108887 25.470001623034477,10.000003370933097 
C 25.470001623034477,9.18837875360623 24.811625480651855,8.530003135092556 24.000000208616257,8.530003135092556 
Z"/></g>
</svg>