<?xml version="1.0" standalone="no"?>
<!DOCTYPE svg PUBLIC "-//W3C//DTD SVG 20010904//EN" "http://www.w3.org/TR/2001/REC-SVG-20010904/DTD/svg10.dtd">

<svg width="35.00000759959221mm" height="18.000010401010513mm"  viewBox="0 0 35.00000759959221 18.000010401010513" xmlns="http://www.w3.org/2000/svg">
<title>Bezier Curve : Head</title>
	<desc>This is an exported Bezier xml_path from Blender, using the ExportScript by maybites.ch</desc>
		<g transform="translate(9.00000479305163 31.82300738990307)">
			<path style="fill:none;stroke:#000000;stroke-width:1px;stroke-linecap:butt;stroke-linejoin:miter;stroke-opacity:1"
				d="M -9.000003337860107,18.000010401010513
C -9.000003337860107,13.030880596488714 -4.969130735844374,8.99999588727951 0.0,9.000005200505257 
C 3.0000293627381325,9.000010788440704 20.551137626171112,13.11182975769043 22.000016644597054,13.500055763870478 
C 23.59994873404503,13.92875611782074 25.999996811151505,15.763938194140792 26.0000042617321,18.00004253273002 
C 26.0000117123127,20.236146869137883 23.59994873404503,22.071356419473886 22.000016644597054,22.500057239085436 
C 20.551128312945366,22.888286039233208 3.000027034431696,27.000009082257748 0.0,27.00001560151577 
C -4.969130735844374,27.000026777386665 -9.000003337860107,22.969140205532312 -9.000003337860107,18.000010401010513 
Z"/></g>

		<g transform="translate(9.00000479305163 31.82300738990307)">
			<path style="fill:none;stroke:#000000;stroke-width:1px;stroke-linecap:butt;stroke-linejoin:miter;stroke-opacity:1"
				d="M 20.02304047346115,18.000590682106576
C 20.023072138428688,16.907731420360506 20.909607410430908,16.021247021853924 22.002466022968292,16.021279152482748 
C 23.095324635505676,16.021311283111572 23.98180402815342,16.907847253605723 23.981772363185883,18.000705405370354 
C 23.981740698218346,19.093564711511135 23.095205426216125,19.980048993602395 22.00234681367874,19.980016630142927 
C 20.909488201141357,19.97998426668346 20.023008808493614,19.093448761850595 20.02304047346115,18.000590682106576 
Z"/></g>

		<g transform="translate(9.00000479305163 31.82300738990307)">
			<path style="fill:none;stroke:#000000;stroke-width:1px;stroke-linecap:butt;stroke-linejoin:miter;stroke-opacity:1"
				d="M 3.3630719408392906,18.707214680034667
C 3.36308591067791,18.235810071928427 3.363099880516529,17.764405492926016 3.3631138503551483,17.293000884819776 
C 4.834518302232027,17.293043551035225 6.305922754108906,17.293086275458336 7.7773272059857845,17.293128941673785 
C 7.777313236147165,17.764533549780026 7.777299731969833,18.235938128782436 7.777285762131214,18.707342736888677 
C 6.305880844593048,18.707300070673227 4.834476858377457,18.707257346250117 3.3630719408392906,18.707214680034667 
Z"/></g>

		<g transform="translate(9.00000479305163 31.82300738990307)">
			<path style="fill:none;stroke:#000000;stroke-width:1px;stroke-linecap:butt;stroke-linejoin:miter;stroke-opacity:1"
				d="M -5.651055801081384e-05,19.950008485466242
C -1.0766995837911963,19.949977286159992 -1.9500292837619781,19.076597061939538 -1.9499980844557285,17.999953890452502 
C -1.949966885149479,16.923310817219317 -1.0765866609290242,16.049981117248535 5.651055801081384e-05,16.050012316554785 
C 1.0766995837911963,16.050043515861034 1.9500292837619781,16.92342374008149 1.9499980844557285,18.000066911568524 
C 1.949966885149479,19.07670998480171 1.0765866609290242,19.95003968477249 -5.651055801081384e-05,19.950008485466242 
Z"/></g>

		<g transform="translate(9.00000479305163 31.82300738990307)">
			<path style="fill:none;stroke:#000000;stroke-width:1px;stroke-linecap:butt;stroke-linejoin:miter;stroke-opacity:1"
				d="M 17.029378563165665,20.871637389063835
C 16.824478283524513,20.51671501249075 16.94617234170437,20.06259560585022 17.30109378695488,19.85769474413246 
C 17.65601709485054,19.6527938824147 18.110135570168495,19.774489803239703 18.315035849809647,20.129412412643433 
C 18.519936129450798,20.484335022047162 18.398242071270943,20.93845442868769 18.043318763375282,21.143354941159487 
C 17.68839731812477,21.348254987969995 17.234278842806816,21.22655906714499 17.029378563165665,20.871637389063835 
Z"/></g>

		<g transform="translate(9.00000479305163 31.82300738990307)">
			<path style="fill:none;stroke:#000000;stroke-width:1px;stroke-linecap:butt;stroke-linejoin:miter;stroke-opacity:1"
				d="M 17.029544338583946,15.129370614886284
C 17.23446510732174,14.77445987984538 17.68859289586544,14.652790036052465 18.043503165245056,14.857711736112833 
C 18.398413434624672,15.062633203342557 18.520081415772438,15.51675982773304 18.315158784389496,15.871670097112656 
C 18.110236153006554,16.226580599322915 17.656110227108,16.348249511793256 17.301199957728386,16.143327578902245 
C 16.94628968834877,15.93840611167252 16.824623569846153,15.484280418604612 17.029544338583946,15.129370614886284 
Z"/></g>
</svg>