<?xml version="1.0" standalone="no"?>
<!DOCTYPE svg PUBLIC "-//W3C//DTD SVG 20010904//EN" "http://www.w3.org/TR/2001/REC-SVG-20010904/DTD/svg10.dtd">

<svg width="118.24341118335724mm" height="20.000062882900238mm"  viewBox="0 0 118.24341118335724 20.000062882900238" xmlns="http://www.w3.org/2000/svg">
<title>Bezier Curve : Lever</title>
	<desc>This is an exported Bezier xml_path from Blender, using the ExportScript by maybites.ch</desc>
		<g transform="translate(10.233722627162933 129.8243273049593)">
			<path style="fill:none;stroke:#000000;stroke-width:1px;stroke-linecap:butt;stroke-linejoin:miter;stroke-opacity:1"
				d="M 76.04797184467316,19.050807983148843
C 76.57208293676376,19.050808157771826 76.99722796678543,19.475955399684608 76.99722796678543,20.000063506995513 
C 76.99722796678543,20.524171297438443 76.57208293676376,20.949317957274616 76.04797184467316,20.949317782651633 
C 75.52386075258255,20.94931760802865 75.09871572256088,20.524170366115868 75.09871572256088,20.000062292360788 
C 75.09871572256088,19.475954526569694 75.52386075258255,19.05080780852586 76.04797184467316,19.050807983148843 
Z"/></g>

		<g transform="translate(10.233722627162933 129.8243273049593)">
			<path style="fill:none;stroke:#000000;stroke-width:1px;stroke-linecap:butt;stroke-linejoin:miter;stroke-opacity:1"
				d="M -0.17560378182679415,10.000063106417656
C 9.824402630329132,10.000068694353104 88.04096281528473,10.000122711062431 98.04096817970276,10.00012643635273 
C 103.06782275438309,10.000128298997879 108.06781053543091,15.000132378190756 108.06781053543091,20.000132020129513 
C 108.06781053543091,25.000133085995913 103.0678078532219,30.000129714608192 98.04095327854156,30.000125989317894 
C 88.04094791412354,30.000118538737297 9.824390523135662,30.000068247318268 -0.1756165875121951,30.00006265938282 
C -4.88966004922986,30.000059865415096 -10.175604373216629,25.521306321024895 -10.17560064792633,20.00005637298008 
C -10.175596922636032,14.478806406259537 -4.889650270342827,10.000060312449932 -0.17560378182679415,10.000063106417656 
Z"/></g>

		<g transform="translate(10.233722627162933 129.8243273049593)">
			<path style="fill:none;stroke:#000000;stroke-width:1px;stroke-linecap:butt;stroke-linejoin:miter;stroke-opacity:1"
				d="M 11.707107536494732,19.29296355228871
C 11.707107536494732,19.76436816039495 11.707106605172157,20.235772739397362 11.707106605172157,20.707177347503603 
C 9.235702455043793,20.707175717689097 6.7642973735928535,20.70717408787459 4.292892757803202,20.707172458060086 
C 4.292893223464489,20.235767849953845 4.292893689125776,19.764363270951435 4.292894154787064,19.292958662845194 
C 6.7642987705767155,19.2929602926597 9.235702455043793,19.292961922474205 11.707107536494732,19.29296355228871 
Z"/></g>

		<g transform="translate(10.233722627162933 129.8243273049593)">
			<path style="fill:none;stroke:#000000;stroke-width:1px;stroke-linecap:butt;stroke-linejoin:miter;stroke-opacity:1"
				d="M 52.07398161292076,15.551975462585688
C 54.53093349933624,15.551982913166285 56.52395635843277,17.54502998664975 56.52395263314247,20.001981247560252 
C 56.52394890785217,22.45892840437591 54.53092232346535,24.451963137835264 52.073974162340164,24.451966863125563 
C 49.617014825344086,24.45197058841586 47.62396216392517,22.458933759480715 47.62396216392517,20.00197555366867 
C 47.62396216392517,17.545012990012765 49.617018550634384,15.55196801200509 52.07398161292076,15.551975462585688 
Z"/></g>

		<g transform="translate(10.233722627162933 129.8243273049593)">
			<path style="fill:none;stroke:#000000;stroke-width:1px;stroke-linecap:butt;stroke-linejoin:miter;stroke-opacity:1"
				d="M 98.0786457657814,15.552031807601452
C 100.53560137748718,15.552027616649866 102.5286540389061,17.545054899528623 102.5286614894867,20.00201067926355 
C 102.52866894006729,22.458975668996572 100.53560882806778,24.452029261738062 98.0786457657814,24.452023208141327 
C 95.62169015407562,24.452017154544592 93.6286598443985,22.458961233496666 93.6286672949791,20.00200498537197 
C 93.62867474555969,17.545060953125358 95.62170505523682,15.552035998553038 98.0786457657814,15.552031807601452 
Z"/></g>

		<g transform="translate(10.233722627162933 129.8243273049593)">
			<path style="fill:none;stroke:#000000;stroke-width:1px;stroke-linecap:butt;stroke-linejoin:miter;stroke-opacity:1"
				d="M 1.2475238619913398e-06,18.050064332783222
C 1.0766447521746159,18.050065031275153 1.9499992486089468,18.923420691862702 1.9499985501170158,20.0000641304241 
C 1.9499978516250849,21.076707635074854 1.0766421910375357,21.950062131509185 -1.2475238619913398e-06,21.950061433017254 
C -1.0766447521746159,21.950060734525323 -1.9499992486089468,21.076705073937774 -1.9499985501170158,20.000061635376376 
C -1.9499978516250849,18.923418130725622 -1.0766421910375357,18.05006363429129 1.2475238619913398e-06,18.050064332783222 
Z"/></g>
</svg>