<?xml version="1.0" standalone="no"?>
<!DOCTYPE svg PUBLIC "-//W3C//DTD SVG 20010904//EN" "http://www.w3.org/TR/2001/REC-SVG-20010904/DTD/svg10.dtd">

<svg width="29.999971389770508mm" height="29.999971389770508mm"  viewBox="0 0 29.999971389770508 29.999971389770508" xmlns="http://www.w3.org/2000/svg">
<title>Bezier Curve : TransmissionGearDistancer</title>
	<desc>This is an exported Bezier xml_path from Blender, using the ExportScript by maybites.ch</desc>
		<g transform="translate(-140.88457822799683 74.99997317790985)">
			<path style="fill:none;stroke:#000000;stroke-width:1px;stroke-linecap:butt;stroke-linejoin:miter;stroke-opacity:1"
				d="M -14.999985694885254,29.999971389770508
C -14.999985694885254,21.718100644648075 -8.281870745122433,14.999985694885254 0.0,14.999985694885254 
C 8.281870745122433,14.999985694885254 14.999985694885254,21.718100644648075 14.999985694885254,29.999971389770508 
C 14.999985694885254,38.28184213489294 8.281870745122433,44.99995708465576 0.0,44.99995708465576 
C -8.281870745122433,44.99995708465576 -14.999985694885254,38.28184213489294 -14.999985694885254,29.999971389770508 
Z"/></g>

		<g transform="translate(-140.88457822799683 74.99997317790985)">
			<path style="fill:none;stroke:#000000;stroke-width:1px;stroke-linecap:butt;stroke-linejoin:miter;stroke-opacity:1"
				d="M -1.999998465180397,29.999971389770508
C -1.999998465180397,28.89572165440768 -1.1042497353628278,27.99997292459011 0.0,27.99997292459011 
C 1.1042497353628278,27.99997292459011 1.999998465180397,28.89572165440768 1.999998465180397,29.999971389770508 
C 1.999998465180397,31.104221125133336 1.1042497353628278,31.999969854950905 0.0,31.999969854950905 
C -1.1042497353628278,31.999969854950905 -1.999998465180397,31.104221125133336 -1.999998465180397,29.999971389770508 
Z"/></g>

		<g transform="translate(-140.88457822799683 74.99997317790985)">
			<path style="fill:none;stroke:#000000;stroke-width:1px;stroke-linecap:butt;stroke-linejoin:miter;stroke-opacity:1"
				d="M 9.250001050531864,29.999971389770508
C 9.250001050531864,29.585877724457532 9.585906751453876,29.24997196532786 10.000000707805157,29.24997196532786 
C 10.414094664156437,29.24997196532786 10.75000036507845,29.585877724457532 10.75000036507845,29.999971389770508 
C 10.75000036507845,30.414065055083483 10.414094664156437,30.749970814213157 10.000000707805157,30.749970814213157 
C 9.585906751453876,30.749970814213157 9.250001050531864,30.414065055083483 9.250001050531864,29.999971389770508 
Z"/></g>
</svg>