<?xml version="1.0" standalone="no"?>
<!DOCTYPE svg PUBLIC "-//W3C//DTD SVG 20010904//EN" "http://www.w3.org/TR/2001/REC-SVG-20010904/DTD/svg10.dtd">

<svg width="57.40003287792206mm" height="57.40003287792206mm"  viewBox="0 0 57.40003287792206 57.40003287792206" xmlns="http://www.w3.org/2000/svg">
<title>Bezier Curve : Gear_Train_Distancer</title>
	<desc>This is an exported Bezier xml_path from Blender, using the ExportScript by maybites.ch</desc>
		<g transform="translate(28.70001643896103 -28.70001643896103)">
			<path style="fill:none;stroke:#000000;stroke-width:1px;stroke-linecap:butt;stroke-linejoin:miter;stroke-opacity:1"
				d="M -1.0000000474974513,37.26493567228317
C -1.0000000474974513,34.59826856851578 -1.0000000474974513,31.931601464748383 -1.0000000474974513,29.264934360980988 
C -0.33333332976326346,29.264934360980988 0.33333332976326346,29.264934360980988 1.0000000474974513,29.264934360980988 
C 1.0000000474974513,31.931601464748383 1.0000000474974513,34.59826856851578 1.0000000474974513,37.26493567228317 
C 0.33333332976326346,37.26493567228317 -0.33333332976326346,37.26493567228317 -1.0000000474974513,37.26493567228317 
Z"/></g>

		<g transform="translate(28.70001643896103 -28.70001643896103)">
			<path style="fill:none;stroke:#000000;stroke-width:1px;stroke-linecap:butt;stroke-linejoin:miter;stroke-opacity:1"
				d="M -28.70001643896103,57.40003287792206
C -28.70001643896103,41.554028168320656 -15.846004709601402,28.70001643896103 0.0,28.70001643896103 
C 15.846004709601402,28.70001643896103 28.70001643896103,41.554028168320656 28.70001643896103,57.40003287792206 
C 28.70001643896103,73.24603758752346 15.846004709601402,86.10004931688309 0.0,86.10004931688309 
C -15.846004709601402,86.10004931688309 -28.70001643896103,73.24603758752346 -28.70001643896103,57.40003287792206 
Z"/></g>

		<g transform="translate(28.70001643896103 -28.70001643896103)">
			<path style="fill:none;stroke:#000000;stroke-width:1px;stroke-linecap:butt;stroke-linejoin:miter;stroke-opacity:1"
				d="M -1.9499980844557285,57.40003287792206
C -1.9499980844557285,56.32338975556195 -1.0766431223601103,55.45003479346633 0.0,55.45003479346633 
C 1.0766431223601103,55.45003479346633 1.9499980844557285,56.32338975556195 1.9499980844557285,57.40003287792206 
C 1.9499980844557285,58.47667600028217 1.0766431223601103,59.35003096237779 0.0,59.35003096237779 
C -1.0766431223601103,59.35003096237779 -1.9499980844557285,58.47667600028217 -1.9499980844557285,57.40003287792206 
Z"/></g>

		<g transform="translate(28.70001643896103 -28.70001643896103)">
			<path style="fill:none;stroke:#000000;stroke-width:1px;stroke-linecap:butt;stroke-linejoin:miter;stroke-opacity:1"
				d="M -0.7423378992825747,80.2686307579279
C -0.7423378992825747,79.85950447618961 -0.4104652616661042,79.52762581408024 -0.0013394937923294492,79.52762581408024 
C 0.4077865451108664,79.52762581408024 0.7396598812192678,79.85950447618961 0.7396598812192678,80.2686307579279 
C 0.7396598812192678,80.67775703966618 0.4077865451108664,81.00963570177555 -0.0013394937923294492,81.00963570177555 
C -0.4104652616661042,81.00963570177555 -0.7423378992825747,80.67775703966618 -0.7423378992825747,80.2686307579279 
Z"/></g>

		<g transform="translate(28.70001643896103 -28.70001643896103)">
			<path style="fill:none;stroke:#000000;stroke-width:1px;stroke-linecap:butt;stroke-linejoin:miter;stroke-opacity:1"
				d="M 20.175956189632416,46.60861752927303
C 19.821643829345703,46.813180670142174 19.368290901184082,46.6917110607028 19.16372776031494,46.33739776909351 
C 18.9591646194458,45.98308354616165 19.080642610788345,45.529733411967754 19.434956833720207,45.32516933977604 
C 19.78926919400692,45.1206061989069 20.24262212216854,45.24207580834627 20.44718526303768,45.59638909995556 
C 20.651748403906822,45.95070332288742 20.530270412564278,46.40405345708132 20.175956189632416,46.60861752927303 
Z"/></g>

		<g transform="translate(28.70001643896103 -28.70001643896103)">
			<path style="fill:none;stroke:#000000;stroke-width:1px;stroke-linecap:butt;stroke-linejoin:miter;stroke-opacity:1"
				d="M -19.43361759185791,45.32285034656525
C -19.07930336892605,45.52741255611181 -18.957823514938354,45.98076269030571 -19.162386655807495,46.33507691323757 
C -19.366949796676636,46.689391136169434 -19.820302724838257,46.81086353957653 -20.17461694777012,46.60630039870739 
C -20.52893117070198,46.401738189160824 -20.650411024689674,45.94838805496693 -20.445847883820534,45.594073832035065 
C -20.241284742951393,45.2397596091032 -19.787931814789772,45.118287205696106 -19.43361759185791,45.32285034656525 
Z"/></g>
</svg>