<?xml version="1.0" standalone="no"?>
<!DOCTYPE svg PUBLIC "-//W3C//DTD SVG 20010904//EN" "http://www.w3.org/TR/2001/REC-SVG-20010904/DTD/svg10.dtd">

<svg width="17.524142749607563mm" height="17.040411243215203mm"  viewBox="0 0 17.524142749607563 17.040411243215203" xmlns="http://www.w3.org/2000/svg">
<title>Bezier Curve : Head_Driver_DistanceRing.002</title>
	<desc>This is an exported Bezier xml_path from Blender, using the ExportScript by maybites.ch</desc>
		<g transform="translate(8.7653828365859 -141.57790155149996)">
			<path style="fill:none;stroke:#000000;stroke-width:1px;stroke-linecap:butt;stroke-linejoin:miter;stroke-opacity:1"
				d="M -3.510089823976159,20.550501067191362
C -4.000000189989805,19.97260213829577 -4.983528051525354,18.523638835176826 -4.964436404407024,17.040411243215203 
C -4.929832648485899,14.352060621604323 -2.740990836173296,12.075974838808179 0.0,12.075974838808179 
C 2.740990836173296,12.075974838808179 4.865117836743593,14.345283852890134 4.964436404407024,17.040411243215203 
C 5.016526207327843,18.453931086696684 4.000000189989805,19.97260213829577 3.4903495106846094,20.35001222975552 
C 6.000000052154064,18.972600111737847 9.128650650382042,15.988808358088136 8.730321191251278,12.240411015227437 
C 8.220960386097431,7.447168463841081 4.820230882614851,3.510089823976159 0.0,3.510089823976159 
C -4.820230882614851,3.510089823976159 -8.190348744392395,7.450519362464547 -8.730321191251278,12.240411015227437 
C -9.159520268440247,16.047670738771558 -6.000000052154064,18.972600111737847 -3.510089823976159,20.550501067191362 
Z"/></g>

		<g transform="translate(8.7653828365859 -141.57790155149996)">
			<path style="fill:none;stroke:#000000;stroke-width:1px;stroke-linecap:butt;stroke-linejoin:miter;stroke-opacity:1"
				d="M -4.650000482797623,8.972609648481011
C -4.650000017136335,8.61372915096581 -4.358880687505007,8.322612615302205 -4.000000189989805,8.322612615302205 
C -3.6411199253052473,8.322612615302205 -3.3500022254884243,8.61372915096581 -3.350001759827137,8.972609648481011 
C -3.3500012941658497,9.331491077318788 -3.6411189939826727,9.622610406950116 -4.000000189989805,9.622610872611403 
C -4.358882084488869,9.62261133827269 -4.65000094845891,9.331491542980075 -4.650000482797623,8.972609648481011 
Z"/></g>

		<g transform="translate(8.7653828365859 -141.57790155149996)">
			<path style="fill:none;stroke:#000000;stroke-width:1px;stroke-linecap:butt;stroke-linejoin:miter;stroke-opacity:1"
				d="M 3.350001759827137,8.972609648481011
C 3.3500022254884243,8.61372915096581 3.6411199253052473,8.322612615302205 4.000000189989805,8.322612615302205 
C 4.358880687505007,8.322612615302205 4.650000017136335,8.61372915096581 4.650000482797623,8.972609648481011 
C 4.65000094845891,9.331491542980075 4.358882084488869,9.62261133827269 4.000000189989805,9.622610872611403 
C 3.6411189939826727,9.622610406950116 3.3500012941658497,9.331491077318788 3.350001759827137,8.972609648481011 
Z"/></g>
</svg>